M48
; DRILL file {KiCad 8.0.4} date 2025-04-28T15:50:53-0400
; FORMAT={-:-/ absolute / inch / decimal}
; #@! TF.CreationDate,2025-04-28T15:50:53-04:00
; #@! TF.GenerationSoftware,Kicad,Pcbnew,8.0.4
; #@! TF.FileFunction,Plated,1,4,PTH
FMAT,2
INCH
; #@! TA.AperFunction,Plated,PTH,ViaDrill
T1C0.0098
; #@! TA.AperFunction,Plated,PTH,ComponentDrill
T2C0.0276
; #@! TA.AperFunction,Plated,PTH,ComponentDrill
T3C0.0319
; #@! TA.AperFunction,Plated,PTH,ComponentDrill
T4C0.0374
; #@! TA.AperFunction,Plated,PTH,ComponentDrill
T5C0.0394
; #@! TA.AperFunction,Plated,PTH,ComponentDrill
T6C0.0421
; #@! TA.AperFunction,Plated,PTH,ComponentDrill
T7C0.0472
; #@! TA.AperFunction,Plated,PTH,ComponentDrill
T8C0.0650
; #@! TA.AperFunction,Plated,PTH,ComponentDrill
T9C0.0866
%
G90
G05
T1
X5.3819Y-3.563
X5.4065Y-3.5945
X5.436Y-3.5945
X5.4606Y-3.5827
X5.4685Y-3.5197
X5.4774Y-3.5472
X5.5069Y-3.5472
X5.5315Y-3.5354
X5.5354Y-3.5984
X5.5443Y-3.622
X5.5709Y-3.5945
X5.5738Y-3.622
X5.5748Y-3.5315
X5.5955Y-3.5472
X5.625Y-3.5472
X5.6417Y-3.5236
X6.2008Y-3.0906
T2
X5.7146Y-3.4276
X5.7146Y-3.4776
X5.7146Y-3.5276
X5.7146Y-3.5776
X5.7146Y-3.6276
X5.7146Y-3.6776
X5.7146Y-3.7276
X5.7146Y-3.7776
X5.7146Y-3.8276
X5.7146Y-3.8776
X5.7146Y-3.9276
X5.7146Y-3.9776
X5.7146Y-4.0276
X5.7539Y-3.4276
X5.7539Y-3.4776
X5.7539Y-3.5276
X5.7539Y-3.5776
X5.7539Y-3.6276
X5.7539Y-3.6776
X5.7539Y-3.7276
X5.7539Y-3.7776
X5.7539Y-3.8276
X5.7539Y-3.8776
X5.7539Y-3.9276
X5.7539Y-3.9776
X5.7539Y-4.0276
X6.5209Y-3.2165
X6.5209Y-3.2559
X6.5709Y-3.2165
X6.5709Y-3.2559
X6.6209Y-3.2165
X6.6209Y-3.2559
X6.6709Y-3.2165
X6.6709Y-3.2559
X6.7209Y-3.2165
X6.7209Y-3.2559
X6.7709Y-3.2165
X6.7709Y-3.2559
X6.8209Y-3.2165
X6.8209Y-3.2559
T3
X6.1209Y-3.2165
X6.1709Y-3.2165
X6.2209Y-3.2165
X6.3209Y-3.2165
X6.3709Y-3.2165
X6.4209Y-3.2165
T4
X5.2106Y-3.5585
X5.2106Y-3.6585
X5.2106Y-3.7585
X5.2106Y-3.8585
X5.2106Y-3.9585
X5.3106Y-3.5085
X5.3106Y-3.6085
X5.3106Y-3.7085
X5.3106Y-3.8085
X5.3106Y-3.9085
T5
X6.2835Y-2.8789
X6.2835Y-2.9789
T6
X4.7807Y-3.4663
X4.7807Y-4.0006
X4.8606Y-3.4663
X4.8606Y-4.0006
T7
X4.6732Y-3.0484
X4.6732Y-3.1484
X6.4343Y-2.9016
X6.5343Y-2.9016
X6.698Y-2.9016
X6.798Y-2.9016
T8
X5.0807Y-3.4283
X5.0807Y-4.0386
T9
X4.6378Y-2.8622
X4.6378Y-4.189
X6.9843Y-2.8622
X6.9843Y-4.189
M30
