%TF.GenerationSoftware,KiCad,Pcbnew,8.0.4*%
%TF.CreationDate,2025-04-28T15:50:51-04:00*%
%TF.ProjectId,BB-SPEM-A-1 Breakout,42422d53-5045-44d2-9d41-2d3120427265,rev?*%
%TF.SameCoordinates,Original*%
%TF.FileFunction,Copper,L1,Top*%
%TF.FilePolarity,Positive*%
%FSLAX46Y46*%
G04 Gerber Fmt 4.6, Leading zero omitted, Abs format (unit mm)*
G04 Created by KiCad (PCBNEW 8.0.4) date 2025-04-28 15:50:51*
%MOMM*%
%LPD*%
G01*
G04 APERTURE LIST*
G04 Aperture macros list*
%AMRoundRect*
0 Rectangle with rounded corners*
0 $1 Rounding radius*
0 $2 $3 $4 $5 $6 $7 $8 $9 X,Y pos of 4 corners*
0 Add a 4 corners polygon primitive as box body*
4,1,4,$2,$3,$4,$5,$6,$7,$8,$9,$2,$3,0*
0 Add four circle primitives for the rounded corners*
1,1,$1+$1,$2,$3*
1,1,$1+$1,$4,$5*
1,1,$1+$1,$6,$7*
1,1,$1+$1,$8,$9*
0 Add four rect primitives between the rounded corners*
20,1,$1+$1,$2,$3,$4,$5,0*
20,1,$1+$1,$4,$5,$6,$7,0*
20,1,$1+$1,$6,$7,$8,$9,0*
20,1,$1+$1,$8,$9,$2,$3,0*%
G04 Aperture macros list end*
%TA.AperFunction,ComponentPad*%
%ADD10O,2.700000X1.000000*%
%TD*%
%TA.AperFunction,ComponentPad*%
%ADD11O,1.700000X1.000000*%
%TD*%
%TA.AperFunction,ComponentPad*%
%ADD12R,1.100000X2.200000*%
%TD*%
%TA.AperFunction,ComponentPad*%
%ADD13O,1.000000X2.700000*%
%TD*%
%TA.AperFunction,ComponentPad*%
%ADD14O,1.000000X1.700000*%
%TD*%
%TA.AperFunction,SMDPad,CuDef*%
%ADD15RoundRect,0.125000X-0.125000X-0.155000X0.125000X-0.155000X0.125000X0.155000X-0.125000X0.155000X0*%
%TD*%
%TA.AperFunction,ComponentPad*%
%ADD16RoundRect,0.630000X-0.470000X0.270000X-0.470000X-0.270000X0.470000X-0.270000X0.470000X0.270000X0*%
%TD*%
%TA.AperFunction,ComponentPad*%
%ADD17O,2.200000X1.800000*%
%TD*%
%TA.AperFunction,ComponentPad*%
%ADD18RoundRect,0.630000X0.270000X0.470000X-0.270000X0.470000X-0.270000X-0.470000X0.270000X-0.470000X0*%
%TD*%
%TA.AperFunction,ComponentPad*%
%ADD19O,1.800000X2.200000*%
%TD*%
%TA.AperFunction,SMDPad,CuDef*%
%ADD20RoundRect,0.135000X0.135000X0.185000X-0.135000X0.185000X-0.135000X-0.185000X0.135000X-0.185000X0*%
%TD*%
%TA.AperFunction,ComponentPad*%
%ADD21C,3.800000*%
%TD*%
%TA.AperFunction,ComponentPad*%
%ADD22R,1.458000X1.458000*%
%TD*%
%TA.AperFunction,ComponentPad*%
%ADD23C,1.458000*%
%TD*%
%TA.AperFunction,ComponentPad*%
%ADD24C,1.605000*%
%TD*%
%TA.AperFunction,ComponentPad*%
%ADD25C,2.475000*%
%TD*%
%TA.AperFunction,ComponentPad*%
%ADD26R,1.700000X1.700000*%
%TD*%
%TA.AperFunction,ComponentPad*%
%ADD27O,1.700000X1.700000*%
%TD*%
%TA.AperFunction,ConnectorPad*%
%ADD28C,0.787400*%
%TD*%
%TA.AperFunction,SMDPad,CuDef*%
%ADD29RoundRect,0.147500X-0.147500X-0.172500X0.147500X-0.172500X0.147500X0.172500X-0.147500X0.172500X0*%
%TD*%
%TA.AperFunction,SMDPad,CuDef*%
%ADD30RoundRect,0.147500X0.147500X0.172500X-0.147500X0.172500X-0.147500X-0.172500X0.147500X-0.172500X0*%
%TD*%
%TA.AperFunction,SMDPad,CuDef*%
%ADD31RoundRect,0.135000X-0.135000X-0.185000X0.135000X-0.185000X0.135000X0.185000X-0.135000X0.185000X0*%
%TD*%
%TA.AperFunction,ViaPad*%
%ADD32C,0.500000*%
%TD*%
%TA.AperFunction,Conductor*%
%ADD33C,0.304800*%
%TD*%
%TA.AperFunction,Conductor*%
%ADD34C,0.152400*%
%TD*%
%TA.AperFunction,Conductor*%
%ADD35C,0.101600*%
%TD*%
%TA.AperFunction,Conductor*%
%ADD36C,1.000000*%
%TD*%
G04 APERTURE END LIST*
D10*
%TO.P,J1,1,3V3_IN*%
%TO.N,/3V3*%
X145450000Y-87060000D03*
D11*
X145850000Y-87060000D03*
D10*
%TO.P,J1,2,BASE-T_LED*%
%TO.N,Net-(D1-K)*%
X145450000Y-88330000D03*
D11*
X145850000Y-88330000D03*
D10*
%TO.P,J1,3,GND*%
%TO.N,GND*%
X145450000Y-89600000D03*
D11*
X145850000Y-89600000D03*
D10*
%TO.P,J1,4,ETH_A_P*%
%TO.N,/A+*%
X145450000Y-90870000D03*
D11*
X145850000Y-90870000D03*
D10*
%TO.P,J1,5,ETH_A_N*%
%TO.N,/A-*%
X145450000Y-92140000D03*
D11*
X145850000Y-92140000D03*
D10*
%TO.P,J1,6,ETH_B_P*%
%TO.N,/B+*%
X145450000Y-93410000D03*
D11*
X145850000Y-93410000D03*
D10*
%TO.P,J1,7,ETH_B_N*%
%TO.N,/B-*%
X145450000Y-94680000D03*
D11*
X145850000Y-94680000D03*
D10*
%TO.P,J1,8,ETH_C_P*%
%TO.N,/C+*%
X145450000Y-95950000D03*
D11*
X145850000Y-95950000D03*
D10*
%TO.P,J1,9,ETH_C_N*%
%TO.N,/C-*%
X145450000Y-97220000D03*
D11*
X145850000Y-97220000D03*
D10*
%TO.P,J1,10,ETH_D_P*%
%TO.N,/D+*%
X145450000Y-98490000D03*
D11*
X145850000Y-98490000D03*
D10*
%TO.P,J1,11,ETH_D_N*%
%TO.N,/D-*%
X145450000Y-99760000D03*
D11*
X145850000Y-99760000D03*
D10*
%TO.P,J1,12,GND*%
%TO.N,GND*%
X145450000Y-101030000D03*
D11*
X145850000Y-101030000D03*
D10*
%TO.P,J1,13,BASE-T1_LED*%
%TO.N,Net-(J1-BASE-T1_LED)*%
X145450000Y-102300000D03*
D11*
X145850000Y-102300000D03*
D12*
%TO.P,J1,14,GND*%
%TO.N,GND*%
X155470000Y-81700000D03*
%TO.P,J1,15,NC*%
%TO.N,unconnected-(J1-NC-Pad15)*%
X156740000Y-81700000D03*
%TO.P,J1,16,MCU_RST*%
%TO.N,/MCU_RST*%
X158010000Y-81700000D03*
%TO.P,J1,17,SWCLK*%
%TO.N,/SWCLK*%
X160550000Y-81700000D03*
%TO.P,J1,18,3V3*%
%TO.N,/3V3*%
X161820000Y-81700000D03*
%TO.P,J1,19,SWDIO*%
%TO.N,/SWDIO*%
X163090000Y-81700000D03*
D13*
%TO.P,J1,20,UART_RX*%
%TO.N,Net-(J1-UART_RX)*%
X165630000Y-82000000D03*
D14*
X165630000Y-82400000D03*
D13*
%TO.P,J1,21,UART_TX*%
%TO.N,Net-(J1-UART_TX)*%
X166900000Y-82000000D03*
D14*
X166900000Y-82400000D03*
D13*
%TO.P,J1,22,SLAVE_STRAP*%
%TO.N,Net-(J1-SLAVE_STRAP)*%
X168170000Y-82000000D03*
D14*
X168170000Y-82400000D03*
D13*
%TO.P,J1,23,GND*%
%TO.N,GND*%
X169440000Y-82000000D03*
D14*
X169440000Y-82400000D03*
D13*
%TO.P,J1,24,SPE_TRX_P*%
%TO.N,/SPE_TRX+*%
X170710000Y-82000000D03*
D14*
X170710000Y-82400000D03*
D13*
%TO.P,J1,25,SPE_TRX_N*%
%TO.N,/SPE_TRX-*%
X171980000Y-82000000D03*
D14*
X171980000Y-82400000D03*
D13*
%TO.P,J1,26,GND*%
%TO.N,GND*%
X173250000Y-82000000D03*
D14*
X173250000Y-82400000D03*
%TD*%
D15*
%TO.P,C2,1*%
%TO.N,Earth*%
X132015000Y-85100000D03*
%TO.P,C2,2*%
%TO.N,Net-(J6-CT_1)*%
X132985000Y-85100000D03*
%TD*%
D16*
%TO.P,J2,1,Pin_1*%
%TO.N,GND*%
X118700000Y-77430000D03*
D17*
%TO.P,J2,2,Pin_2*%
%TO.N,/3V3*%
X118700000Y-79970000D03*
%TD*%
D18*
%TO.P,J3,1,Pin_1*%
%TO.N,/SPE_TRX-*%
X172670000Y-73700000D03*
D19*
%TO.P,J3,2,Pin_2*%
%TO.N,/SPE_TRX+*%
X170130000Y-73700000D03*
%TD*%
D20*
%TO.P,R1,1*%
%TO.N,Net-(D1-A)*%
X136490000Y-85000000D03*
%TO.P,R1,2*%
%TO.N,/3V3*%
X135470000Y-85000000D03*
%TD*%
D21*
%TO.P,H4,1,1*%
%TO.N,unconnected-(H4-Pad1)*%
X177400000Y-72700000D03*
%TD*%
D18*
%TO.P,J4,1,Pin_1*%
%TO.N,Net-(J1-UART_TX)*%
X165970000Y-73700000D03*
D19*
%TO.P,J4,2,Pin_2*%
%TO.N,Net-(J1-UART_RX)*%
X163430000Y-73700000D03*
%TD*%
D22*
%TO.P,J6,P1,TD1+*%
%TO.N,/A+*%
X132350000Y-100545000D03*
D23*
%TO.P,J6,P2,TD1-*%
%TO.N,/A-*%
X134890000Y-99275000D03*
%TO.P,J6,P3,TD2+*%
%TO.N,/B+*%
X132350000Y-98005000D03*
%TO.P,J6,P4,TD2-*%
%TO.N,/B-*%
X134890000Y-96735000D03*
%TO.P,J6,P5,CT_1*%
%TO.N,Net-(J6-CT_1)*%
X132350000Y-95465000D03*
%TO.P,J6,P6,CT_2*%
%TO.N,Net-(J6-CT_2)*%
X134890000Y-94195000D03*
%TO.P,J6,P7,TD3+*%
%TO.N,/C+*%
X132350000Y-92925000D03*
%TO.P,J6,P8,TD3-*%
%TO.N,/C-*%
X134890000Y-91655000D03*
%TO.P,J6,P9,TD4+*%
%TO.N,/D+*%
X132350000Y-90385000D03*
%TO.P,J6,P10,TD4-*%
%TO.N,/D-*%
X134890000Y-89115000D03*
D24*
%TO.P,J6,P11*%
%TO.N,unconnected-(J6-PadP11)*%
X123460000Y-88045000D03*
%TO.P,J6,P12*%
%TO.N,unconnected-(J6-PadP12)*%
X121430000Y-88045000D03*
%TO.P,J6,P13*%
%TO.N,unconnected-(J6-PadP13)*%
X123460000Y-101615000D03*
%TO.P,J6,P14*%
%TO.N,unconnected-(J6-PadP14)*%
X121430000Y-101615000D03*
D25*
%TO.P,J6,S1,SHIELD*%
%TO.N,Earth*%
X129050000Y-102580000D03*
%TO.P,J6,S2,SHIELD*%
X129050000Y-87080000D03*
%TD*%
D26*
%TO.P,J5,1,Pin_1*%
%TO.N,Net-(J1-SLAVE_STRAP)*%
X159600000Y-73125000D03*
D27*
%TO.P,J5,2,Pin_2*%
%TO.N,GND*%
X159600000Y-75665000D03*
%TD*%
D28*
%TO.P,J8,1,VCC*%
%TO.N,/3V3*%
X154465000Y-72730000D03*
%TO.P,J8,2,SWDIO*%
%TO.N,/SWDIO*%
X155735000Y-72730000D03*
%TO.P,J8,3,~{RESET}*%
%TO.N,/MCU_RST*%
X154465000Y-74000000D03*
%TO.P,J8,4,SWCLK*%
%TO.N,/SWCLK*%
X155735000Y-74000000D03*
%TO.P,J8,5,GND*%
%TO.N,GND*%
X154465000Y-75270000D03*
%TO.P,J8,6,SWO*%
%TO.N,unconnected-(J8-SWO-Pad6)*%
X155735000Y-75270000D03*
%TD*%
D21*
%TO.P,H2,1,1*%
%TO.N,unconnected-(H2-Pad1)*%
X117800000Y-106400000D03*
%TD*%
%TO.P,H3,1,1*%
%TO.N,unconnected-(H3-Pad1)*%
X177400000Y-106400000D03*
%TD*%
D29*
%TO.P,D2,1,K*%
%TO.N,GND*%
X138515000Y-102300000D03*
%TO.P,D2,2,A*%
%TO.N,Net-(D2-A)*%
X139485000Y-102300000D03*
%TD*%
D30*
%TO.P,D1,1,K*%
%TO.N,Net-(D1-K)*%
X138365000Y-85000000D03*
%TO.P,D1,2,A*%
%TO.N,Net-(D1-A)*%
X137395000Y-85000000D03*
%TD*%
D31*
%TO.P,R2,1*%
%TO.N,Net-(D2-A)*%
X140770000Y-102300000D03*
%TO.P,R2,2*%
%TO.N,Net-(J1-BASE-T1_LED)*%
X141790000Y-102300000D03*
%TD*%
D15*
%TO.P,C1,1*%
%TO.N,Earth*%
X132015000Y-83900000D03*
%TO.P,C1,2*%
%TO.N,Net-(J6-CT_2)*%
X132985000Y-83900000D03*
%TD*%
D21*
%TO.P,H1,1,1*%
%TO.N,unconnected-(H1-Pad1)*%
X117800000Y-72700000D03*
%TD*%
D32*
%TO.N,GND*%
X143300000Y-89500000D03*
X141600000Y-89700000D03*
X136700000Y-90500000D03*
X140600000Y-91400000D03*
X141500000Y-91300000D03*
X140500000Y-89800000D03*
X138700000Y-91000000D03*
X157500000Y-78500000D03*
X138900000Y-89400000D03*
%TO.N,/D+*%
X138075000Y-91300000D03*
%TO.N,/D-*%
X137325000Y-91300000D03*
%TO.N,/C-*%
X139125000Y-90100000D03*
%TO.N,/C+*%
X139875000Y-90100000D03*
%TO.N,/A+*%
X142875000Y-90100000D03*
%TO.N,/B-*%
X140825000Y-92000000D03*
%TO.N,/A-*%
X142125000Y-90100000D03*
%TO.N,/B+*%
X141575000Y-92000000D03*
%TD*%
D33*
%TO.N,Earth*%
X131030000Y-85100000D02*
X132015000Y-85100000D01*
X129050000Y-87080000D02*
X131030000Y-85100000D01*
X129050000Y-102580000D02*
X129050000Y-87080000D01*
X132015000Y-83900000D02*
X132015000Y-85100000D01*
%TO.N,Net-(J6-CT_2)*%
X131595000Y-94195000D02*
X131100000Y-93700000D01*
X131100000Y-93700000D02*
X131100000Y-88200000D01*
X134890000Y-94195000D02*
X131595000Y-94195000D01*
X131100000Y-88200000D02*
X133800000Y-85500000D01*
X133800000Y-84715000D02*
X132985000Y-83900000D01*
X133800000Y-85500000D02*
X133800000Y-84715000D01*
%TO.N,Net-(J6-CT_1)*%
X132985000Y-85615000D02*
X132985000Y-85100000D01*
X132350000Y-95465000D02*
X131965000Y-95465000D01*
X130600000Y-94100000D02*
X130600000Y-88000000D01*
X130600000Y-88000000D02*
X132985000Y-85615000D01*
X131965000Y-95465000D02*
X130600000Y-94100000D01*
%TO.N,Net-(D1-K)*%
X143320000Y-88320000D02*
X140000000Y-85000000D01*
X145130000Y-88320000D02*
X143320000Y-88320000D01*
X140000000Y-85000000D02*
X138365000Y-85000000D01*
%TO.N,Net-(D1-A)*%
X136490000Y-85000000D02*
X137395000Y-85000000D01*
%TO.N,GND*%
X155368300Y-76173300D02*
X155368300Y-76868300D01*
X157000000Y-78500000D02*
X157500000Y-78500000D01*
X154465000Y-75270000D02*
X155368300Y-76173300D01*
X155368300Y-76868300D02*
X157000000Y-78500000D01*
D34*
%TO.N,Net-(D2-A)*%
X139485000Y-102300000D02*
X140770000Y-102300000D01*
%TO.N,Net-(J1-UART_TX)*%
X166338600Y-74068600D02*
X165970000Y-73700000D01*
X166338600Y-80874125D02*
X166338600Y-74068600D01*
X166880000Y-81415525D02*
X166338600Y-80874125D01*
X166880000Y-81690000D02*
X166880000Y-81415525D01*
D35*
%TO.N,/SPE_TRX+*%
X170130000Y-74780000D02*
X170130000Y-73700000D01*
X170690000Y-81690000D02*
X170690000Y-80840000D01*
X170690000Y-80840000D02*
X171217050Y-80312950D01*
X171217050Y-75867050D02*
X170130000Y-74780000D01*
X171217050Y-80312950D02*
X171217050Y-75867050D01*
D33*
%TO.N,/3V3*%
X154200000Y-84400000D02*
X152100000Y-82300000D01*
X137360000Y-83110000D02*
X141190000Y-83110000D01*
X161800000Y-83300000D02*
X160700000Y-84400000D01*
D36*
X138050000Y-79970000D02*
X139150000Y-81070000D01*
D33*
X135470000Y-85000000D02*
X137360000Y-83110000D01*
D36*
X141190000Y-83110000D02*
X145130000Y-87050000D01*
X151570000Y-72730000D02*
X154465000Y-72730000D01*
X141190000Y-83110000D02*
X151570000Y-72730000D01*
D33*
X152100000Y-75095000D02*
X154465000Y-72730000D01*
D36*
X118700000Y-79970000D02*
X138050000Y-79970000D01*
D33*
X152100000Y-82300000D02*
X152100000Y-75095000D01*
X160700000Y-84400000D02*
X154200000Y-84400000D01*
D36*
X139150000Y-81070000D02*
X141190000Y-83110000D01*
D33*
X161800000Y-81690000D02*
X161800000Y-83300000D01*
D35*
%TO.N,/SPE_TRX-*%
X172670000Y-74670000D02*
X172670000Y-73700000D01*
X171960000Y-81690000D02*
X171960000Y-80840000D01*
X171960000Y-80840000D02*
X171432950Y-80312950D01*
X171432950Y-80312950D02*
X171432950Y-75907050D01*
X171432950Y-75907050D02*
X172670000Y-74670000D01*
D34*
%TO.N,Net-(J1-BASE-T1_LED)*%
X141790000Y-102300000D02*
X145120000Y-102300000D01*
X145120000Y-102300000D02*
X145130000Y-102290000D01*
D35*
%TO.N,/D+*%
X137044716Y-87492050D02*
X137807950Y-88255284D01*
X135242950Y-87492050D02*
X137044716Y-87492050D01*
X137807950Y-91032950D02*
X138075000Y-91300000D01*
X137807950Y-88255284D02*
X137807950Y-91032950D01*
X132350000Y-90385000D02*
X135242950Y-87492050D01*
D34*
%TO.N,Net-(J1-UART_RX)*%
X165610000Y-79140000D02*
X163430000Y-76960000D01*
X163430000Y-76960000D02*
X163430000Y-73700000D01*
X165610000Y-81690000D02*
X165610000Y-79140000D01*
D35*
%TO.N,/D-*%
X137592050Y-91032950D02*
X137325000Y-91300000D01*
X136955284Y-87707950D02*
X137592050Y-88344716D01*
X134890000Y-88150329D02*
X135332379Y-87707950D01*
X134890000Y-89115000D02*
X134890000Y-88150329D01*
X135332379Y-87707950D02*
X136955284Y-87707950D01*
X137592050Y-88344716D02*
X137592050Y-91032950D01*
%TO.N,/C-*%
X139125000Y-90100000D02*
X139392050Y-90367050D01*
X138238234Y-92709100D02*
X135944100Y-92709100D01*
X139392050Y-91555284D02*
X138238234Y-92709100D01*
X139392050Y-90367050D02*
X139392050Y-91555284D01*
X135944100Y-92709100D02*
X134890000Y-91655000D01*
%TO.N,/C+*%
X138327666Y-92925000D02*
X132350000Y-92925000D01*
X139875000Y-90100000D02*
X139607950Y-90367050D01*
X139607950Y-90367050D02*
X139607950Y-91644716D01*
X139607950Y-91644716D02*
X138327666Y-92925000D01*
%TO.N,/A+*%
X138307666Y-100545000D02*
X132350000Y-100545000D01*
X142607950Y-96244716D02*
X138307666Y-100545000D01*
X142875000Y-90100000D02*
X142607950Y-90367050D01*
X142607950Y-90367050D02*
X142607950Y-96244716D01*
D34*
%TO.N,Net-(J1-SLAVE_STRAP)*%
X165150000Y-84600000D02*
X167540000Y-84600000D01*
X159600000Y-73125000D02*
X161910000Y-75435000D01*
X164380000Y-80460000D02*
X164380000Y-83830000D01*
X161910000Y-77990000D02*
X164380000Y-80460000D01*
X168150000Y-83990000D02*
X168150000Y-82690000D01*
X161910000Y-75435000D02*
X161910000Y-77990000D01*
X164380000Y-83830000D02*
X165150000Y-84600000D01*
X167540000Y-84600000D02*
X168150000Y-83990000D01*
D35*
%TO.N,/B-*%
X135944100Y-97789100D02*
X134890000Y-96735000D01*
X138958234Y-97789100D02*
X135944100Y-97789100D01*
X138958234Y-97789100D02*
X141092050Y-95655284D01*
X141092050Y-95655284D02*
X141092050Y-92267050D01*
X141092050Y-92267050D02*
X140825000Y-92000000D01*
%TO.N,/A-*%
X138218234Y-100329100D02*
X142392050Y-96155284D01*
X135944100Y-100329100D02*
X134890000Y-99275000D01*
X142392050Y-96155284D02*
X142392050Y-90367050D01*
X142392050Y-90367050D02*
X142125000Y-90100000D01*
X138218234Y-100329100D02*
X135944100Y-100329100D01*
%TO.N,/B+*%
X141307950Y-92267050D02*
X141307950Y-95744716D01*
X139047666Y-98005000D02*
X132350000Y-98005000D01*
X141575000Y-92000000D02*
X141307950Y-92267050D01*
X141307950Y-95744716D02*
X139047666Y-98005000D01*
D34*
%TO.N,/SWCLK*%
X157670000Y-76950000D02*
X160530000Y-79810000D01*
X157670000Y-75935000D02*
X157670000Y-76950000D01*
X160530000Y-79810000D02*
X160530000Y-81690000D01*
X155735000Y-74000000D02*
X157670000Y-75935000D01*
%TO.N,/MCU_RST*%
X154465000Y-74000000D02*
X153040000Y-75425000D01*
X157990000Y-80437600D02*
X157990000Y-81690000D01*
X153040000Y-77210000D02*
X154360000Y-78530000D01*
X156082400Y-78530000D02*
X157990000Y-80437600D01*
X154360000Y-78530000D02*
X156082400Y-78530000D01*
X153040000Y-75425000D02*
X153040000Y-77210000D01*
%TO.N,/SWDIO*%
X157974800Y-74969800D02*
X157974800Y-76774800D01*
X158770000Y-77570000D02*
X160202400Y-77570000D01*
X155735000Y-72730000D02*
X157974800Y-74969800D01*
X163070000Y-80437600D02*
X163070000Y-81690000D01*
X160202400Y-77570000D02*
X163070000Y-80437600D01*
X157974800Y-76774800D02*
X158770000Y-77570000D01*
%TD*%
%TA.AperFunction,Conductor*%
%TO.N,GND*%
G36*
X145869930Y-100815095D02*
G01*
X145823852Y-100894905D01*
X145800000Y-100983922D01*
X145800000Y-101076078D01*
X145823852Y-101165095D01*
X145869930Y-101244905D01*
X145905025Y-101280000D01*
X145394975Y-101280000D01*
X145430070Y-101244905D01*
X145476148Y-101165095D01*
X145500000Y-101076078D01*
X145500000Y-100983922D01*
X145476148Y-100894905D01*
X145430070Y-100815095D01*
X145394975Y-100780000D01*
X145905025Y-100780000D01*
X145869930Y-100815095D01*
G37*
%TD.AperFunction*%
%TA.AperFunction,Conductor*%
G36*
X145869930Y-89385095D02*
G01*
X145823852Y-89464905D01*
X145800000Y-89553922D01*
X145800000Y-89646078D01*
X145823852Y-89735095D01*
X145869930Y-89814905D01*
X145905025Y-89850000D01*
X145394975Y-89850000D01*
X145430070Y-89814905D01*
X145476148Y-89735095D01*
X145500000Y-89646078D01*
X145500000Y-89553922D01*
X145476148Y-89464905D01*
X145430070Y-89385095D01*
X145394975Y-89350000D01*
X145905025Y-89350000D01*
X145869930Y-89385095D01*
G37*
%TD.AperFunction*%
%TA.AperFunction,Conductor*%
G36*
X152712103Y-77317107D02*
G01*
X152738286Y-77348818D01*
X152775374Y-77413055D01*
X152775376Y-77413057D01*
X152844010Y-77481691D01*
X152844016Y-77481696D01*
X154091033Y-78728713D01*
X154091043Y-78728724D01*
X154095374Y-78733055D01*
X154156945Y-78794626D01*
X154232354Y-78838164D01*
X154316462Y-78860700D01*
X154316463Y-78860700D01*
X154403537Y-78860700D01*
X155894058Y-78860700D01*
X155961097Y-78880385D01*
X155981739Y-78897019D01*
X157218539Y-80133819D01*
X157252024Y-80195142D01*
X157247040Y-80264834D01*
X157205168Y-80320767D01*
X157139704Y-80345184D01*
X157130858Y-80345500D01*
X156516131Y-80345500D01*
X156449092Y-80325815D01*
X156416864Y-80295811D01*
X156377186Y-80242809D01*
X156262093Y-80156649D01*
X156262086Y-80156645D01*
X156127379Y-80106403D01*
X156127372Y-80106401D01*
X156067844Y-80100000D01*
X155720000Y-80100000D01*
X155720000Y-81377243D01*
X155718676Y-81375919D01*
X155626324Y-81322600D01*
X155523319Y-81295000D01*
X155416681Y-81295000D01*
X155313676Y-81322600D01*
X155221324Y-81375919D01*
X155220000Y-81377243D01*
X155220000Y-80100000D01*
X154872155Y-80100000D01*
X154812627Y-80106401D01*
X154812620Y-80106403D01*
X154677913Y-80156645D01*
X154677906Y-80156649D01*
X154562812Y-80242809D01*
X154562809Y-80242812D01*
X154476649Y-80357906D01*
X154476645Y-80357913D01*
X154426403Y-80492620D01*
X154426401Y-80492627D01*
X154420000Y-80552155D01*
X154420000Y-80976660D01*
X154400315Y-81043699D01*
X154347511Y-81089454D01*
X154287184Y-81098496D01*
X154287184Y-81099500D01*
X154280491Y-81099500D01*
X154279824Y-81099600D01*
X154279064Y-81099500D01*
X154279057Y-81099500D01*
X154120943Y-81099500D01*
X153968216Y-81140423D01*
X153968209Y-81140426D01*
X153831290Y-81219475D01*
X153831282Y-81219481D01*
X153719481Y-81331282D01*
X153719475Y-81331290D01*
X153640426Y-81468209D01*
X153640423Y-81468216D01*
X153599500Y-81620943D01*
X153599500Y-81779057D01*
X153635901Y-81914905D01*
X153640423Y-81931783D01*
X153640426Y-81931790D01*
X153719475Y-82068709D01*
X153719479Y-82068714D01*
X153719480Y-82068716D01*
X153831284Y-82180520D01*
X153831286Y-82180521D01*
X153831290Y-82180524D01*
X153968209Y-82259573D01*
X153968216Y-82259577D01*
X154120943Y-82300500D01*
X154120945Y-82300500D01*
X154279051Y-82300500D01*
X154279057Y-82300500D01*
X154279062Y-82300498D01*
X154279810Y-82300400D01*
X154280451Y-82300500D01*
X154287184Y-82300500D01*
X154287184Y-82301549D01*
X154348846Y-82311164D01*
X154401103Y-82357541D01*
X154420000Y-82423339D01*
X154420000Y-82847844D01*
X154426401Y-82907372D01*
X154426403Y-82907379D01*
X154476645Y-83042086D01*
X154476649Y-83042093D01*
X154562809Y-83157187D01*
X154562812Y-83157190D01*
X154677906Y-83243350D01*
X154677913Y-83243354D01*
X154812620Y-83293596D01*
X154812627Y-83293598D01*
X154872155Y-83299999D01*
X154872172Y-83300000D01*
X155220000Y-83300000D01*
X155220000Y-82022757D01*
X155221324Y-82024081D01*
X155313676Y-82077400D01*
X155416681Y-82105000D01*
X155523319Y-82105000D01*
X155626324Y-82077400D01*
X155718676Y-82024081D01*
X155720000Y-82022757D01*
X155720000Y-83300000D01*
X156067828Y-83300000D01*
X156067844Y-83299999D01*
X156127372Y-83293598D01*
X156127379Y-83293596D01*
X156262086Y-83243354D01*
X156262088Y-83243352D01*
X156377186Y-83157190D01*
X156377187Y-83157189D01*
X156416865Y-83104188D01*
X156472799Y-83062317D01*
X156516128Y-83054499D01*
X157315066Y-83054499D01*
X157315067Y-83054499D01*
X157315068Y-83054498D01*
X157337685Y-83050000D01*
X157350808Y-83047390D01*
X157399190Y-83047390D01*
X157434933Y-83054500D01*
X158525500Y-83054499D01*
X158592539Y-83074184D01*
X158638294Y-83126987D01*
X158649500Y-83178499D01*
X158649500Y-83262103D01*
X158673727Y-83383902D01*
X158673730Y-83383912D01*
X158721256Y-83498650D01*
X158721261Y-83498660D01*
X158790257Y-83601919D01*
X158790260Y-83601923D01*
X158878076Y-83689739D01*
X158878080Y-83689742D01*
X158981342Y-83758740D01*
X158983211Y-83759739D01*
X158984006Y-83760520D01*
X158986411Y-83762127D01*
X158986106Y-83762582D01*
X159033057Y-83808699D01*
X159048521Y-83876836D01*
X159024693Y-83942517D01*
X158969138Y-83984888D01*
X158924763Y-83993100D01*
X154419905Y-83993100D01*
X154352866Y-83973415D01*
X154332224Y-83956781D01*
X152543219Y-82167775D01*
X152509734Y-82106452D01*
X152506900Y-82080094D01*
X152506900Y-77410820D01*
X152526585Y-77343781D01*
X152579389Y-77298026D01*
X152648547Y-77288082D01*
X152712103Y-77317107D01*
G37*
%TD.AperFunction*%
%TA.AperFunction,Conductor*%
G36*
X154384334Y-75099626D02*
G01*
X154440267Y-75141498D01*
X154464684Y-75206962D01*
X154465000Y-75215808D01*
X154465000Y-75270000D01*
X154767191Y-75270000D01*
X154834230Y-75289685D01*
X154854872Y-75306319D01*
X155226482Y-75677928D01*
X155240849Y-75695166D01*
X155246252Y-75702994D01*
X155364073Y-75807374D01*
X155364074Y-75807374D01*
X155364076Y-75807376D01*
X155503457Y-75880529D01*
X155503459Y-75880529D01*
X155503460Y-75880530D01*
X155634498Y-75912828D01*
X155694879Y-75947984D01*
X155726667Y-76010204D01*
X155719771Y-76079732D01*
X155692505Y-76120905D01*
X155639242Y-76174168D01*
X155639240Y-76174171D01*
X155560803Y-76310029D01*
X155560803Y-76310030D01*
X155520200Y-76461561D01*
X155520200Y-76618439D01*
X155560803Y-76769970D01*
X155639241Y-76905830D01*
X155750170Y-77016759D01*
X155886030Y-77095197D01*
X156037561Y-77135800D01*
X156037564Y-77135800D01*
X156194436Y-77135800D01*
X156194439Y-77135800D01*
X156345970Y-77095197D01*
X156481830Y-77016759D01*
X156592759Y-76905830D01*
X156671197Y-76769970D01*
X156711800Y-76618439D01*
X156711800Y-76461561D01*
X156671197Y-76310030D01*
X156592759Y-76174170D01*
X156481830Y-76063241D01*
X156345970Y-75984803D01*
X156345971Y-75984803D01*
X156230632Y-75953898D01*
X156170971Y-75917532D01*
X156140443Y-75854685D01*
X156148738Y-75785310D01*
X156180500Y-75741307D01*
X156223747Y-75702994D01*
X156225752Y-75700089D01*
X156313168Y-75573446D01*
X156368987Y-75426264D01*
X156373435Y-75389627D01*
X156401055Y-75325450D01*
X156458989Y-75286393D01*
X156528842Y-75284857D01*
X156584212Y-75316892D01*
X157302981Y-76035661D01*
X157336466Y-76096984D01*
X157339300Y-76123342D01*
X157339300Y-76993539D01*
X157360786Y-77073727D01*
X157361836Y-77077646D01*
X157405374Y-77153055D01*
X157405376Y-77153057D01*
X157474010Y-77221691D01*
X157474016Y-77221696D01*
X160162981Y-79910661D01*
X160196466Y-79971984D01*
X160199300Y-79998342D01*
X160199300Y-80221500D01*
X160179615Y-80288539D01*
X160126811Y-80334294D01*
X160075301Y-80345500D01*
X159974936Y-80345500D01*
X159900698Y-80360266D01*
X159816515Y-80416515D01*
X159760266Y-80500699D01*
X159760264Y-80500703D01*
X159745500Y-80574928D01*
X159745500Y-82524788D01*
X159725815Y-82591827D01*
X159673011Y-82637582D01*
X159603853Y-82647526D01*
X159574048Y-82639349D01*
X159463916Y-82593731D01*
X159463912Y-82593729D01*
X159463910Y-82593729D01*
X159463906Y-82593728D01*
X159463902Y-82593727D01*
X159342103Y-82569500D01*
X159342099Y-82569500D01*
X159217901Y-82569500D01*
X159217896Y-82569500D01*
X159096097Y-82593727D01*
X159096083Y-82593731D01*
X158985951Y-82639349D01*
X158916482Y-82646818D01*
X158854003Y-82615542D01*
X158818351Y-82555453D01*
X158814499Y-82524788D01*
X158814499Y-80574936D01*
X158814499Y-80574934D01*
X158799734Y-80500699D01*
X158773897Y-80462031D01*
X158743484Y-80416515D01*
X158678734Y-80373251D01*
X158659301Y-80360266D01*
X158659299Y-80360265D01*
X158659296Y-80360264D01*
X158585071Y-80345500D01*
X158585067Y-80345500D01*
X158390278Y-80345500D01*
X158323239Y-80325815D01*
X158282892Y-80283501D01*
X158259397Y-80242809D01*
X158254626Y-80234545D01*
X158193055Y-80172974D01*
X158193054Y-80172973D01*
X158188724Y-80168643D01*
X158188713Y-80168633D01*
X156354096Y-78334016D01*
X156354094Y-78334013D01*
X156285457Y-78265376D01*
X156285455Y-78265374D01*
X156210046Y-78221836D01*
X156125939Y-78199300D01*
X156125938Y-78199300D01*
X154548342Y-78199300D01*
X154481303Y-78179615D01*
X154460661Y-78162981D01*
X153407019Y-77109339D01*
X153373534Y-77048016D01*
X153370700Y-77021658D01*
X153370700Y-76958903D01*
X153390385Y-76891864D01*
X153443189Y-76846109D01*
X153512347Y-76836165D01*
X153575903Y-76865190D01*
X153602088Y-76896905D01*
X153607238Y-76905826D01*
X153607240Y-76905828D01*
X153607241Y-76905830D01*
X153718170Y-77016759D01*
X153854030Y-77095197D01*
X154005561Y-77135800D01*
X154005564Y-77135800D01*
X154162436Y-77135800D01*
X154162439Y-77135800D01*
X154313970Y-77095197D01*
X154449830Y-77016759D01*
X154560759Y-76905830D01*
X154639197Y-76769970D01*
X154679800Y-76618439D01*
X154679800Y-76461561D01*
X154639197Y-76310030D01*
X154639196Y-76310028D01*
X154636086Y-76302520D01*
X154637948Y-76301748D01*
X154624038Y-76244402D01*
X154646890Y-76178376D01*
X154701812Y-76135186D01*
X154722118Y-76129013D01*
X154742694Y-76124639D01*
X154897264Y-76055819D01*
X154897264Y-76055818D01*
X154465001Y-75623553D01*
X154465000Y-75623553D01*
X154180674Y-75907881D01*
X154119350Y-75941366D01*
X154092992Y-75944200D01*
X154005561Y-75944200D01*
X153901785Y-75972007D01*
X153854029Y-75984803D01*
X153718171Y-76063240D01*
X153718168Y-76063242D01*
X153607242Y-76174168D01*
X153607240Y-76174171D01*
X153602087Y-76183097D01*
X153551519Y-76231312D01*
X153482912Y-76244534D01*
X153418047Y-76218566D01*
X153377520Y-76161651D01*
X153370700Y-76121096D01*
X153370700Y-75613341D01*
X153390385Y-75546302D01*
X153407010Y-75525669D01*
X153415912Y-75516767D01*
X153477229Y-75483281D01*
X153546921Y-75488262D01*
X153602857Y-75530130D01*
X153621525Y-75566127D01*
X153644065Y-75635499D01*
X153644067Y-75635503D01*
X153681356Y-75700089D01*
X154253319Y-75128127D01*
X154314642Y-75094642D01*
X154384334Y-75099626D01*
G37*
%TD.AperFunction*%
%TA.AperFunction,Conductor*%
G36*
X169690000Y-82455025D02*
G01*
X169654905Y-82419930D01*
X169575095Y-82373852D01*
X169486078Y-82350000D01*
X169393922Y-82350000D01*
X169304905Y-82373852D01*
X169225095Y-82419930D01*
X169190000Y-82455025D01*
X169190000Y-81944975D01*
X169225095Y-81980070D01*
X169304905Y-82026148D01*
X169393922Y-82050000D01*
X169486078Y-82050000D01*
X169575095Y-82026148D01*
X169654905Y-81980070D01*
X169690000Y-81944975D01*
X169690000Y-82455025D01*
G37*
%TD.AperFunction*%
%TA.AperFunction,Conductor*%
G36*
X161033565Y-75041525D02*
G01*
X161077002Y-75069682D01*
X161542981Y-75535661D01*
X161576466Y-75596984D01*
X161579300Y-75623342D01*
X161579300Y-78033538D01*
X161601836Y-78117646D01*
X161645374Y-78193055D01*
X161645376Y-78193057D01*
X161714010Y-78261691D01*
X161714016Y-78261696D01*
X163586139Y-80133819D01*
X163619624Y-80195142D01*
X163614640Y-80264834D01*
X163572768Y-80320767D01*
X163507304Y-80345184D01*
X163498458Y-80345500D01*
X163470278Y-80345500D01*
X163403239Y-80325815D01*
X163362892Y-80283501D01*
X163339397Y-80242809D01*
X163334626Y-80234545D01*
X163273055Y-80172974D01*
X163273054Y-80172973D01*
X163268724Y-80168643D01*
X163268713Y-80168633D01*
X160474096Y-77374016D01*
X160474094Y-77374013D01*
X160405457Y-77305376D01*
X160405455Y-77305374D01*
X160330046Y-77261836D01*
X160299077Y-77253538D01*
X160245939Y-77239300D01*
X160245938Y-77239300D01*
X159882506Y-77239300D01*
X159815467Y-77219615D01*
X159769712Y-77166811D01*
X159759768Y-77097653D01*
X159788793Y-77034097D01*
X159847571Y-76996323D01*
X159850413Y-76995525D01*
X160063483Y-76938433D01*
X160063492Y-76938429D01*
X160277578Y-76838600D01*
X160471082Y-76703105D01*
X160638105Y-76536082D01*
X160773600Y-76342578D01*
X160873429Y-76128492D01*
X160873432Y-76128486D01*
X160930636Y-75915000D01*
X160033012Y-75915000D01*
X160065925Y-75857993D01*
X160100000Y-75730826D01*
X160100000Y-75599174D01*
X160065925Y-75472007D01*
X160033012Y-75415000D01*
X160930636Y-75415000D01*
X160930635Y-75414999D01*
X160873430Y-75201506D01*
X160872803Y-75199783D01*
X160872751Y-75198972D01*
X160872030Y-75196280D01*
X160872570Y-75196135D01*
X160868365Y-75130054D01*
X160902331Y-75068996D01*
X160963915Y-75035994D01*
X161033565Y-75041525D01*
G37*
%TD.AperFunction*%
%TA.AperFunction,Conductor*%
G36*
X177403471Y-70100695D02*
G01*
X177441470Y-70102828D01*
X177684106Y-70116454D01*
X177697909Y-70118010D01*
X177971584Y-70164509D01*
X177985123Y-70167599D01*
X178251874Y-70244449D01*
X178264993Y-70249040D01*
X178521445Y-70355265D01*
X178533967Y-70361294D01*
X178626475Y-70412422D01*
X178776921Y-70495571D01*
X178788695Y-70502969D01*
X179015079Y-70663597D01*
X179015081Y-70663598D01*
X179025952Y-70672267D01*
X179203523Y-70830955D01*
X179232931Y-70857235D01*
X179242764Y-70867068D01*
X179427731Y-71074046D01*
X179436401Y-71084918D01*
X179597030Y-71311304D01*
X179604428Y-71323078D01*
X179738701Y-71566025D01*
X179744734Y-71578554D01*
X179850959Y-71835006D01*
X179855552Y-71848130D01*
X179932397Y-72114865D01*
X179935491Y-72128422D01*
X179981988Y-72402082D01*
X179983545Y-72415900D01*
X179999305Y-72696526D01*
X179999500Y-72703479D01*
X179999500Y-106396520D01*
X179999305Y-106403473D01*
X179983545Y-106684100D01*
X179981988Y-106697918D01*
X179935491Y-106971575D01*
X179932397Y-106985132D01*
X179855550Y-107251872D01*
X179850957Y-107264996D01*
X179744733Y-107521445D01*
X179738700Y-107533974D01*
X179604427Y-107776922D01*
X179597029Y-107788696D01*
X179436401Y-108015081D01*
X179427731Y-108025953D01*
X179242764Y-108232931D01*
X179232931Y-108242764D01*
X179025947Y-108427736D01*
X179015081Y-108436400D01*
X178905202Y-108514365D01*
X178788701Y-108597027D01*
X178776927Y-108604425D01*
X178533974Y-108738701D01*
X178521445Y-108744734D01*
X178264993Y-108850959D01*
X178251869Y-108855552D01*
X177985134Y-108932397D01*
X177971577Y-108935491D01*
X177697917Y-108981988D01*
X177684099Y-108983545D01*
X177403472Y-108999305D01*
X177396519Y-108999500D01*
X117803481Y-108999500D01*
X117796528Y-108999305D01*
X117515900Y-108983545D01*
X117502082Y-108981988D01*
X117228422Y-108935491D01*
X117214865Y-108932397D01*
X116948130Y-108855552D01*
X116935006Y-108850959D01*
X116678554Y-108744734D01*
X116666025Y-108738701D01*
X116423078Y-108604428D01*
X116411304Y-108597030D01*
X116184918Y-108436401D01*
X116174046Y-108427731D01*
X116050606Y-108317418D01*
X115967066Y-108242762D01*
X115957235Y-108232931D01*
X115772268Y-108025953D01*
X115763598Y-108015081D01*
X115602969Y-107788695D01*
X115595571Y-107776921D01*
X115461298Y-107533974D01*
X115455265Y-107521445D01*
X115349040Y-107264993D01*
X115344447Y-107251869D01*
X115322734Y-107176500D01*
X115267599Y-106985123D01*
X115264508Y-106971577D01*
X115264508Y-106971575D01*
X115218010Y-106697909D01*
X115216454Y-106684106D01*
X115200695Y-106403471D01*
X115200598Y-106400000D01*
X115640466Y-106400000D01*
X115660579Y-106694051D01*
X115660579Y-106694055D01*
X115660580Y-106694057D01*
X115682922Y-106801575D01*
X115720547Y-106982637D01*
X115720548Y-106982640D01*
X115819249Y-107260357D01*
X115819248Y-107260357D01*
X115929636Y-107473394D01*
X115954852Y-107522059D01*
X116120543Y-107756790D01*
X116124829Y-107762861D01*
X116326006Y-107978268D01*
X116554632Y-108164269D01*
X116554635Y-108164271D01*
X116554639Y-108164274D01*
X116667541Y-108232931D01*
X116806475Y-108317419D01*
X117025890Y-108412723D01*
X117076816Y-108434844D01*
X117360630Y-108514365D01*
X117617342Y-108549649D01*
X117652627Y-108554500D01*
X117652628Y-108554500D01*
X117947373Y-108554500D01*
X117978853Y-108550172D01*
X118239370Y-108514365D01*
X118523184Y-108434844D01*
X118793526Y-108317418D01*
X119045361Y-108164274D01*
X119273997Y-107978265D01*
X119475175Y-107762856D01*
X119645148Y-107522059D01*
X119780749Y-107260361D01*
X119879453Y-106982635D01*
X119939420Y-106694057D01*
X119959534Y-106400000D01*
X175240466Y-106400000D01*
X175260579Y-106694051D01*
X175260579Y-106694055D01*
X175260580Y-106694057D01*
X175282922Y-106801575D01*
X175320547Y-106982637D01*
X175320548Y-106982640D01*
X175419249Y-107260357D01*
X175419248Y-107260357D01*
X175529636Y-107473394D01*
X175554852Y-107522059D01*
X175720543Y-107756790D01*
X175724829Y-107762861D01*
X175926006Y-107978268D01*
X176154632Y-108164269D01*
X176154635Y-108164271D01*
X176154639Y-108164274D01*
X176267541Y-108232931D01*
X176406475Y-108317419D01*
X176625890Y-108412723D01*
X176676816Y-108434844D01*
X176960630Y-108514365D01*
X177217342Y-108549649D01*
X177252627Y-108554500D01*
X177252628Y-108554500D01*
X177547373Y-108554500D01*
X177578853Y-108550172D01*
X177839370Y-108514365D01*
X178123184Y-108434844D01*
X178393526Y-108317418D01*
X178645361Y-108164274D01*
X178873997Y-107978265D01*
X179075175Y-107762856D01*
X179245148Y-107522059D01*
X179380749Y-107260361D01*
X179479453Y-106982635D01*
X179539420Y-106694057D01*
X179559534Y-106400000D01*
X179539420Y-106105943D01*
X179479453Y-105817365D01*
X179380750Y-105539642D01*
X179380751Y-105539642D01*
X179245147Y-105277940D01*
X179075175Y-105037144D01*
X179075171Y-105037140D01*
X179075170Y-105037138D01*
X178873993Y-104821731D01*
X178645367Y-104635730D01*
X178645356Y-104635723D01*
X178393524Y-104482580D01*
X178123185Y-104365156D01*
X177839375Y-104285636D01*
X177839371Y-104285635D01*
X177839370Y-104285635D01*
X177693371Y-104265567D01*
X177547373Y-104245500D01*
X177547372Y-104245500D01*
X177252628Y-104245500D01*
X177252627Y-104245500D01*
X176960630Y-104285635D01*
X176960624Y-104285636D01*
X176676814Y-104365156D01*
X176406475Y-104482580D01*
X176154643Y-104635723D01*
X176154632Y-104635730D01*
X175926006Y-104821731D01*
X175724829Y-105037138D01*
X175554852Y-105277940D01*
X175419249Y-105539642D01*
X175320548Y-105817359D01*
X175320547Y-105817362D01*
X175260579Y-106105948D01*
X175240466Y-106400000D01*
X119959534Y-106400000D01*
X119939420Y-106105943D01*
X119879453Y-105817365D01*
X119780750Y-105539642D01*
X119780751Y-105539642D01*
X119645147Y-105277940D01*
X119475175Y-105037144D01*
X119475171Y-105037140D01*
X119475170Y-105037138D01*
X119273993Y-104821731D01*
X119045367Y-104635730D01*
X119045356Y-104635723D01*
X118793524Y-104482580D01*
X118523185Y-104365156D01*
X118239375Y-104285636D01*
X118239371Y-104285635D01*
X118239370Y-104285635D01*
X118093371Y-104265567D01*
X117947373Y-104245500D01*
X117947372Y-104245500D01*
X117652628Y-104245500D01*
X117652627Y-104245500D01*
X117360630Y-104285635D01*
X117360624Y-104285636D01*
X117076814Y-104365156D01*
X116806475Y-104482580D01*
X116554643Y-104635723D01*
X116554632Y-104635730D01*
X116326006Y-104821731D01*
X116124829Y-105037138D01*
X115954852Y-105277940D01*
X115819249Y-105539642D01*
X115720548Y-105817359D01*
X115720547Y-105817362D01*
X115660579Y-106105948D01*
X115640466Y-106400000D01*
X115200598Y-106400000D01*
X115200500Y-106396519D01*
X115200500Y-101615000D01*
X120367886Y-101615000D01*
X120388293Y-101822208D01*
X120388294Y-101822210D01*
X120448733Y-102021448D01*
X120448735Y-102021453D01*
X120546884Y-102205079D01*
X120546886Y-102205082D01*
X120678971Y-102366028D01*
X120839917Y-102498113D01*
X120839921Y-102498116D01*
X121023547Y-102596265D01*
X121137063Y-102630700D01*
X121222789Y-102656705D01*
X121222791Y-102656706D01*
X121241369Y-102658535D01*
X121430000Y-102677114D01*
X121637208Y-102656706D01*
X121836453Y-102596265D01*
X122020079Y-102498116D01*
X122181028Y-102366028D01*
X122313116Y-102205079D01*
X122335642Y-102162934D01*
X122384603Y-102113091D01*
X122452740Y-102097630D01*
X122518420Y-102121461D01*
X122554357Y-102162934D01*
X122574694Y-102200983D01*
X122576885Y-102205081D01*
X122708971Y-102366028D01*
X122869917Y-102498113D01*
X122869921Y-102498116D01*
X123053547Y-102596265D01*
X123167063Y-102630700D01*
X123252789Y-102656705D01*
X123252791Y-102656706D01*
X123271369Y-102658535D01*
X123460000Y-102677114D01*
X123667208Y-102656706D01*
X123866453Y-102596265D01*
X124050079Y-102498116D01*
X124211028Y-102366028D01*
X124343116Y-102205079D01*
X124441265Y-102021453D01*
X124501706Y-101822208D01*
X124502899Y-101810094D01*
X124529057Y-101745307D01*
X124586091Y-101704946D01*
X124655891Y-101701827D01*
X124713983Y-101734564D01*
X124843330Y-101863911D01*
X124843338Y-101863918D01*
X124843339Y-101863919D01*
X124875548Y-101888634D01*
X125025382Y-102003607D01*
X125025385Y-102003608D01*
X125025388Y-102003611D01*
X125224112Y-102118344D01*
X125224117Y-102118346D01*
X125224123Y-102118349D01*
X125315480Y-102156190D01*
X125436113Y-102206158D01*
X125657762Y-102265548D01*
X125885266Y-102295500D01*
X125885273Y-102295500D01*
X126114727Y-102295500D01*
X126114734Y-102295500D01*
X126342238Y-102265548D01*
X126563887Y-102206158D01*
X126775888Y-102118344D01*
X126974612Y-102003611D01*
X127156661Y-101863919D01*
X127156665Y-101863914D01*
X127156670Y-101863911D01*
X127318911Y-101701670D01*
X127318914Y-101701665D01*
X127318919Y-101701661D01*
X127458611Y-101519612D01*
X127573344Y-101320888D01*
X127661158Y-101108887D01*
X127720548Y-100887238D01*
X127750500Y-100659734D01*
X127750500Y-100430266D01*
X127750284Y-100428629D01*
X127745532Y-100392533D01*
X127720548Y-100202762D01*
X127661158Y-99981113D01*
X127611190Y-99860480D01*
X127573349Y-99769123D01*
X127573346Y-99769117D01*
X127573344Y-99769112D01*
X127458611Y-99570388D01*
X127458608Y-99570385D01*
X127458607Y-99570382D01*
X127357764Y-99438962D01*
X127318919Y-99388339D01*
X127318918Y-99388338D01*
X127318911Y-99388330D01*
X127156670Y-99226089D01*
X127156661Y-99226081D01*
X126974617Y-99086392D01*
X126775890Y-98971657D01*
X126775876Y-98971650D01*
X126563887Y-98883842D01*
X126342238Y-98824452D01*
X126304215Y-98819446D01*
X126114741Y-98794500D01*
X126114734Y-98794500D01*
X125885266Y-98794500D01*
X125885258Y-98794500D01*
X125668715Y-98823009D01*
X125657762Y-98824452D01*
X125572155Y-98847390D01*
X125436112Y-98883842D01*
X125224123Y-98971650D01*
X125224109Y-98971657D01*
X125025382Y-99086392D01*
X124843338Y-99226081D01*
X124681081Y-99388338D01*
X124541392Y-99570382D01*
X124426657Y-99769109D01*
X124426650Y-99769123D01*
X124338842Y-99981112D01*
X124279453Y-100202759D01*
X124279451Y-100202770D01*
X124249500Y-100430258D01*
X124249500Y-100633368D01*
X124229815Y-100700407D01*
X124177011Y-100746162D01*
X124107853Y-100756106D01*
X124056376Y-100733429D01*
X124055147Y-100735270D01*
X124050085Y-100731887D01*
X123991189Y-100700407D01*
X123866453Y-100633735D01*
X123866450Y-100633734D01*
X123866448Y-100633733D01*
X123667210Y-100573294D01*
X123667208Y-100573293D01*
X123460000Y-100552886D01*
X123252791Y-100573293D01*
X123252789Y-100573294D01*
X123053551Y-100633733D01*
X122869917Y-100731886D01*
X122708971Y-100863971D01*
X122576886Y-101024917D01*
X122576884Y-101024921D01*
X122554357Y-101067065D01*
X122505396Y-101116908D01*
X122437259Y-101132369D01*
X122371579Y-101108538D01*
X122335642Y-101067065D01*
X122313116Y-101024921D01*
X122273365Y-100976484D01*
X122181028Y-100863971D01*
X122020082Y-100731886D01*
X122020080Y-100731885D01*
X122020079Y-100731884D01*
X121836453Y-100633735D01*
X121836450Y-100633734D01*
X121836448Y-100633733D01*
X121637210Y-100573294D01*
X121637208Y-100573293D01*
X121430000Y-100552886D01*
X121222791Y-100573293D01*
X121222789Y-100573294D01*
X121023551Y-100633733D01*
X120839917Y-100731886D01*
X120678971Y-100863971D01*
X120546886Y-101024917D01*
X120448733Y-101208551D01*
X120388294Y-101407789D01*
X120388293Y-101407791D01*
X120367886Y-101615000D01*
X115200500Y-101615000D01*
X115200500Y-88045000D01*
X120367886Y-88045000D01*
X120388293Y-88252208D01*
X120388294Y-88252210D01*
X120448733Y-88451448D01*
X120448735Y-88451453D01*
X120525045Y-88594220D01*
X120546886Y-88635082D01*
X120678971Y-88796028D01*
X120839916Y-88928112D01*
X120839921Y-88928116D01*
X121023547Y-89026265D01*
X121215520Y-89084500D01*
X121222789Y-89086705D01*
X121222791Y-89086706D01*
X121241369Y-89088535D01*
X121430000Y-89107114D01*
X121637208Y-89086706D01*
X121836453Y-89026265D01*
X122020079Y-88928116D01*
X122181028Y-88796028D01*
X122313116Y-88635079D01*
X122335642Y-88592934D01*
X122384603Y-88543091D01*
X122452740Y-88527630D01*
X122518420Y-88551461D01*
X122554357Y-88592934D01*
X122555045Y-88594220D01*
X122576885Y-88635081D01*
X122708971Y-88796028D01*
X122869916Y-88928112D01*
X122869921Y-88928116D01*
X123053547Y-89026265D01*
X123245520Y-89084500D01*
X123252789Y-89086705D01*
X123252791Y-89086706D01*
X123271369Y-89088535D01*
X123460000Y-89107114D01*
X123667208Y-89086706D01*
X123866453Y-89026265D01*
X124050079Y-88928116D01*
X124050081Y-88928113D01*
X124050085Y-88928112D01*
X124055147Y-88924730D01*
X124056461Y-88926696D01*
X124111110Y-88903469D01*
X124179981Y-88915240D01*
X124231554Y-88962378D01*
X124249500Y-89026631D01*
X124249500Y-89229741D01*
X124268389Y-89373206D01*
X124279452Y-89457238D01*
X124327450Y-89636370D01*
X124338842Y-89678887D01*
X124426650Y-89890876D01*
X124426657Y-89890890D01*
X124489835Y-90000317D01*
X124532185Y-90073671D01*
X124541392Y-90089617D01*
X124681081Y-90271661D01*
X124681089Y-90271670D01*
X124843330Y-90433911D01*
X124843338Y-90433918D01*
X125025382Y-90573607D01*
X125025385Y-90573608D01*
X125025388Y-90573611D01*
X125224112Y-90688344D01*
X125224117Y-90688346D01*
X125224123Y-90688349D01*
X125270100Y-90707393D01*
X125436113Y-90776158D01*
X125657762Y-90835548D01*
X125885266Y-90865500D01*
X125885273Y-90865500D01*
X126114727Y-90865500D01*
X126114734Y-90865500D01*
X126342238Y-90835548D01*
X126563887Y-90776158D01*
X126775888Y-90688344D01*
X126974612Y-90573611D01*
X127156661Y-90433919D01*
X127156665Y-90433914D01*
X127156670Y-90433911D01*
X127318911Y-90271670D01*
X127318914Y-90271665D01*
X127318919Y-90271661D01*
X127458611Y-90089612D01*
X127573344Y-89890888D01*
X127661158Y-89678887D01*
X127720548Y-89457238D01*
X127750500Y-89229734D01*
X127750500Y-89000266D01*
X127750284Y-88998629D01*
X127741001Y-88928116D01*
X127720548Y-88772762D01*
X127661158Y-88551113D01*
X127605273Y-88416194D01*
X127573349Y-88339123D01*
X127573346Y-88339117D01*
X127573344Y-88339112D01*
X127458611Y-88140388D01*
X127458608Y-88140385D01*
X127458607Y-88140382D01*
X127350536Y-87999543D01*
X127318919Y-87958339D01*
X127318918Y-87958338D01*
X127318911Y-87958330D01*
X127156670Y-87796089D01*
X127156661Y-87796081D01*
X126974617Y-87656392D01*
X126943715Y-87638551D01*
X126775888Y-87541656D01*
X126775876Y-87541650D01*
X126563887Y-87453842D01*
X126342238Y-87394452D01*
X126304215Y-87389446D01*
X126114741Y-87364500D01*
X126114734Y-87364500D01*
X125885266Y-87364500D01*
X125885258Y-87364500D01*
X125668715Y-87393009D01*
X125657762Y-87394452D01*
X125572155Y-87417390D01*
X125436112Y-87453842D01*
X125224123Y-87541650D01*
X125224109Y-87541657D01*
X125025382Y-87656392D01*
X124843338Y-87796081D01*
X124713983Y-87925436D01*
X124652660Y-87958920D01*
X124582968Y-87953936D01*
X124527035Y-87912064D01*
X124502899Y-87849905D01*
X124501706Y-87837792D01*
X124501705Y-87837789D01*
X124446677Y-87656389D01*
X124441265Y-87638547D01*
X124343116Y-87454921D01*
X124343113Y-87454917D01*
X124211028Y-87293971D01*
X124050082Y-87161886D01*
X124050080Y-87161885D01*
X124050079Y-87161884D01*
X123896872Y-87079994D01*
X127552887Y-87079994D01*
X127552887Y-87080005D01*
X127573305Y-87326413D01*
X127634004Y-87566110D01*
X127733327Y-87792546D01*
X127868564Y-87999543D01*
X128036035Y-88181464D01*
X128036039Y-88181467D01*
X128231148Y-88333327D01*
X128231155Y-88333331D01*
X128231157Y-88333333D01*
X128448617Y-88451016D01*
X128448620Y-88451017D01*
X128559363Y-88489035D01*
X128616378Y-88529420D01*
X128642509Y-88594220D01*
X128643100Y-88606316D01*
X128643100Y-101053683D01*
X128623415Y-101120722D01*
X128570611Y-101166477D01*
X128559363Y-101170964D01*
X128448624Y-101208981D01*
X128448610Y-101208987D01*
X128231159Y-101326665D01*
X128231148Y-101326672D01*
X128036039Y-101478532D01*
X128036035Y-101478535D01*
X127868564Y-101660456D01*
X127733327Y-101867453D01*
X127634004Y-102093889D01*
X127573305Y-102333586D01*
X127552887Y-102579994D01*
X127552887Y-102580005D01*
X127573305Y-102826413D01*
X127634004Y-103066110D01*
X127733327Y-103292546D01*
X127868564Y-103499543D01*
X128036035Y-103681464D01*
X128036039Y-103681467D01*
X128231148Y-103833327D01*
X128231155Y-103833331D01*
X128231157Y-103833333D01*
X128448617Y-103951016D01*
X128682480Y-104031302D01*
X128926369Y-104072000D01*
X128926370Y-104072000D01*
X129173630Y-104072000D01*
X129173631Y-104072000D01*
X129417520Y-104031302D01*
X129651383Y-103951016D01*
X129868843Y-103833333D01*
X130063967Y-103681462D01*
X130231433Y-103499546D01*
X130366672Y-103292547D01*
X130465995Y-103066112D01*
X130526694Y-102826417D01*
X130536197Y-102711733D01*
X130547113Y-102580005D01*
X130547113Y-102579994D01*
X130544628Y-102550000D01*
X137720954Y-102550000D01*
X137722889Y-102574597D01*
X137768529Y-102731692D01*
X137768531Y-102731697D01*
X137851806Y-102872508D01*
X137851812Y-102872516D01*
X137967483Y-102988187D01*
X137967491Y-102988193D01*
X138108302Y-103071468D01*
X138265000Y-103116992D01*
X138265000Y-102550000D01*
X137720954Y-102550000D01*
X130544628Y-102550000D01*
X130530069Y-102374312D01*
X130526694Y-102333583D01*
X130465995Y-102093888D01*
X130446744Y-102050000D01*
X137720953Y-102050000D01*
X138265000Y-102050000D01*
X138265000Y-101483006D01*
X138264998Y-101483005D01*
X138108307Y-101528528D01*
X138108304Y-101528530D01*
X137967491Y-101611806D01*
X137967483Y-101611812D01*
X137851812Y-101727483D01*
X137851806Y-101727491D01*
X137768531Y-101868302D01*
X137768529Y-101868307D01*
X137722890Y-102025396D01*
X137722888Y-102025408D01*
X137720953Y-102050000D01*
X130446744Y-102050000D01*
X130366672Y-101867453D01*
X130319964Y-101795961D01*
X130231435Y-101660456D01*
X130096366Y-101513733D01*
X130063967Y-101478538D01*
X130063966Y-101478537D01*
X130063964Y-101478535D01*
X130063960Y-101478532D01*
X129868851Y-101326672D01*
X129868840Y-101326665D01*
X129651389Y-101208987D01*
X129651386Y-101208986D01*
X129651383Y-101208984D01*
X129651377Y-101208982D01*
X129651375Y-101208981D01*
X129540637Y-101170964D01*
X129483621Y-101130578D01*
X129457491Y-101065779D01*
X129456900Y-101053683D01*
X129456900Y-98005000D01*
X131361741Y-98005000D01*
X131380729Y-98197800D01*
X131380730Y-98197802D01*
X131436968Y-98383191D01*
X131528288Y-98554040D01*
X131528291Y-98554044D01*
X131528293Y-98554047D01*
X131583690Y-98621550D01*
X131651194Y-98703805D01*
X131718698Y-98759202D01*
X131800953Y-98826707D01*
X131800956Y-98826708D01*
X131800959Y-98826711D01*
X131932106Y-98896810D01*
X131971810Y-98918032D01*
X132157197Y-98974269D01*
X132157199Y-98974270D01*
X132174485Y-98975972D01*
X132350000Y-98993259D01*
X132542800Y-98974270D01*
X132728190Y-98918032D01*
X132899047Y-98826707D01*
X133048805Y-98703805D01*
X133171707Y-98554047D01*
X133184478Y-98530154D01*
X133265904Y-98377818D01*
X133267927Y-98378899D01*
X133305340Y-98332457D01*
X133371630Y-98310380D01*
X133376078Y-98310300D01*
X134168633Y-98310300D01*
X134235672Y-98329985D01*
X134281427Y-98382789D01*
X134291371Y-98451947D01*
X134262346Y-98515503D01*
X134247297Y-98530154D01*
X134191194Y-98576194D01*
X134068293Y-98725953D01*
X134068288Y-98725959D01*
X133976968Y-98896808D01*
X133920730Y-99082197D01*
X133920729Y-99082199D01*
X133901741Y-99275000D01*
X133920729Y-99467800D01*
X133920730Y-99467802D01*
X133976968Y-99653191D01*
X134068288Y-99824040D01*
X134068291Y-99824044D01*
X134068293Y-99824047D01*
X134123690Y-99891550D01*
X134191194Y-99973805D01*
X134247297Y-100019846D01*
X134286632Y-100077591D01*
X134288503Y-100147436D01*
X134252316Y-100207204D01*
X134189561Y-100237921D01*
X134168633Y-100239700D01*
X133457499Y-100239700D01*
X133390460Y-100220015D01*
X133344705Y-100167211D01*
X133333499Y-100115700D01*
X133333499Y-99790936D01*
X133333499Y-99790934D01*
X133318734Y-99716699D01*
X133298010Y-99685683D01*
X133262484Y-99632515D01*
X133212019Y-99598796D01*
X133178301Y-99576266D01*
X133178299Y-99576265D01*
X133178296Y-99576264D01*
X133104069Y-99561500D01*
X131595936Y-99561500D01*
X131521698Y-99576266D01*
X131437515Y-99632515D01*
X131381266Y-99716699D01*
X131381264Y-99716703D01*
X131366500Y-99790928D01*
X131366500Y-101299063D01*
X131381266Y-101373301D01*
X131437515Y-101457484D01*
X131469016Y-101478532D01*
X131521699Y-101513734D01*
X131521702Y-101513734D01*
X131521703Y-101513735D01*
X131546666Y-101518700D01*
X131595933Y-101528500D01*
X133104066Y-101528499D01*
X133178301Y-101513734D01*
X133262484Y-101457484D01*
X133318734Y-101373301D01*
X133333500Y-101299067D01*
X133333500Y-100974300D01*
X133353185Y-100907261D01*
X133405989Y-100861506D01*
X133457500Y-100850300D01*
X138347856Y-100850300D01*
X138347859Y-100850300D01*
X138425507Y-100829494D01*
X138432425Y-100825500D01*
X138495125Y-100789300D01*
X142852250Y-96432175D01*
X142892444Y-96362557D01*
X142903533Y-96321172D01*
X142913250Y-96284909D01*
X142913250Y-90707393D01*
X142932935Y-90640354D01*
X142985739Y-90594599D01*
X143002316Y-90588416D01*
X143086729Y-90563630D01*
X143086730Y-90563630D01*
X143086732Y-90563629D01*
X143208775Y-90485196D01*
X143303777Y-90375558D01*
X143364042Y-90243596D01*
X143384688Y-90100000D01*
X143364042Y-89956404D01*
X143364041Y-89956400D01*
X143303777Y-89824443D01*
X143303777Y-89824442D01*
X143208775Y-89714804D01*
X143132221Y-89665605D01*
X143086730Y-89636369D01*
X142947538Y-89595500D01*
X142947536Y-89595500D01*
X142802464Y-89595500D01*
X142802461Y-89595500D01*
X142663270Y-89636369D01*
X142663269Y-89636370D01*
X142567040Y-89698213D01*
X142500000Y-89717898D01*
X142432961Y-89698213D01*
X142432960Y-89698213D01*
X142351836Y-89646078D01*
X142336732Y-89636371D01*
X142336731Y-89636370D01*
X142336730Y-89636370D01*
X142336729Y-89636369D01*
X142197538Y-89595500D01*
X142197536Y-89595500D01*
X142052464Y-89595500D01*
X142052461Y-89595500D01*
X141913270Y-89636369D01*
X141913269Y-89636369D01*
X141791226Y-89714803D01*
X141696223Y-89824442D01*
X141696222Y-89824443D01*
X141635958Y-89956400D01*
X141635957Y-89956404D01*
X141615312Y-90100000D01*
X141635957Y-90243595D01*
X141635958Y-90243599D01*
X141696222Y-90375556D01*
X141696223Y-90375558D01*
X141791225Y-90485196D01*
X141809745Y-90497098D01*
X141913269Y-90563630D01*
X141997684Y-90588416D01*
X142056463Y-90626190D01*
X142085488Y-90689745D01*
X142086750Y-90707393D01*
X142086750Y-91502092D01*
X142067065Y-91569131D01*
X142014261Y-91614886D01*
X141945103Y-91624830D01*
X141895710Y-91606407D01*
X141786730Y-91536369D01*
X141647538Y-91495500D01*
X141647536Y-91495500D01*
X141502464Y-91495500D01*
X141502461Y-91495500D01*
X141363270Y-91536369D01*
X141363269Y-91536370D01*
X141267040Y-91598213D01*
X141200000Y-91617898D01*
X141132961Y-91598213D01*
X141132960Y-91598213D01*
X141064071Y-91553941D01*
X141036732Y-91536371D01*
X141036731Y-91536370D01*
X141036730Y-91536370D01*
X141036729Y-91536369D01*
X140897538Y-91495500D01*
X140897536Y-91495500D01*
X140752464Y-91495500D01*
X140752461Y-91495500D01*
X140613270Y-91536369D01*
X140613269Y-91536369D01*
X140491226Y-91614803D01*
X140491225Y-91614803D01*
X140491225Y-91614804D01*
X140430479Y-91684909D01*
X140396223Y-91724442D01*
X140396222Y-91724443D01*
X140335958Y-91856400D01*
X140335957Y-91856404D01*
X140315312Y-92000000D01*
X140335957Y-92143595D01*
X140335958Y-92143599D01*
X140396222Y-92275556D01*
X140396223Y-92275558D01*
X140491225Y-92385196D01*
X140569659Y-92435602D01*
X140613269Y-92463630D01*
X140697684Y-92488416D01*
X140756463Y-92526190D01*
X140785488Y-92589745D01*
X140786750Y-92607393D01*
X140786750Y-95477462D01*
X140767065Y-95544501D01*
X140750431Y-95565143D01*
X138868094Y-97447481D01*
X138806771Y-97480966D01*
X138780413Y-97483800D01*
X136121922Y-97483800D01*
X136054883Y-97464115D01*
X136034241Y-97447481D01*
X135831426Y-97244667D01*
X135797941Y-97183344D01*
X135802514Y-97119398D01*
X135801264Y-97119019D01*
X135859269Y-96927802D01*
X135859270Y-96927800D01*
X135878259Y-96735000D01*
X135859270Y-96542200D01*
X135803032Y-96356810D01*
X135776617Y-96307391D01*
X135711711Y-96185959D01*
X135711708Y-96185956D01*
X135711707Y-96185953D01*
X135612563Y-96065144D01*
X135588805Y-96036194D01*
X135462057Y-95932177D01*
X135439047Y-95913293D01*
X135439044Y-95913291D01*
X135439040Y-95913288D01*
X135268191Y-95821968D01*
X135082802Y-95765730D01*
X135082800Y-95765729D01*
X134890000Y-95746741D01*
X134697199Y-95765729D01*
X134697197Y-95765730D01*
X134511808Y-95821968D01*
X134340959Y-95913288D01*
X134340953Y-95913293D01*
X134191194Y-96036194D01*
X134068293Y-96185953D01*
X134068288Y-96185959D01*
X133976968Y-96356808D01*
X133920730Y-96542197D01*
X133920729Y-96542199D01*
X133901741Y-96735000D01*
X133920729Y-96927800D01*
X133920730Y-96927802D01*
X133976968Y-97113191D01*
X134068288Y-97284040D01*
X134068291Y-97284044D01*
X134068293Y-97284047D01*
X134123690Y-97351550D01*
X134191194Y-97433805D01*
X134247297Y-97479846D01*
X134286632Y-97537591D01*
X134288503Y-97607436D01*
X134252316Y-97667204D01*
X134189561Y-97697921D01*
X134168633Y-97699700D01*
X133376078Y-97699700D01*
X133309039Y-97680015D01*
X133267057Y-97631565D01*
X133265904Y-97632182D01*
X133171711Y-97455959D01*
X133171708Y-97455956D01*
X133171707Y-97455953D01*
X133104202Y-97373698D01*
X133048805Y-97306194D01*
X132966550Y-97238690D01*
X132899047Y-97183293D01*
X132899044Y-97183291D01*
X132899040Y-97183288D01*
X132728191Y-97091968D01*
X132542802Y-97035730D01*
X132542800Y-97035729D01*
X132350000Y-97016741D01*
X132157199Y-97035729D01*
X132157197Y-97035730D01*
X131971808Y-97091968D01*
X131800959Y-97183288D01*
X131800953Y-97183293D01*
X131651194Y-97306194D01*
X131528293Y-97455953D01*
X131528288Y-97455959D01*
X131436968Y-97626808D01*
X131380730Y-97812197D01*
X131380729Y-97812199D01*
X131361741Y-98005000D01*
X129456900Y-98005000D01*
X129456900Y-88606316D01*
X129476585Y-88539277D01*
X129529389Y-88493522D01*
X129540637Y-88489035D01*
X129651383Y-88451016D01*
X129868843Y-88333333D01*
X129992939Y-88236745D01*
X130057931Y-88211103D01*
X130126471Y-88224669D01*
X130176796Y-88273137D01*
X130193100Y-88334599D01*
X130193100Y-94153567D01*
X130193099Y-94153567D01*
X130220830Y-94257058D01*
X130274398Y-94349841D01*
X130274400Y-94349844D01*
X131327328Y-95402772D01*
X131360813Y-95464095D01*
X131363050Y-95478299D01*
X131380729Y-95657800D01*
X131380730Y-95657802D01*
X131436968Y-95843191D01*
X131528288Y-96014040D01*
X131528291Y-96014044D01*
X131528293Y-96014047D01*
X131553287Y-96044502D01*
X131651194Y-96163805D01*
X131718698Y-96219202D01*
X131800953Y-96286707D01*
X131800956Y-96286708D01*
X131800959Y-96286711D01*
X131942858Y-96362557D01*
X131971810Y-96378032D01*
X132157197Y-96434269D01*
X132157199Y-96434270D01*
X132174485Y-96435972D01*
X132350000Y-96453259D01*
X132542800Y-96434270D01*
X132728190Y-96378032D01*
X132899047Y-96286707D01*
X133048805Y-96163805D01*
X133171707Y-96014047D01*
X133263032Y-95843190D01*
X133319270Y-95657800D01*
X133338259Y-95465000D01*
X133319270Y-95272200D01*
X133263032Y-95086810D01*
X133236617Y-95037391D01*
X133171711Y-94915959D01*
X133171708Y-94915956D01*
X133171707Y-94915953D01*
X133080292Y-94804563D01*
X133052981Y-94740254D01*
X133064772Y-94671387D01*
X133111925Y-94619827D01*
X133176147Y-94601900D01*
X133917991Y-94601900D01*
X133985030Y-94621585D01*
X134027349Y-94667447D01*
X134068288Y-94744040D01*
X134068291Y-94744044D01*
X134068293Y-94744047D01*
X134117958Y-94804564D01*
X134191194Y-94893805D01*
X134258698Y-94949202D01*
X134340953Y-95016707D01*
X134340956Y-95016708D01*
X134340959Y-95016711D01*
X134472106Y-95086810D01*
X134511810Y-95108032D01*
X134686325Y-95160971D01*
X134697197Y-95164269D01*
X134697199Y-95164270D01*
X134714485Y-95165972D01*
X134890000Y-95183259D01*
X135082800Y-95164270D01*
X135268190Y-95108032D01*
X135439047Y-95016707D01*
X135588805Y-94893805D01*
X135711707Y-94744047D01*
X135713735Y-94740254D01*
X135803031Y-94573191D01*
X135803032Y-94573190D01*
X135859270Y-94387800D01*
X135878259Y-94195000D01*
X135859270Y-94002200D01*
X135803032Y-93816810D01*
X135787686Y-93788100D01*
X135711711Y-93645959D01*
X135711708Y-93645956D01*
X135711707Y-93645953D01*
X135617743Y-93531456D01*
X135588805Y-93496194D01*
X135532703Y-93450154D01*
X135493368Y-93392409D01*
X135491497Y-93322564D01*
X135527684Y-93262796D01*
X135590439Y-93232079D01*
X135611367Y-93230300D01*
X138367856Y-93230300D01*
X138367859Y-93230300D01*
X138445507Y-93209494D01*
X138502356Y-93176672D01*
X138515125Y-93169300D01*
X139852250Y-91832175D01*
X139892444Y-91762557D01*
X139897753Y-91742742D01*
X139913250Y-91684909D01*
X139913250Y-90707393D01*
X139932935Y-90640354D01*
X139985739Y-90594599D01*
X140002316Y-90588416D01*
X140086729Y-90563630D01*
X140086730Y-90563630D01*
X140086732Y-90563629D01*
X140208775Y-90485196D01*
X140303777Y-90375558D01*
X140364042Y-90243596D01*
X140384688Y-90100000D01*
X140364042Y-89956404D01*
X140364041Y-89956400D01*
X140303777Y-89824443D01*
X140303777Y-89824442D01*
X140208775Y-89714804D01*
X140132221Y-89665605D01*
X140086730Y-89636369D01*
X139947538Y-89595500D01*
X139947536Y-89595500D01*
X139802464Y-89595500D01*
X139802461Y-89595500D01*
X139663270Y-89636369D01*
X139663269Y-89636370D01*
X139567040Y-89698213D01*
X139500000Y-89717898D01*
X139432961Y-89698213D01*
X139432960Y-89698213D01*
X139351836Y-89646078D01*
X139336732Y-89636371D01*
X139336731Y-89636370D01*
X139336730Y-89636370D01*
X139336729Y-89636369D01*
X139197538Y-89595500D01*
X139197536Y-89595500D01*
X139052464Y-89595500D01*
X139052461Y-89595500D01*
X138913270Y-89636369D01*
X138913269Y-89636369D01*
X138791226Y-89714803D01*
X138696223Y-89824442D01*
X138696222Y-89824443D01*
X138635958Y-89956400D01*
X138635957Y-89956404D01*
X138615312Y-90100000D01*
X138635957Y-90243595D01*
X138635958Y-90243599D01*
X138696222Y-90375556D01*
X138696223Y-90375558D01*
X138791225Y-90485196D01*
X138809745Y-90497098D01*
X138913269Y-90563630D01*
X138997684Y-90588416D01*
X139056463Y-90626190D01*
X139085488Y-90689745D01*
X139086750Y-90707393D01*
X139086750Y-91377463D01*
X139067065Y-91444502D01*
X139050431Y-91465144D01*
X138148094Y-92367481D01*
X138086771Y-92400966D01*
X138060413Y-92403800D01*
X136121922Y-92403800D01*
X136054883Y-92384115D01*
X136034241Y-92367481D01*
X135831426Y-92164667D01*
X135797941Y-92103344D01*
X135802514Y-92039398D01*
X135801264Y-92039019D01*
X135859269Y-91847802D01*
X135859270Y-91847800D01*
X135860809Y-91832171D01*
X135878259Y-91655000D01*
X135859270Y-91462200D01*
X135803032Y-91276810D01*
X135803031Y-91276808D01*
X135711711Y-91105959D01*
X135711708Y-91105956D01*
X135711707Y-91105953D01*
X135644202Y-91023698D01*
X135588805Y-90956194D01*
X135506550Y-90888690D01*
X135439047Y-90833293D01*
X135439044Y-90833291D01*
X135439040Y-90833288D01*
X135268191Y-90741968D01*
X135082802Y-90685730D01*
X135082800Y-90685729D01*
X134890000Y-90666741D01*
X134697199Y-90685729D01*
X134697197Y-90685730D01*
X134511808Y-90741968D01*
X134340959Y-90833288D01*
X134340953Y-90833293D01*
X134191194Y-90956194D01*
X134068293Y-91105953D01*
X134068288Y-91105959D01*
X133976968Y-91276808D01*
X133920730Y-91462197D01*
X133920729Y-91462199D01*
X133901741Y-91655000D01*
X133920729Y-91847800D01*
X133920730Y-91847802D01*
X133976968Y-92033191D01*
X134068288Y-92204040D01*
X134068291Y-92204044D01*
X134068293Y-92204047D01*
X134123690Y-92271550D01*
X134191194Y-92353805D01*
X134247297Y-92399846D01*
X134286632Y-92457591D01*
X134288503Y-92527436D01*
X134252316Y-92587204D01*
X134189561Y-92617921D01*
X134168633Y-92619700D01*
X133376078Y-92619700D01*
X133309039Y-92600015D01*
X133267057Y-92551565D01*
X133265904Y-92552182D01*
X133171711Y-92375959D01*
X133171708Y-92375956D01*
X133171707Y-92375953D01*
X133089314Y-92275556D01*
X133048805Y-92226194D01*
X132966550Y-92158690D01*
X132899047Y-92103293D01*
X132899044Y-92103291D01*
X132899040Y-92103288D01*
X132728191Y-92011968D01*
X132542802Y-91955730D01*
X132542800Y-91955729D01*
X132350000Y-91936741D01*
X132157199Y-91955729D01*
X132157197Y-91955730D01*
X131971808Y-92011968D01*
X131800959Y-92103288D01*
X131800952Y-92103293D01*
X131709564Y-92178293D01*
X131645254Y-92205605D01*
X131576386Y-92193813D01*
X131524827Y-92146661D01*
X131506900Y-92082439D01*
X131506900Y-91227560D01*
X131526585Y-91160521D01*
X131579389Y-91114766D01*
X131648547Y-91104822D01*
X131709562Y-91131705D01*
X131800953Y-91206707D01*
X131800956Y-91206708D01*
X131800959Y-91206711D01*
X131932106Y-91276810D01*
X131971810Y-91298032D01*
X132146325Y-91350971D01*
X132157197Y-91354269D01*
X132157199Y-91354270D01*
X132174485Y-91355972D01*
X132350000Y-91373259D01*
X132542800Y-91354270D01*
X132728190Y-91298032D01*
X132899047Y-91206707D01*
X133048805Y-91083805D01*
X133171707Y-90934047D01*
X133263032Y-90763190D01*
X133319270Y-90577800D01*
X133338259Y-90385000D01*
X133319270Y-90192200D01*
X133292290Y-90103259D01*
X133261264Y-90000981D01*
X133263452Y-90000317D01*
X133257080Y-89940983D01*
X133288361Y-89878507D01*
X133291398Y-89875359D01*
X133760068Y-89406689D01*
X133821389Y-89373206D01*
X133891081Y-89378190D01*
X133947014Y-89420062D01*
X133966405Y-89458371D01*
X133976968Y-89493190D01*
X133976970Y-89493195D01*
X134068288Y-89664040D01*
X134068291Y-89664044D01*
X134068293Y-89664047D01*
X134096332Y-89698213D01*
X134191194Y-89813805D01*
X134235299Y-89850000D01*
X134340953Y-89936707D01*
X134340956Y-89936708D01*
X134340959Y-89936711D01*
X134461201Y-90000981D01*
X134511810Y-90028032D01*
X134662303Y-90073684D01*
X134697197Y-90084269D01*
X134697199Y-90084270D01*
X134714485Y-90085972D01*
X134890000Y-90103259D01*
X135082800Y-90084270D01*
X135268190Y-90028032D01*
X135414178Y-89950000D01*
X135439040Y-89936711D01*
X135439040Y-89936710D01*
X135439047Y-89936707D01*
X135588805Y-89813805D01*
X135711707Y-89664047D01*
X135803032Y-89493190D01*
X135859270Y-89307800D01*
X135878259Y-89115000D01*
X135859270Y-88922200D01*
X135803032Y-88736810D01*
X135782913Y-88699170D01*
X135711711Y-88565959D01*
X135711708Y-88565956D01*
X135711707Y-88565953D01*
X135644202Y-88483698D01*
X135588805Y-88416194D01*
X135506550Y-88348690D01*
X135439047Y-88293293D01*
X135416898Y-88281454D01*
X135367054Y-88232491D01*
X135351594Y-88164353D01*
X135375426Y-88098674D01*
X135387657Y-88084430D01*
X135422522Y-88049565D01*
X135483845Y-88016083D01*
X135510200Y-88013250D01*
X136777463Y-88013250D01*
X136844502Y-88032935D01*
X136865144Y-88049569D01*
X137250431Y-88434856D01*
X137283916Y-88496179D01*
X137286750Y-88522537D01*
X137286750Y-90692606D01*
X137267065Y-90759645D01*
X137214261Y-90805400D01*
X137197685Y-90811583D01*
X137113269Y-90836370D01*
X136991226Y-90914803D01*
X136991225Y-90914803D01*
X136991225Y-90914804D01*
X136896223Y-91024442D01*
X136896222Y-91024443D01*
X136835958Y-91156400D01*
X136835957Y-91156404D01*
X136815312Y-91300000D01*
X136835957Y-91443595D01*
X136835958Y-91443599D01*
X136883790Y-91548334D01*
X136896223Y-91575558D01*
X136991225Y-91685196D01*
X137052294Y-91724443D01*
X137113269Y-91763630D01*
X137252461Y-91804499D01*
X137252463Y-91804500D01*
X137252464Y-91804500D01*
X137397537Y-91804500D01*
X137397537Y-91804499D01*
X137536729Y-91763630D01*
X137536730Y-91763630D01*
X137569223Y-91742748D01*
X137632961Y-91701785D01*
X137699999Y-91682101D01*
X137767036Y-91701784D01*
X137802294Y-91724443D01*
X137863269Y-91763630D01*
X138002461Y-91804499D01*
X138002463Y-91804500D01*
X138002464Y-91804500D01*
X138147537Y-91804500D01*
X138147537Y-91804499D01*
X138286729Y-91763630D01*
X138286730Y-91763630D01*
X138288400Y-91762557D01*
X138408775Y-91685196D01*
X138503777Y-91575558D01*
X138548037Y-91478642D01*
X138564041Y-91443599D01*
X138564042Y-91443595D01*
X138573550Y-91377463D01*
X138584688Y-91300000D01*
X138564042Y-91156404D01*
X138564041Y-91156400D01*
X138503777Y-91024443D01*
X138503777Y-91024442D01*
X138408775Y-90914804D01*
X138286732Y-90836371D01*
X138286731Y-90836370D01*
X138286730Y-90836370D01*
X138202315Y-90811583D01*
X138143537Y-90773808D01*
X138114512Y-90710252D01*
X138113250Y-90692606D01*
X138113250Y-88215093D01*
X138113250Y-88215091D01*
X138092444Y-88137443D01*
X138083966Y-88122759D01*
X138052251Y-88067825D01*
X137232175Y-87247750D01*
X137162557Y-87207556D01*
X137084909Y-87186750D01*
X135202757Y-87186750D01*
X135202755Y-87186750D01*
X135141518Y-87203157D01*
X135141519Y-87203158D01*
X135125112Y-87207554D01*
X135125108Y-87207556D01*
X135055494Y-87247748D01*
X135055488Y-87247752D01*
X132859666Y-89443573D01*
X132798343Y-89477058D01*
X132734398Y-89472485D01*
X132734019Y-89473736D01*
X132542802Y-89415730D01*
X132542800Y-89415729D01*
X132350000Y-89396741D01*
X132157199Y-89415729D01*
X132157197Y-89415730D01*
X131971808Y-89471968D01*
X131800959Y-89563288D01*
X131800952Y-89563293D01*
X131709564Y-89638293D01*
X131645254Y-89665605D01*
X131576386Y-89653813D01*
X131524827Y-89606661D01*
X131506900Y-89542439D01*
X131506900Y-88419905D01*
X131526585Y-88352866D01*
X131543219Y-88332224D01*
X132811710Y-87063733D01*
X134125601Y-85749842D01*
X134179170Y-85657057D01*
X134206900Y-85553569D01*
X134206900Y-85446430D01*
X134206900Y-84661431D01*
X134202106Y-84643537D01*
X134179170Y-84557942D01*
X134125601Y-84465157D01*
X133525818Y-83865374D01*
X133492333Y-83804051D01*
X133489499Y-83777693D01*
X133489499Y-83708988D01*
X133489499Y-83708987D01*
X133478752Y-83635218D01*
X133423126Y-83521432D01*
X133423124Y-83521430D01*
X133423124Y-83521429D01*
X133333570Y-83431875D01*
X133333568Y-83431874D01*
X133219782Y-83376248D01*
X133146013Y-83365500D01*
X133146008Y-83365500D01*
X132823988Y-83365500D01*
X132750217Y-83376248D01*
X132636429Y-83431875D01*
X132587681Y-83480624D01*
X132526358Y-83514109D01*
X132456666Y-83509125D01*
X132412319Y-83480624D01*
X132363570Y-83431875D01*
X132363568Y-83431874D01*
X132249782Y-83376248D01*
X132176013Y-83365500D01*
X132176008Y-83365500D01*
X131853988Y-83365500D01*
X131780217Y-83376248D01*
X131666429Y-83431875D01*
X131576875Y-83521429D01*
X131542883Y-83590963D01*
X131521248Y-83635218D01*
X131510500Y-83708987D01*
X131510500Y-83708991D01*
X131510500Y-83708992D01*
X131510500Y-84091011D01*
X131512057Y-84101696D01*
X131521248Y-84164782D01*
X131576874Y-84278568D01*
X131576875Y-84278569D01*
X131576876Y-84278571D01*
X131582845Y-84286932D01*
X131580168Y-84288843D01*
X131605260Y-84334770D01*
X131608100Y-84361156D01*
X131608100Y-84569100D01*
X131588415Y-84636139D01*
X131535611Y-84681894D01*
X131484100Y-84693100D01*
X131083570Y-84693100D01*
X130976430Y-84693100D01*
X130898814Y-84713897D01*
X130872941Y-84720830D01*
X130780158Y-84774398D01*
X130780155Y-84774400D01*
X129842764Y-85711790D01*
X129781441Y-85745275D01*
X129711749Y-85740291D01*
X129696067Y-85733165D01*
X129651385Y-85708985D01*
X129651375Y-85708981D01*
X129417522Y-85628698D01*
X129254927Y-85601566D01*
X129173631Y-85588000D01*
X128926369Y-85588000D01*
X128865396Y-85598174D01*
X128682477Y-85628698D01*
X128448624Y-85708981D01*
X128448610Y-85708987D01*
X128231159Y-85826665D01*
X128231148Y-85826672D01*
X128036039Y-85978532D01*
X128036035Y-85978535D01*
X127868564Y-86160456D01*
X127733327Y-86367453D01*
X127634004Y-86593889D01*
X127573305Y-86833586D01*
X127552887Y-87079994D01*
X123896872Y-87079994D01*
X123866453Y-87063735D01*
X123866450Y-87063734D01*
X123866448Y-87063733D01*
X123667210Y-87003294D01*
X123667208Y-87003293D01*
X123460000Y-86982886D01*
X123252791Y-87003293D01*
X123252789Y-87003294D01*
X123053551Y-87063733D01*
X123053547Y-87063734D01*
X123053547Y-87063735D01*
X123023108Y-87080005D01*
X122869917Y-87161886D01*
X122708971Y-87293971D01*
X122576886Y-87454917D01*
X122576884Y-87454921D01*
X122554357Y-87497065D01*
X122505396Y-87546908D01*
X122437259Y-87562369D01*
X122371579Y-87538538D01*
X122335642Y-87497065D01*
X122313116Y-87454921D01*
X122313113Y-87454917D01*
X122181028Y-87293971D01*
X122020082Y-87161886D01*
X122020080Y-87161885D01*
X122020079Y-87161884D01*
X121836453Y-87063735D01*
X121836450Y-87063734D01*
X121836448Y-87063733D01*
X121637210Y-87003294D01*
X121637208Y-87003293D01*
X121430000Y-86982886D01*
X121222791Y-87003293D01*
X121222789Y-87003294D01*
X121023551Y-87063733D01*
X121023547Y-87063734D01*
X121023547Y-87063735D01*
X120993108Y-87080005D01*
X120839917Y-87161886D01*
X120678971Y-87293971D01*
X120546886Y-87454917D01*
X120448733Y-87638551D01*
X120388294Y-87837789D01*
X120388293Y-87837791D01*
X120367886Y-88045000D01*
X115200500Y-88045000D01*
X115200500Y-77073729D01*
X117100000Y-77073729D01*
X117100000Y-77180000D01*
X118151518Y-77180000D01*
X118140889Y-77198409D01*
X118100000Y-77351009D01*
X118100000Y-77508991D01*
X118140889Y-77661591D01*
X118151518Y-77680000D01*
X117100001Y-77680000D01*
X117100001Y-77786272D01*
X117102889Y-77834767D01*
X117148758Y-78045632D01*
X117148760Y-78045638D01*
X117233710Y-78244013D01*
X117354672Y-78422734D01*
X117507265Y-78575327D01*
X117685986Y-78696289D01*
X117864627Y-78772788D01*
X117918504Y-78817273D01*
X117939779Y-78883825D01*
X117921695Y-78951314D01*
X117888700Y-78987093D01*
X117747900Y-79089392D01*
X117747891Y-79089399D01*
X117619399Y-79217891D01*
X117619399Y-79217892D01*
X117619397Y-79217894D01*
X117603566Y-79239684D01*
X117512583Y-79364909D01*
X117430083Y-79526825D01*
X117430081Y-79526828D01*
X117373928Y-79699649D01*
X117373928Y-79699652D01*
X117345500Y-79879139D01*
X117345500Y-80060860D01*
X117373928Y-80240347D01*
X117373928Y-80240350D01*
X117430081Y-80413171D01*
X117430083Y-80413174D01*
X117512583Y-80575090D01*
X117619397Y-80722106D01*
X117747894Y-80850603D01*
X117894910Y-80957417D01*
X118056826Y-81039917D01*
X118056828Y-81039918D01*
X118166918Y-81075688D01*
X118229654Y-81096072D01*
X118409139Y-81124500D01*
X118409140Y-81124500D01*
X118990860Y-81124500D01*
X118990861Y-81124500D01*
X119170346Y-81096072D01*
X119170349Y-81096071D01*
X119170350Y-81096071D01*
X119343171Y-81039918D01*
X119343171Y-81039917D01*
X119343174Y-81039917D01*
X119505090Y-80957417D01*
X119652106Y-80850603D01*
X119741890Y-80760819D01*
X119803213Y-80727334D01*
X119829571Y-80724500D01*
X137686113Y-80724500D01*
X137753152Y-80744185D01*
X137773794Y-80760819D01*
X138559600Y-81546624D01*
X138559621Y-81546647D01*
X139504395Y-82491419D01*
X139537880Y-82552742D01*
X139532896Y-82622433D01*
X139491025Y-82678367D01*
X139425560Y-82702784D01*
X139416714Y-82703100D01*
X137413570Y-82703100D01*
X137306431Y-82703100D01*
X137228815Y-82723897D01*
X137202942Y-82730830D01*
X137110159Y-82784398D01*
X137110156Y-82784400D01*
X135505373Y-84389181D01*
X135444050Y-84422666D01*
X135417693Y-84425500D01*
X135304348Y-84425500D01*
X135213136Y-84439946D01*
X135138922Y-84477760D01*
X135103204Y-84495960D01*
X135103203Y-84495961D01*
X135103198Y-84495964D01*
X135015964Y-84583198D01*
X135015961Y-84583202D01*
X135015960Y-84583204D01*
X134969495Y-84674398D01*
X134959944Y-84693142D01*
X134945500Y-84784341D01*
X134945500Y-85215651D01*
X134959946Y-85306863D01*
X134978853Y-85343969D01*
X135015960Y-85416796D01*
X135015962Y-85416798D01*
X135015964Y-85416801D01*
X135103198Y-85504035D01*
X135103202Y-85504038D01*
X135103204Y-85504040D01*
X135213138Y-85560054D01*
X135213140Y-85560054D01*
X135213142Y-85560055D01*
X135293449Y-85572774D01*
X135304334Y-85574498D01*
X135304341Y-85574499D01*
X135304347Y-85574500D01*
X135635652Y-85574499D01*
X135726862Y-85560054D01*
X135836796Y-85504040D01*
X135892320Y-85448515D01*
X135953641Y-85415032D01*
X136023333Y-85420016D01*
X136067679Y-85448515D01*
X136123204Y-85504040D01*
X136233138Y-85560054D01*
X136233140Y-85560054D01*
X136233142Y-85560055D01*
X136313449Y-85572774D01*
X136324334Y-85574498D01*
X136324341Y-85574499D01*
X136324347Y-85574500D01*
X136655652Y-85574499D01*
X136746862Y-85560054D01*
X136856796Y-85504040D01*
X136856799Y-85504036D01*
X136861198Y-85500841D01*
X136927004Y-85477359D01*
X136995058Y-85493183D01*
X137006977Y-85500843D01*
X137008268Y-85501781D01*
X137056950Y-85526585D01*
X137121727Y-85559590D01*
X137121728Y-85559590D01*
X137121730Y-85559591D01*
X137121729Y-85559591D01*
X137163906Y-85566270D01*
X137215863Y-85574500D01*
X137574136Y-85574499D01*
X137574141Y-85574499D01*
X137574141Y-85574498D01*
X137668273Y-85559590D01*
X137781735Y-85501779D01*
X137792319Y-85491195D01*
X137853642Y-85457710D01*
X137923334Y-85462694D01*
X137967681Y-85491195D01*
X137978266Y-85501780D01*
X138026950Y-85526585D01*
X138091727Y-85559590D01*
X138091728Y-85559590D01*
X138091730Y-85559591D01*
X138091729Y-85559591D01*
X138133906Y-85566270D01*
X138185863Y-85574500D01*
X138544136Y-85574499D01*
X138544141Y-85574499D01*
X138544141Y-85574498D01*
X138638273Y-85559590D01*
X138751735Y-85501779D01*
X138810295Y-85443219D01*
X138871618Y-85409734D01*
X138897976Y-85406900D01*
X139780094Y-85406900D01*
X139847133Y-85426585D01*
X139867775Y-85443219D01*
X143070157Y-88645601D01*
X143162942Y-88699170D01*
X143266430Y-88726900D01*
X143266431Y-88726900D01*
X143759523Y-88726900D01*
X143826562Y-88746585D01*
X143872317Y-88799389D01*
X143882261Y-88868547D01*
X143853236Y-88932103D01*
X143847204Y-88938581D01*
X143823251Y-88962533D01*
X143823248Y-88962537D01*
X143713814Y-89126315D01*
X143713807Y-89126328D01*
X143638430Y-89308307D01*
X143638430Y-89308309D01*
X143630138Y-89350000D01*
X144905025Y-89350000D01*
X144869930Y-89385095D01*
X144823852Y-89464905D01*
X144800000Y-89553922D01*
X144800000Y-89646078D01*
X144823852Y-89735095D01*
X144869930Y-89814905D01*
X144905025Y-89850000D01*
X143630138Y-89850000D01*
X143638430Y-89891690D01*
X143638430Y-89891692D01*
X143713807Y-90073671D01*
X143713814Y-90073684D01*
X143823248Y-90237462D01*
X143823251Y-90237466D01*
X143926313Y-90340528D01*
X143959798Y-90401851D01*
X143954814Y-90471543D01*
X143941735Y-90497098D01*
X143931371Y-90512608D01*
X143874495Y-90649919D01*
X143874493Y-90649927D01*
X143845500Y-90795683D01*
X143845500Y-90944316D01*
X143874493Y-91090072D01*
X143874495Y-91090080D01*
X143931371Y-91227391D01*
X144013939Y-91350964D01*
X144013945Y-91350971D01*
X144080293Y-91417319D01*
X144113778Y-91478642D01*
X144108794Y-91548334D01*
X144080293Y-91592681D01*
X144013945Y-91659028D01*
X144013939Y-91659035D01*
X143931371Y-91782608D01*
X143874495Y-91919919D01*
X143874493Y-91919927D01*
X143845500Y-92065683D01*
X143845500Y-92214316D01*
X143874493Y-92360072D01*
X143874495Y-92360080D01*
X143931371Y-92497391D01*
X144013939Y-92620964D01*
X144013945Y-92620971D01*
X144080293Y-92687319D01*
X144113778Y-92748642D01*
X144108794Y-92818334D01*
X144080293Y-92862681D01*
X144013945Y-92929028D01*
X144013939Y-92929035D01*
X143931371Y-93052608D01*
X143874495Y-93189919D01*
X143874493Y-93189927D01*
X143845500Y-93335683D01*
X143845500Y-93484316D01*
X143874493Y-93630072D01*
X143874495Y-93630080D01*
X143931371Y-93767391D01*
X144013939Y-93890964D01*
X144013945Y-93890971D01*
X144080293Y-93957319D01*
X144113778Y-94018642D01*
X144108794Y-94088334D01*
X144080293Y-94132681D01*
X144013945Y-94199028D01*
X144013939Y-94199035D01*
X143931371Y-94322608D01*
X143874495Y-94459919D01*
X143874493Y-94459927D01*
X143845500Y-94605683D01*
X143845500Y-94754316D01*
X143874493Y-94900072D01*
X143874495Y-94900080D01*
X143931371Y-95037391D01*
X144013939Y-95160964D01*
X144013945Y-95160971D01*
X144080293Y-95227319D01*
X144113778Y-95288642D01*
X144108794Y-95358334D01*
X144080293Y-95402681D01*
X144013945Y-95469028D01*
X144013939Y-95469035D01*
X143931371Y-95592608D01*
X143874495Y-95729919D01*
X143874493Y-95729927D01*
X143845500Y-95875683D01*
X143845500Y-96024316D01*
X143874493Y-96170072D01*
X143874495Y-96170080D01*
X143931371Y-96307391D01*
X144013939Y-96430964D01*
X144013945Y-96430971D01*
X144080293Y-96497319D01*
X144113778Y-96558642D01*
X144108794Y-96628334D01*
X144080293Y-96672681D01*
X144013945Y-96739028D01*
X144013939Y-96739035D01*
X143931371Y-96862608D01*
X143874495Y-96999919D01*
X143874493Y-96999927D01*
X143845500Y-97145683D01*
X143845500Y-97294316D01*
X143874493Y-97440072D01*
X143874495Y-97440080D01*
X143931371Y-97577391D01*
X144013939Y-97700964D01*
X144013945Y-97700971D01*
X144080293Y-97767319D01*
X144113778Y-97828642D01*
X144108794Y-97898334D01*
X144080293Y-97942681D01*
X144013945Y-98009028D01*
X144013939Y-98009035D01*
X143931371Y-98132608D01*
X143874495Y-98269919D01*
X143874493Y-98269927D01*
X143845500Y-98415683D01*
X143845500Y-98564316D01*
X143874493Y-98710072D01*
X143874495Y-98710080D01*
X143931371Y-98847391D01*
X144013939Y-98970964D01*
X144013945Y-98970971D01*
X144080293Y-99037319D01*
X144113778Y-99098642D01*
X144108794Y-99168334D01*
X144080293Y-99212681D01*
X144013945Y-99279028D01*
X144013939Y-99279035D01*
X143931371Y-99402608D01*
X143874495Y-99539919D01*
X143874493Y-99539927D01*
X143845500Y-99685683D01*
X143845500Y-99834316D01*
X143874493Y-99980072D01*
X143874495Y-99980080D01*
X143931371Y-100117391D01*
X143941735Y-100132902D01*
X143962612Y-100199580D01*
X143944126Y-100266959D01*
X143926313Y-100289472D01*
X143823251Y-100392533D01*
X143823248Y-100392537D01*
X143713814Y-100556315D01*
X143713807Y-100556328D01*
X143638430Y-100738307D01*
X143638430Y-100738309D01*
X143630138Y-100780000D01*
X144905025Y-100780000D01*
X144869930Y-100815095D01*
X144823852Y-100894905D01*
X144800000Y-100983922D01*
X144800000Y-101076078D01*
X144823852Y-101165095D01*
X144869930Y-101244905D01*
X144905025Y-101280000D01*
X143630138Y-101280000D01*
X143638430Y-101321690D01*
X143638430Y-101321692D01*
X143713807Y-101503671D01*
X143713814Y-101503684D01*
X143823248Y-101667462D01*
X143823251Y-101667466D01*
X143913404Y-101757619D01*
X143946889Y-101818942D01*
X143941905Y-101888634D01*
X143900033Y-101944567D01*
X143834569Y-101968984D01*
X143825723Y-101969300D01*
X142363895Y-101969300D01*
X142296856Y-101949615D01*
X142253411Y-101901596D01*
X142244040Y-101883204D01*
X142244038Y-101883202D01*
X142244035Y-101883198D01*
X142156801Y-101795964D01*
X142156797Y-101795961D01*
X142156796Y-101795960D01*
X142046862Y-101739946D01*
X142046860Y-101739945D01*
X142046857Y-101739944D01*
X141955658Y-101725500D01*
X141624348Y-101725500D01*
X141533136Y-101739946D01*
X141473121Y-101770526D01*
X141423204Y-101795960D01*
X141423203Y-101795961D01*
X141423198Y-101795964D01*
X141367681Y-101851482D01*
X141306358Y-101884967D01*
X141236666Y-101879983D01*
X141192319Y-101851482D01*
X141136801Y-101795964D01*
X141136797Y-101795961D01*
X141136796Y-101795960D01*
X141026862Y-101739946D01*
X141026860Y-101739945D01*
X141026857Y-101739944D01*
X140935658Y-101725500D01*
X140604348Y-101725500D01*
X140513136Y-101739946D01*
X140453121Y-101770526D01*
X140403204Y-101795960D01*
X140403203Y-101795961D01*
X140403198Y-101795964D01*
X140315964Y-101883198D01*
X140315961Y-101883202D01*
X140315960Y-101883204D01*
X140306588Y-101901596D01*
X140258615Y-101952391D01*
X140196105Y-101969300D01*
X140079056Y-101969300D01*
X140012017Y-101949615D01*
X139968571Y-101901594D01*
X139961780Y-101888266D01*
X139871733Y-101798219D01*
X139758269Y-101740408D01*
X139758270Y-101740408D01*
X139664137Y-101725500D01*
X139305863Y-101725500D01*
X139256333Y-101733345D01*
X139187040Y-101724389D01*
X139149256Y-101698552D01*
X139062516Y-101611812D01*
X139062508Y-101611806D01*
X138921695Y-101528530D01*
X138921692Y-101528528D01*
X138765001Y-101483005D01*
X138765000Y-101483006D01*
X138765000Y-103116991D01*
X138921697Y-103071468D01*
X139062508Y-102988193D01*
X139062516Y-102988187D01*
X139149254Y-102901448D01*
X139210577Y-102867962D01*
X139256332Y-102866655D01*
X139305863Y-102874500D01*
X139664136Y-102874499D01*
X139664141Y-102874499D01*
X139664141Y-102874498D01*
X139758273Y-102859590D01*
X139871735Y-102801779D01*
X139961779Y-102711735D01*
X139961988Y-102711323D01*
X139968571Y-102698406D01*
X140016544Y-102647610D01*
X140079056Y-102630700D01*
X140196105Y-102630700D01*
X140263144Y-102650385D01*
X140306588Y-102698403D01*
X140315960Y-102716796D01*
X140315961Y-102716797D01*
X140315964Y-102716801D01*
X140403198Y-102804035D01*
X140403202Y-102804038D01*
X140403204Y-102804040D01*
X140513138Y-102860054D01*
X140513140Y-102860054D01*
X140513142Y-102860055D01*
X140563067Y-102867962D01*
X140604334Y-102874498D01*
X140604341Y-102874499D01*
X140604347Y-102874500D01*
X140935652Y-102874499D01*
X141026862Y-102860054D01*
X141136796Y-102804040D01*
X141192320Y-102748515D01*
X141253641Y-102715032D01*
X141323333Y-102720016D01*
X141367679Y-102748515D01*
X141423204Y-102804040D01*
X141533138Y-102860054D01*
X141533140Y-102860054D01*
X141533142Y-102860055D01*
X141583067Y-102867962D01*
X141624334Y-102874498D01*
X141624341Y-102874499D01*
X141624347Y-102874500D01*
X141955652Y-102874499D01*
X142046862Y-102860054D01*
X142156796Y-102804040D01*
X142244040Y-102716796D01*
X142253411Y-102698403D01*
X142301385Y-102647609D01*
X142363895Y-102630700D01*
X143847258Y-102630700D01*
X143914297Y-102650385D01*
X143950360Y-102685810D01*
X144013939Y-102780964D01*
X144013945Y-102780971D01*
X144119028Y-102886054D01*
X144119035Y-102886060D01*
X144242608Y-102968628D01*
X144242609Y-102968628D01*
X144242610Y-102968629D01*
X144379920Y-103025505D01*
X144525683Y-103054499D01*
X144525687Y-103054500D01*
X144525688Y-103054500D01*
X146374313Y-103054500D01*
X146374314Y-103054499D01*
X146520080Y-103025505D01*
X146657390Y-102968629D01*
X146780966Y-102886059D01*
X146886059Y-102780966D01*
X146968629Y-102657390D01*
X147025505Y-102520080D01*
X147054500Y-102374312D01*
X147054500Y-102225688D01*
X147025505Y-102079920D01*
X146968629Y-101942610D01*
X146968628Y-101942608D01*
X146968628Y-101942607D01*
X146958265Y-101927098D01*
X146937387Y-101860421D01*
X146955872Y-101793041D01*
X146973687Y-101770526D01*
X147076748Y-101667466D01*
X147076751Y-101667462D01*
X147186185Y-101503684D01*
X147186192Y-101503671D01*
X147261569Y-101321692D01*
X147261569Y-101321690D01*
X147269862Y-101280000D01*
X146394975Y-101280000D01*
X146430070Y-101244905D01*
X146476148Y-101165095D01*
X146500000Y-101076078D01*
X146500000Y-100983922D01*
X146476148Y-100894905D01*
X146430070Y-100815095D01*
X146394975Y-100780000D01*
X147269862Y-100780000D01*
X147261569Y-100738309D01*
X147261569Y-100738307D01*
X147186192Y-100556328D01*
X147186185Y-100556315D01*
X147076751Y-100392537D01*
X147076748Y-100392533D01*
X146973686Y-100289471D01*
X146940201Y-100228148D01*
X146945185Y-100158456D01*
X146958264Y-100132901D01*
X146968629Y-100117390D01*
X147025505Y-99980080D01*
X147054500Y-99834312D01*
X147054500Y-99685688D01*
X147025505Y-99539920D01*
X146968629Y-99402610D01*
X146886059Y-99279034D01*
X146886054Y-99279028D01*
X146819707Y-99212681D01*
X146786222Y-99151358D01*
X146791206Y-99081666D01*
X146819707Y-99037319D01*
X146886054Y-98970971D01*
X146886059Y-98970966D01*
X146968629Y-98847390D01*
X147025505Y-98710080D01*
X147054500Y-98564312D01*
X147054500Y-98415688D01*
X147025505Y-98269920D01*
X146968629Y-98132610D01*
X146886059Y-98009034D01*
X146886054Y-98009028D01*
X146819707Y-97942681D01*
X146786222Y-97881358D01*
X146791206Y-97811666D01*
X146819707Y-97767319D01*
X146886054Y-97700971D01*
X146886059Y-97700966D01*
X146968629Y-97577390D01*
X147025505Y-97440080D01*
X147054500Y-97294312D01*
X147054500Y-97145688D01*
X147025505Y-96999920D01*
X146968629Y-96862610D01*
X146886059Y-96739034D01*
X146886054Y-96739028D01*
X146819707Y-96672681D01*
X146786222Y-96611358D01*
X146791206Y-96541666D01*
X146819707Y-96497319D01*
X146886054Y-96430971D01*
X146886059Y-96430966D01*
X146968629Y-96307390D01*
X147025505Y-96170080D01*
X147054500Y-96024312D01*
X147054500Y-95875688D01*
X147025505Y-95729920D01*
X146968629Y-95592610D01*
X146950276Y-95565143D01*
X146886060Y-95469035D01*
X146886054Y-95469028D01*
X146819707Y-95402681D01*
X146786222Y-95341358D01*
X146791206Y-95271666D01*
X146819707Y-95227319D01*
X146886054Y-95160971D01*
X146886059Y-95160966D01*
X146968629Y-95037390D01*
X147025505Y-94900080D01*
X147054500Y-94754312D01*
X147054500Y-94605688D01*
X147025505Y-94459920D01*
X146968629Y-94322610D01*
X146886059Y-94199034D01*
X146886054Y-94199028D01*
X146819707Y-94132681D01*
X146786222Y-94071358D01*
X146791206Y-94001666D01*
X146819707Y-93957319D01*
X146886054Y-93890971D01*
X146886059Y-93890966D01*
X146968629Y-93767390D01*
X147025505Y-93630080D01*
X147054500Y-93484312D01*
X147054500Y-93335688D01*
X147025505Y-93189920D01*
X146968629Y-93052610D01*
X146886059Y-92929034D01*
X146886054Y-92929028D01*
X146819707Y-92862681D01*
X146786222Y-92801358D01*
X146791206Y-92731666D01*
X146819707Y-92687319D01*
X146886054Y-92620971D01*
X146886059Y-92620966D01*
X146968629Y-92497390D01*
X147025505Y-92360080D01*
X147054500Y-92214312D01*
X147054500Y-92065688D01*
X147025505Y-91919920D01*
X146968629Y-91782610D01*
X146955946Y-91763629D01*
X146886060Y-91659035D01*
X146886054Y-91659028D01*
X146819707Y-91592681D01*
X146786222Y-91531358D01*
X146791206Y-91461666D01*
X146819707Y-91417319D01*
X146886054Y-91350971D01*
X146886059Y-91350966D01*
X146968629Y-91227390D01*
X147025505Y-91090080D01*
X147054500Y-90944312D01*
X147054500Y-90795688D01*
X147025505Y-90649920D01*
X146968629Y-90512610D01*
X146968628Y-90512608D01*
X146968628Y-90512607D01*
X146958265Y-90497098D01*
X146937387Y-90430421D01*
X146955872Y-90363041D01*
X146973687Y-90340526D01*
X147076748Y-90237466D01*
X147076751Y-90237462D01*
X147186185Y-90073684D01*
X147186192Y-90073671D01*
X147261569Y-89891692D01*
X147261569Y-89891690D01*
X147269862Y-89850000D01*
X146394975Y-89850000D01*
X146430070Y-89814905D01*
X146476148Y-89735095D01*
X146500000Y-89646078D01*
X146500000Y-89553922D01*
X146476148Y-89464905D01*
X146430070Y-89385095D01*
X146394975Y-89350000D01*
X147269862Y-89350000D01*
X147261569Y-89308309D01*
X147261569Y-89308307D01*
X147186192Y-89126328D01*
X147186185Y-89126315D01*
X147076751Y-88962537D01*
X147076748Y-88962533D01*
X146973686Y-88859471D01*
X146940201Y-88798148D01*
X146945185Y-88728456D01*
X146958264Y-88702901D01*
X146968629Y-88687390D01*
X147025505Y-88550080D01*
X147054500Y-88404312D01*
X147054500Y-88255688D01*
X147025505Y-88109920D01*
X146968629Y-87972610D01*
X146886059Y-87849034D01*
X146886054Y-87849028D01*
X146819707Y-87782681D01*
X146786222Y-87721358D01*
X146791206Y-87651666D01*
X146819707Y-87607319D01*
X146886054Y-87540971D01*
X146886059Y-87540966D01*
X146968629Y-87417390D01*
X147025505Y-87280080D01*
X147054500Y-87134312D01*
X147054500Y-86985688D01*
X147025505Y-86839920D01*
X146968629Y-86702610D01*
X146886059Y-86579034D01*
X146886054Y-86579028D01*
X146780971Y-86473945D01*
X146780964Y-86473939D01*
X146657391Y-86391371D01*
X146520080Y-86334495D01*
X146520072Y-86334493D01*
X146374316Y-86305500D01*
X146374312Y-86305500D01*
X145503886Y-86305500D01*
X145436847Y-86285815D01*
X145416205Y-86269181D01*
X142344705Y-83197681D01*
X142311220Y-83136358D01*
X142316204Y-83066666D01*
X142344705Y-83022319D01*
X151846205Y-73520819D01*
X151907528Y-73487334D01*
X151933886Y-73484500D01*
X152835694Y-73484500D01*
X152902733Y-73504185D01*
X152948488Y-73556989D01*
X152958432Y-73626147D01*
X152929407Y-73689703D01*
X152923375Y-73696181D01*
X151774400Y-74845155D01*
X151774398Y-74845158D01*
X151720830Y-74937941D01*
X151697217Y-75026068D01*
X151697216Y-75026071D01*
X151693100Y-75041430D01*
X151693100Y-82353567D01*
X151693099Y-82353567D01*
X151710881Y-82419930D01*
X151720830Y-82457058D01*
X151774399Y-82549843D01*
X153874399Y-84649842D01*
X153950158Y-84725601D01*
X154042943Y-84779170D01*
X154146431Y-84806900D01*
X154146434Y-84806900D01*
X160753567Y-84806900D01*
X160753570Y-84806900D01*
X160857058Y-84779170D01*
X160949843Y-84725601D01*
X162125601Y-83549843D01*
X162179170Y-83457058D01*
X162206900Y-83353570D01*
X162206900Y-83246430D01*
X162206900Y-83178499D01*
X162226585Y-83111460D01*
X162279389Y-83065705D01*
X162330900Y-83054499D01*
X162395067Y-83054499D01*
X162395068Y-83054498D01*
X162417685Y-83050000D01*
X162430808Y-83047390D01*
X162479190Y-83047390D01*
X162514933Y-83054500D01*
X163665066Y-83054499D01*
X163739301Y-83039734D01*
X163823484Y-82983484D01*
X163823485Y-82983483D01*
X163832120Y-82974849D01*
X163833355Y-82976084D01*
X163875809Y-82940605D01*
X163945134Y-82931896D01*
X164008162Y-82962051D01*
X164044881Y-83021493D01*
X164049300Y-83054300D01*
X164049300Y-83873539D01*
X164053534Y-83889339D01*
X164071836Y-83957646D01*
X164115374Y-84033055D01*
X164115376Y-84033057D01*
X164184010Y-84101691D01*
X164184015Y-84101695D01*
X164946945Y-84864626D01*
X165022354Y-84908164D01*
X165106462Y-84930700D01*
X165106465Y-84930700D01*
X167583535Y-84930700D01*
X167583537Y-84930700D01*
X167583538Y-84930700D01*
X167667646Y-84908164D01*
X167743055Y-84864626D01*
X167804626Y-84803055D01*
X167804626Y-84803053D01*
X167814830Y-84792850D01*
X167814834Y-84792845D01*
X168342845Y-84264834D01*
X168342850Y-84264830D01*
X168353053Y-84254626D01*
X168353055Y-84254626D01*
X168414626Y-84193055D01*
X168458164Y-84117646D01*
X168480700Y-84033538D01*
X168480700Y-83616105D01*
X168500385Y-83549066D01*
X168535801Y-83513008D01*
X168542896Y-83508267D01*
X168609569Y-83487387D01*
X168676951Y-83505868D01*
X168699471Y-83523686D01*
X168802533Y-83626748D01*
X168802537Y-83626751D01*
X168966315Y-83736185D01*
X168966328Y-83736192D01*
X169148308Y-83811569D01*
X169190000Y-83819862D01*
X169190000Y-82944975D01*
X169225095Y-82980070D01*
X169304905Y-83026148D01*
X169393922Y-83050000D01*
X169486078Y-83050000D01*
X169575095Y-83026148D01*
X169654905Y-82980070D01*
X169690000Y-82944975D01*
X169690000Y-83819862D01*
X169731690Y-83811569D01*
X169731692Y-83811569D01*
X169913671Y-83736192D01*
X169913684Y-83736185D01*
X170077462Y-83626751D01*
X170077466Y-83626748D01*
X170180526Y-83523687D01*
X170241849Y-83490201D01*
X170311540Y-83495185D01*
X170337098Y-83508265D01*
X170352607Y-83518628D01*
X170364821Y-83523687D01*
X170489920Y-83575505D01*
X170622733Y-83601923D01*
X170635683Y-83604499D01*
X170635687Y-83604500D01*
X170635688Y-83604500D01*
X170784313Y-83604500D01*
X170784314Y-83604499D01*
X170930080Y-83575505D01*
X171067390Y-83518629D01*
X171190966Y-83436059D01*
X171195151Y-83431874D01*
X171257319Y-83369707D01*
X171318642Y-83336222D01*
X171388334Y-83341206D01*
X171432681Y-83369707D01*
X171499028Y-83436054D01*
X171499035Y-83436060D01*
X171622608Y-83518628D01*
X171622609Y-83518628D01*
X171622610Y-83518629D01*
X171759920Y-83575505D01*
X171892733Y-83601923D01*
X171905683Y-83604499D01*
X171905687Y-83604500D01*
X171905688Y-83604500D01*
X172054313Y-83604500D01*
X172054314Y-83604499D01*
X172200080Y-83575505D01*
X172337390Y-83518629D01*
X172352897Y-83508267D01*
X172419572Y-83487387D01*
X172486953Y-83505869D01*
X172509471Y-83523686D01*
X172612533Y-83626748D01*
X172612537Y-83626751D01*
X172776315Y-83736185D01*
X172776328Y-83736192D01*
X172958308Y-83811569D01*
X173000000Y-83819862D01*
X173000000Y-82944975D01*
X173035095Y-82980070D01*
X173114905Y-83026148D01*
X173203922Y-83050000D01*
X173296078Y-83050000D01*
X173385095Y-83026148D01*
X173464905Y-82980070D01*
X173500000Y-82944975D01*
X173500000Y-83819862D01*
X173541690Y-83811569D01*
X173541692Y-83811569D01*
X173723671Y-83736192D01*
X173723684Y-83736185D01*
X173887462Y-83626751D01*
X173887466Y-83626748D01*
X174026748Y-83487466D01*
X174026751Y-83487462D01*
X174136185Y-83323684D01*
X174136192Y-83323671D01*
X174211569Y-83141693D01*
X174211572Y-83141681D01*
X174249999Y-82948495D01*
X174250000Y-82948492D01*
X174250000Y-82650000D01*
X173598949Y-82650000D01*
X173576148Y-82564905D01*
X173530070Y-82485095D01*
X173464905Y-82419930D01*
X173385095Y-82373852D01*
X173296078Y-82350000D01*
X173203922Y-82350000D01*
X173114905Y-82373852D01*
X173035095Y-82419930D01*
X173000000Y-82455025D01*
X173000000Y-81944975D01*
X173035095Y-81980070D01*
X173114905Y-82026148D01*
X173203922Y-82050000D01*
X173296078Y-82050000D01*
X173385095Y-82026148D01*
X173464905Y-81980070D01*
X173530070Y-81914905D01*
X173576148Y-81835095D01*
X173598949Y-81750000D01*
X174250000Y-81750000D01*
X174250000Y-81051508D01*
X174249999Y-81051504D01*
X174211572Y-80858318D01*
X174211569Y-80858306D01*
X174136192Y-80676328D01*
X174136185Y-80676315D01*
X174026751Y-80512537D01*
X174026748Y-80512533D01*
X173887466Y-80373251D01*
X173887462Y-80373248D01*
X173723684Y-80263814D01*
X173723671Y-80263807D01*
X173541691Y-80188429D01*
X173541683Y-80188427D01*
X173500000Y-80180135D01*
X173500000Y-81455025D01*
X173464905Y-81419930D01*
X173385095Y-81373852D01*
X173296078Y-81350000D01*
X173203922Y-81350000D01*
X173114905Y-81373852D01*
X173035095Y-81419930D01*
X173000000Y-81455025D01*
X173000000Y-80180136D01*
X172999999Y-80180135D01*
X172958316Y-80188427D01*
X172958308Y-80188429D01*
X172776328Y-80263807D01*
X172776315Y-80263814D01*
X172612537Y-80373248D01*
X172612533Y-80373251D01*
X172509472Y-80476313D01*
X172448149Y-80509798D01*
X172378457Y-80504814D01*
X172352902Y-80491735D01*
X172337391Y-80481371D01*
X172200080Y-80424495D01*
X172200072Y-80424493D01*
X172054316Y-80395500D01*
X172054312Y-80395500D01*
X171998621Y-80395500D01*
X171931582Y-80375815D01*
X171910940Y-80359181D01*
X171774569Y-80222810D01*
X171741084Y-80161487D01*
X171738250Y-80135129D01*
X171738250Y-76084871D01*
X171757935Y-76017832D01*
X171774569Y-75997190D01*
X172680941Y-75090819D01*
X172742264Y-75057334D01*
X172768622Y-75054500D01*
X173001896Y-75054500D01*
X173001902Y-75054500D01*
X173079128Y-75048422D01*
X173258722Y-75000300D01*
X173381109Y-74937941D01*
X173424384Y-74915892D01*
X173424385Y-74915890D01*
X173424387Y-74915890D01*
X173568881Y-74798881D01*
X173685890Y-74654387D01*
X173687052Y-74652108D01*
X173712589Y-74601985D01*
X173770300Y-74488722D01*
X173818422Y-74309128D01*
X173824500Y-74231902D01*
X173824500Y-73168098D01*
X173818422Y-73090872D01*
X173770300Y-72911278D01*
X173741444Y-72854646D01*
X173685892Y-72745615D01*
X173648953Y-72700000D01*
X175240466Y-72700000D01*
X175260579Y-72994051D01*
X175320547Y-73282637D01*
X175320548Y-73282640D01*
X175419249Y-73560357D01*
X175419248Y-73560357D01*
X175489627Y-73696181D01*
X175554852Y-73822059D01*
X175700287Y-74028094D01*
X175724829Y-74062861D01*
X175926006Y-74278268D01*
X176154632Y-74464269D01*
X176154635Y-74464271D01*
X176154639Y-74464274D01*
X176286754Y-74544615D01*
X176406475Y-74617419D01*
X176625890Y-74712723D01*
X176676816Y-74734844D01*
X176960630Y-74814365D01*
X177211151Y-74848799D01*
X177252627Y-74854500D01*
X177252628Y-74854500D01*
X177547373Y-74854500D01*
X177588849Y-74848799D01*
X177839370Y-74814365D01*
X178123184Y-74734844D01*
X178371717Y-74626891D01*
X178393524Y-74617419D01*
X178393526Y-74617418D01*
X178645361Y-74464274D01*
X178873997Y-74278265D01*
X179075175Y-74062856D01*
X179245148Y-73822059D01*
X179380749Y-73560361D01*
X179479453Y-73282635D01*
X179539420Y-72994057D01*
X179559534Y-72700000D01*
X179539420Y-72405943D01*
X179479453Y-72117365D01*
X179478564Y-72114865D01*
X179380750Y-71839642D01*
X179380751Y-71839642D01*
X179270364Y-71626606D01*
X179245148Y-71577941D01*
X179075175Y-71337144D01*
X179075171Y-71337140D01*
X179075170Y-71337138D01*
X178873993Y-71121731D01*
X178645367Y-70935730D01*
X178645356Y-70935723D01*
X178393524Y-70782580D01*
X178123185Y-70665156D01*
X177839375Y-70585636D01*
X177839371Y-70585635D01*
X177839370Y-70585635D01*
X177693371Y-70565567D01*
X177547373Y-70545500D01*
X177547372Y-70545500D01*
X177252628Y-70545500D01*
X177252627Y-70545500D01*
X176960630Y-70585635D01*
X176960624Y-70585636D01*
X176676814Y-70665156D01*
X176406475Y-70782580D01*
X176154643Y-70935723D01*
X176154632Y-70935730D01*
X175926006Y-71121731D01*
X175724829Y-71337138D01*
X175554852Y-71577940D01*
X175419249Y-71839642D01*
X175320548Y-72117359D01*
X175320547Y-72117362D01*
X175260579Y-72405948D01*
X175240466Y-72700000D01*
X173648953Y-72700000D01*
X173632765Y-72680009D01*
X173568881Y-72601119D01*
X173459548Y-72512583D01*
X173424384Y-72484107D01*
X173258720Y-72399699D01*
X173079125Y-72351577D01*
X173001907Y-72345500D01*
X173001902Y-72345500D01*
X172338098Y-72345500D01*
X172338092Y-72345500D01*
X172260874Y-72351577D01*
X172260873Y-72351577D01*
X172081279Y-72399699D01*
X171915615Y-72484107D01*
X171771119Y-72601119D01*
X171654107Y-72745615D01*
X171569699Y-72911279D01*
X171521577Y-73090873D01*
X171521577Y-73090874D01*
X171515500Y-73168092D01*
X171515500Y-73292049D01*
X171495815Y-73359088D01*
X171443011Y-73404843D01*
X171373853Y-73414787D01*
X171310297Y-73385762D01*
X171272523Y-73326984D01*
X171269027Y-73311447D01*
X171267468Y-73301606D01*
X171256072Y-73229654D01*
X171256071Y-73229650D01*
X171256071Y-73229649D01*
X171199918Y-73056828D01*
X171199916Y-73056825D01*
X171167935Y-72994057D01*
X171117417Y-72894910D01*
X171010603Y-72747894D01*
X170882106Y-72619397D01*
X170735090Y-72512583D01*
X170573174Y-72430083D01*
X170573171Y-72430081D01*
X170400348Y-72373928D01*
X170259229Y-72351577D01*
X170220861Y-72345500D01*
X170039139Y-72345500D01*
X170000771Y-72351577D01*
X169859652Y-72373928D01*
X169859649Y-72373928D01*
X169686828Y-72430081D01*
X169686825Y-72430083D01*
X169524909Y-72512583D01*
X169441030Y-72573525D01*
X169377894Y-72619397D01*
X169377892Y-72619399D01*
X169377891Y-72619399D01*
X169249399Y-72747891D01*
X169249399Y-72747892D01*
X169249397Y-72747894D01*
X169203525Y-72811030D01*
X169142583Y-72894909D01*
X169060083Y-73056825D01*
X169060081Y-73056828D01*
X169003928Y-73229649D01*
X169003928Y-73229652D01*
X168995536Y-73282637D01*
X168975500Y-73409139D01*
X168975500Y-73990861D01*
X168976958Y-74000066D01*
X169003928Y-74170347D01*
X169003928Y-74170350D01*
X169060081Y-74343171D01*
X169060083Y-74343174D01*
X169142583Y-74505090D01*
X169249397Y-74652106D01*
X169377894Y-74780603D01*
X169524910Y-74887417D01*
X169686826Y-74969917D01*
X169686828Y-74969918D01*
X169859653Y-75026072D01*
X169881386Y-75029514D01*
X169920450Y-75035701D01*
X169983585Y-75065630D01*
X169988734Y-75070493D01*
X170875431Y-75957190D01*
X170908916Y-76018513D01*
X170911750Y-76044871D01*
X170911750Y-80135129D01*
X170892065Y-80202168D01*
X170875431Y-80222810D01*
X170739060Y-80359181D01*
X170677737Y-80392666D01*
X170651379Y-80395500D01*
X170635683Y-80395500D01*
X170489927Y-80424493D01*
X170489919Y-80424495D01*
X170352608Y-80481371D01*
X170337098Y-80491735D01*
X170270420Y-80512612D01*
X170203041Y-80494126D01*
X170180528Y-80476313D01*
X170077466Y-80373251D01*
X170077462Y-80373248D01*
X169913684Y-80263814D01*
X169913671Y-80263807D01*
X169731691Y-80188429D01*
X169731683Y-80188427D01*
X169690000Y-80180135D01*
X169690000Y-81455025D01*
X169654905Y-81419930D01*
X169575095Y-81373852D01*
X169486078Y-81350000D01*
X169393922Y-81350000D01*
X169304905Y-81373852D01*
X169225095Y-81419930D01*
X169190000Y-81455025D01*
X169190000Y-80180136D01*
X169189999Y-80180135D01*
X169148316Y-80188427D01*
X169148308Y-80188429D01*
X168966328Y-80263807D01*
X168966315Y-80263814D01*
X168802537Y-80373248D01*
X168802533Y-80373251D01*
X168699472Y-80476313D01*
X168638149Y-80509798D01*
X168568457Y-80504814D01*
X168542902Y-80491735D01*
X168527391Y-80481371D01*
X168390080Y-80424495D01*
X168390072Y-80424493D01*
X168244316Y-80395500D01*
X168244312Y-80395500D01*
X168095688Y-80395500D01*
X168095683Y-80395500D01*
X167949927Y-80424493D01*
X167949919Y-80424495D01*
X167812608Y-80481371D01*
X167689035Y-80563939D01*
X167689028Y-80563945D01*
X167622681Y-80630293D01*
X167561358Y-80663778D01*
X167491666Y-80658794D01*
X167447319Y-80630293D01*
X167380971Y-80563945D01*
X167380964Y-80563939D01*
X167257391Y-80481371D01*
X167120080Y-80424495D01*
X167120072Y-80424493D01*
X166974316Y-80395500D01*
X166974312Y-80395500D01*
X166825688Y-80395500D01*
X166825684Y-80395500D01*
X166817491Y-80397130D01*
X166747900Y-80390903D01*
X166692722Y-80348040D01*
X166669478Y-80282150D01*
X166669300Y-80275513D01*
X166669300Y-75018990D01*
X166688985Y-74951951D01*
X166719995Y-74920794D01*
X166719336Y-74919980D01*
X166732074Y-74909665D01*
X166868881Y-74798881D01*
X166985890Y-74654387D01*
X166987052Y-74652108D01*
X167012589Y-74601985D01*
X167070300Y-74488722D01*
X167118422Y-74309128D01*
X167124500Y-74231902D01*
X167124500Y-73168098D01*
X167118422Y-73090872D01*
X167070300Y-72911278D01*
X167041444Y-72854646D01*
X166985892Y-72745615D01*
X166932765Y-72680009D01*
X166868881Y-72601119D01*
X166759548Y-72512583D01*
X166724384Y-72484107D01*
X166558720Y-72399699D01*
X166379125Y-72351577D01*
X166301907Y-72345500D01*
X166301902Y-72345500D01*
X165638098Y-72345500D01*
X165638092Y-72345500D01*
X165560874Y-72351577D01*
X165560873Y-72351577D01*
X165381279Y-72399699D01*
X165215615Y-72484107D01*
X165071119Y-72601119D01*
X164954107Y-72745615D01*
X164869699Y-72911279D01*
X164821577Y-73090873D01*
X164821577Y-73090874D01*
X164815500Y-73168092D01*
X164815500Y-73292049D01*
X164795815Y-73359088D01*
X164743011Y-73404843D01*
X164673853Y-73414787D01*
X164610297Y-73385762D01*
X164572523Y-73326984D01*
X164569027Y-73311447D01*
X164567468Y-73301606D01*
X164556072Y-73229654D01*
X164556071Y-73229650D01*
X164556071Y-73229649D01*
X164499918Y-73056828D01*
X164499916Y-73056825D01*
X164467935Y-72994057D01*
X164417417Y-72894910D01*
X164310603Y-72747894D01*
X164182106Y-72619397D01*
X164035090Y-72512583D01*
X163873174Y-72430083D01*
X163873171Y-72430081D01*
X163700348Y-72373928D01*
X163559229Y-72351577D01*
X163520861Y-72345500D01*
X163339139Y-72345500D01*
X163300771Y-72351577D01*
X163159652Y-72373928D01*
X163159649Y-72373928D01*
X162986828Y-72430081D01*
X162986825Y-72430083D01*
X162824909Y-72512583D01*
X162741030Y-72573525D01*
X162677894Y-72619397D01*
X162677892Y-72619399D01*
X162677891Y-72619399D01*
X162549399Y-72747891D01*
X162549399Y-72747892D01*
X162549397Y-72747894D01*
X162503525Y-72811030D01*
X162442583Y-72894909D01*
X162360083Y-73056825D01*
X162360081Y-73056828D01*
X162303928Y-73229649D01*
X162303928Y-73229652D01*
X162295536Y-73282637D01*
X162275500Y-73409139D01*
X162275500Y-73990861D01*
X162276958Y-74000066D01*
X162303928Y-74170347D01*
X162303928Y-74170350D01*
X162360081Y-74343171D01*
X162360083Y-74343174D01*
X162442583Y-74505090D01*
X162549397Y-74652106D01*
X162677894Y-74780603D01*
X162824910Y-74887417D01*
X162986824Y-74969916D01*
X162986825Y-74969916D01*
X162986826Y-74969917D01*
X163013616Y-74978621D01*
X163071292Y-75018058D01*
X163098491Y-75082416D01*
X163099300Y-75096553D01*
X163099300Y-77003539D01*
X163118107Y-77073729D01*
X163121836Y-77087646D01*
X163165374Y-77163055D01*
X163165376Y-77163057D01*
X163234010Y-77231691D01*
X163234016Y-77231696D01*
X165242981Y-79240661D01*
X165276466Y-79301984D01*
X165279300Y-79328342D01*
X165279300Y-80410621D01*
X165259615Y-80477660D01*
X165224191Y-80513723D01*
X165149031Y-80563942D01*
X165043945Y-80669028D01*
X165043939Y-80669035D01*
X164961372Y-80792606D01*
X164949261Y-80821846D01*
X164905419Y-80876249D01*
X164839125Y-80898313D01*
X164771426Y-80881033D01*
X164723816Y-80829896D01*
X164710700Y-80774392D01*
X164710700Y-80416465D01*
X164710700Y-80416462D01*
X164688164Y-80332354D01*
X164644626Y-80256945D01*
X164583055Y-80195374D01*
X164583054Y-80195373D01*
X162277019Y-77889338D01*
X162243534Y-77828015D01*
X162240700Y-77801657D01*
X162240700Y-75391465D01*
X162240700Y-75391462D01*
X162218164Y-75307354D01*
X162174626Y-75231945D01*
X162113055Y-75170374D01*
X162108724Y-75166043D01*
X162108713Y-75166033D01*
X160740818Y-73798138D01*
X160707333Y-73736815D01*
X160704499Y-73710457D01*
X160704499Y-72249936D01*
X160704499Y-72249934D01*
X160689734Y-72175699D01*
X160668514Y-72143941D01*
X160633484Y-72091515D01*
X160580032Y-72055800D01*
X160549301Y-72035266D01*
X160549299Y-72035265D01*
X160549296Y-72035264D01*
X160475069Y-72020500D01*
X158724936Y-72020500D01*
X158650698Y-72035266D01*
X158566515Y-72091515D01*
X158510266Y-72175699D01*
X158510264Y-72175703D01*
X158495500Y-72249928D01*
X158495500Y-74000063D01*
X158510266Y-74074301D01*
X158566515Y-74158484D01*
X158584270Y-74170347D01*
X158650699Y-74214734D01*
X158650702Y-74214734D01*
X158650703Y-74214735D01*
X158675666Y-74219700D01*
X158724933Y-74229500D01*
X158924741Y-74229499D01*
X158991779Y-74249183D01*
X159037534Y-74301987D01*
X159047478Y-74371145D01*
X159018453Y-74434701D01*
X158977146Y-74465880D01*
X158922427Y-74491396D01*
X158922420Y-74491400D01*
X158728926Y-74626886D01*
X158728920Y-74626891D01*
X158561891Y-74793920D01*
X158561883Y-74793929D01*
X158503337Y-74877542D01*
X158448760Y-74921167D01*
X158379262Y-74928359D01*
X158316907Y-74896836D01*
X158288148Y-74848799D01*
X158286073Y-74849659D01*
X158282965Y-74842155D01*
X158266920Y-74814365D01*
X158239427Y-74766746D01*
X156410590Y-72937910D01*
X156377106Y-72876588D01*
X156375176Y-72835290D01*
X156387961Y-72730000D01*
X156368987Y-72573736D01*
X156313168Y-72426554D01*
X156223748Y-72297007D01*
X156170614Y-72249934D01*
X156105926Y-72192625D01*
X156059463Y-72168239D01*
X155966543Y-72119471D01*
X155966542Y-72119470D01*
X155966539Y-72119469D01*
X155813707Y-72081800D01*
X155813706Y-72081800D01*
X155656294Y-72081800D01*
X155656292Y-72081800D01*
X155642927Y-72085094D01*
X155573124Y-72082024D01*
X155516063Y-72041704D01*
X155489858Y-71976934D01*
X155502831Y-71908279D01*
X155525570Y-71877018D01*
X155576759Y-71825830D01*
X155655197Y-71689970D01*
X155695800Y-71538439D01*
X155695800Y-71381561D01*
X155655197Y-71230030D01*
X155576759Y-71094170D01*
X155465830Y-70983241D01*
X155329970Y-70904803D01*
X155329971Y-70904803D01*
X155292087Y-70894652D01*
X155178439Y-70864200D01*
X155021561Y-70864200D01*
X154907912Y-70894652D01*
X154870029Y-70904803D01*
X154734171Y-70983240D01*
X154734168Y-70983242D01*
X154623242Y-71094168D01*
X154623240Y-71094171D01*
X154544803Y-71230029D01*
X154544803Y-71230030D01*
X154504200Y-71381561D01*
X154504200Y-71538439D01*
X154514785Y-71577941D01*
X154544803Y-71689971D01*
X154544804Y-71689972D01*
X154602266Y-71789500D01*
X154618739Y-71857401D01*
X154595886Y-71923428D01*
X154540965Y-71966618D01*
X154494879Y-71975500D01*
X151650446Y-71975500D01*
X151650426Y-71975499D01*
X151644312Y-71975499D01*
X151495688Y-71975499D01*
X151495686Y-71975499D01*
X151374105Y-71999684D01*
X151359540Y-72002581D01*
X151349918Y-72004495D01*
X151349917Y-72004495D01*
X151293045Y-72028053D01*
X151212613Y-72061368D01*
X151192178Y-72075022D01*
X151171605Y-72088769D01*
X151128808Y-72117365D01*
X151089033Y-72143941D01*
X151057277Y-72175698D01*
X150983941Y-72249034D01*
X150983939Y-72249036D01*
X141277680Y-81955293D01*
X141216357Y-81988778D01*
X141146665Y-81983794D01*
X141102318Y-81955293D01*
X139626647Y-80479621D01*
X139626624Y-80479600D01*
X138530969Y-79383943D01*
X138530968Y-79383942D01*
X138407392Y-79301372D01*
X138407391Y-79301371D01*
X138407389Y-79301370D01*
X138407386Y-79301368D01*
X138407381Y-79301366D01*
X138325971Y-79267646D01*
X138270080Y-79244495D01*
X138245894Y-79239684D01*
X138124314Y-79215499D01*
X138124312Y-79215499D01*
X137975688Y-79215499D01*
X137969574Y-79215499D01*
X137969554Y-79215500D01*
X119829571Y-79215500D01*
X119762532Y-79195815D01*
X119741890Y-79179181D01*
X119652107Y-79089398D01*
X119511299Y-78987094D01*
X119468634Y-78931763D01*
X119462655Y-78862150D01*
X119495261Y-78800355D01*
X119535373Y-78772788D01*
X119714011Y-78696291D01*
X119714012Y-78696290D01*
X119892734Y-78575327D01*
X120045327Y-78422734D01*
X120166289Y-78244013D01*
X120251239Y-78045638D01*
X120251241Y-78045632D01*
X120297110Y-77834768D01*
X120300000Y-77786270D01*
X120300000Y-77680000D01*
X119248482Y-77680000D01*
X119259111Y-77661591D01*
X119300000Y-77508991D01*
X119300000Y-77351009D01*
X119259111Y-77198409D01*
X119248482Y-77180000D01*
X120299999Y-77180000D01*
X120299999Y-77073730D01*
X120299998Y-77073727D01*
X120297110Y-77025232D01*
X120251241Y-76814367D01*
X120251239Y-76814361D01*
X120166289Y-76615986D01*
X120045327Y-76437265D01*
X119892734Y-76284672D01*
X119714013Y-76163710D01*
X119515638Y-76078760D01*
X119515632Y-76078758D01*
X119304768Y-76032889D01*
X119256271Y-76030000D01*
X118950000Y-76030000D01*
X118950000Y-76881517D01*
X118931591Y-76870889D01*
X118778991Y-76830000D01*
X118621009Y-76830000D01*
X118468409Y-76870889D01*
X118450000Y-76881517D01*
X118450000Y-76030000D01*
X118143730Y-76030000D01*
X118143727Y-76030001D01*
X118095232Y-76032889D01*
X117884367Y-76078758D01*
X117884361Y-76078760D01*
X117685986Y-76163710D01*
X117507265Y-76284672D01*
X117354672Y-76437265D01*
X117233710Y-76615986D01*
X117148760Y-76814361D01*
X117148758Y-76814367D01*
X117102889Y-77025231D01*
X117100000Y-77073729D01*
X115200500Y-77073729D01*
X115200500Y-72703461D01*
X115200597Y-72700000D01*
X115640466Y-72700000D01*
X115660579Y-72994051D01*
X115720547Y-73282637D01*
X115720548Y-73282640D01*
X115819249Y-73560357D01*
X115819248Y-73560357D01*
X115889627Y-73696181D01*
X115954852Y-73822059D01*
X116100287Y-74028094D01*
X116124829Y-74062861D01*
X116326006Y-74278268D01*
X116554632Y-74464269D01*
X116554635Y-74464271D01*
X116554639Y-74464274D01*
X116686754Y-74544615D01*
X116806475Y-74617419D01*
X117025890Y-74712723D01*
X117076816Y-74734844D01*
X117360630Y-74814365D01*
X117611151Y-74848799D01*
X117652627Y-74854500D01*
X117652628Y-74854500D01*
X117947373Y-74854500D01*
X117988849Y-74848799D01*
X118239370Y-74814365D01*
X118523184Y-74734844D01*
X118771717Y-74626891D01*
X118793524Y-74617419D01*
X118793526Y-74617418D01*
X119045361Y-74464274D01*
X119273997Y-74278265D01*
X119475175Y-74062856D01*
X119645148Y-73822059D01*
X119780749Y-73560361D01*
X119879453Y-73282635D01*
X119939420Y-72994057D01*
X119959534Y-72700000D01*
X119939420Y-72405943D01*
X119879453Y-72117365D01*
X119878564Y-72114865D01*
X119780750Y-71839642D01*
X119780751Y-71839642D01*
X119670364Y-71626606D01*
X119645148Y-71577941D01*
X119475175Y-71337144D01*
X119475171Y-71337140D01*
X119475170Y-71337138D01*
X119273993Y-71121731D01*
X119045367Y-70935730D01*
X119045356Y-70935723D01*
X118793524Y-70782580D01*
X118523185Y-70665156D01*
X118239375Y-70585636D01*
X118239371Y-70585635D01*
X118239370Y-70585635D01*
X118093371Y-70565567D01*
X117947373Y-70545500D01*
X117947372Y-70545500D01*
X117652628Y-70545500D01*
X117652627Y-70545500D01*
X117360630Y-70585635D01*
X117360624Y-70585636D01*
X117076814Y-70665156D01*
X116806475Y-70782580D01*
X116554643Y-70935723D01*
X116554632Y-70935730D01*
X116326006Y-71121731D01*
X116124829Y-71337138D01*
X115954852Y-71577940D01*
X115819249Y-71839642D01*
X115720548Y-72117359D01*
X115720547Y-72117362D01*
X115660579Y-72405948D01*
X115640466Y-72700000D01*
X115200597Y-72700000D01*
X115200695Y-72696509D01*
X115206052Y-72601119D01*
X115216454Y-72415890D01*
X115218010Y-72402082D01*
X115264507Y-72128422D01*
X115267601Y-72114867D01*
X115274329Y-72091515D01*
X115344449Y-71848123D01*
X115349041Y-71835003D01*
X115435361Y-71626606D01*
X115455268Y-71578544D01*
X115461298Y-71566025D01*
X115595574Y-71323071D01*
X115602965Y-71311308D01*
X115763604Y-71084908D01*
X115772260Y-71074054D01*
X115957244Y-70867056D01*
X115967056Y-70857244D01*
X116174054Y-70672260D01*
X116184908Y-70663604D01*
X116411308Y-70502965D01*
X116423071Y-70495574D01*
X116666038Y-70361290D01*
X116678544Y-70355268D01*
X116935003Y-70249041D01*
X116948123Y-70244449D01*
X117214868Y-70167600D01*
X117228424Y-70164507D01*
X117502091Y-70118008D01*
X117515890Y-70116454D01*
X117762075Y-70102628D01*
X117796510Y-70100695D01*
X117803462Y-70100500D01*
X177373071Y-70100500D01*
X177396519Y-70100500D01*
X177403471Y-70100695D01*
G37*
%TD.AperFunction*%
%TD*%
M02*
