%TF.GenerationSoftware,KiCad,Pcbnew,8.0.4*%
%TF.CreationDate,2025-04-28T15:50:51-04:00*%
%TF.ProjectId,BB-SPEM-A-1 Breakout,42422d53-5045-44d2-9d41-2d3120427265,rev?*%
%TF.SameCoordinates,Original*%
%TF.FileFunction,Copper,L2,Inr*%
%TF.FilePolarity,Positive*%
%FSLAX46Y46*%
G04 Gerber Fmt 4.6, Leading zero omitted, Abs format (unit mm)*
G04 Created by KiCad (PCBNEW 8.0.4) date 2025-04-28 15:50:51*
%MOMM*%
%LPD*%
G01*
G04 APERTURE LIST*
G04 Aperture macros list*
%AMRoundRect*
0 Rectangle with rounded corners*
0 $1 Rounding radius*
0 $2 $3 $4 $5 $6 $7 $8 $9 X,Y pos of 4 corners*
0 Add a 4 corners polygon primitive as box body*
4,1,4,$2,$3,$4,$5,$6,$7,$8,$9,$2,$3,0*
0 Add four circle primitives for the rounded corners*
1,1,$1+$1,$2,$3*
1,1,$1+$1,$4,$5*
1,1,$1+$1,$6,$7*
1,1,$1+$1,$8,$9*
0 Add four rect primitives between the rounded corners*
20,1,$1+$1,$2,$3,$4,$5,0*
20,1,$1+$1,$4,$5,$6,$7,0*
20,1,$1+$1,$6,$7,$8,$9,0*
20,1,$1+$1,$8,$9,$2,$3,0*%
G04 Aperture macros list end*
%TA.AperFunction,ComponentPad*%
%ADD10O,2.700000X1.000000*%
%TD*%
%TA.AperFunction,ComponentPad*%
%ADD11O,1.700000X1.000000*%
%TD*%
%TA.AperFunction,ComponentPad*%
%ADD12R,1.100000X2.200000*%
%TD*%
%TA.AperFunction,ComponentPad*%
%ADD13O,1.000000X2.700000*%
%TD*%
%TA.AperFunction,ComponentPad*%
%ADD14O,1.000000X1.700000*%
%TD*%
%TA.AperFunction,ComponentPad*%
%ADD15RoundRect,0.630000X-0.470000X0.270000X-0.470000X-0.270000X0.470000X-0.270000X0.470000X0.270000X0*%
%TD*%
%TA.AperFunction,ComponentPad*%
%ADD16O,2.200000X1.800000*%
%TD*%
%TA.AperFunction,ComponentPad*%
%ADD17RoundRect,0.630000X0.270000X0.470000X-0.270000X0.470000X-0.270000X-0.470000X0.270000X-0.470000X0*%
%TD*%
%TA.AperFunction,ComponentPad*%
%ADD18O,1.800000X2.200000*%
%TD*%
%TA.AperFunction,ComponentPad*%
%ADD19C,3.800000*%
%TD*%
%TA.AperFunction,ComponentPad*%
%ADD20R,1.458000X1.458000*%
%TD*%
%TA.AperFunction,ComponentPad*%
%ADD21C,1.458000*%
%TD*%
%TA.AperFunction,ComponentPad*%
%ADD22C,1.605000*%
%TD*%
%TA.AperFunction,ComponentPad*%
%ADD23C,2.475000*%
%TD*%
%TA.AperFunction,ComponentPad*%
%ADD24R,1.700000X1.700000*%
%TD*%
%TA.AperFunction,ComponentPad*%
%ADD25O,1.700000X1.700000*%
%TD*%
%TA.AperFunction,ViaPad*%
%ADD26C,0.500000*%
%TD*%
G04 APERTURE END LIST*
D10*
%TO.N,/3V3*%
%TO.C,J1*%
X145450000Y-87060000D03*
D11*
X145850000Y-87060000D03*
D10*
%TO.N,Net-(D1-K)*%
X145450000Y-88330000D03*
D11*
X145850000Y-88330000D03*
D10*
%TO.N,GND*%
X145450000Y-89600000D03*
D11*
X145850000Y-89600000D03*
D10*
%TO.N,/A+*%
X145450000Y-90870000D03*
D11*
X145850000Y-90870000D03*
D10*
%TO.N,/A-*%
X145450000Y-92140000D03*
D11*
X145850000Y-92140000D03*
D10*
%TO.N,/B+*%
X145450000Y-93410000D03*
D11*
X145850000Y-93410000D03*
D10*
%TO.N,/B-*%
X145450000Y-94680000D03*
D11*
X145850000Y-94680000D03*
D10*
%TO.N,/C+*%
X145450000Y-95950000D03*
D11*
X145850000Y-95950000D03*
D10*
%TO.N,/C-*%
X145450000Y-97220000D03*
D11*
X145850000Y-97220000D03*
D10*
%TO.N,/D+*%
X145450000Y-98490000D03*
D11*
X145850000Y-98490000D03*
D10*
%TO.N,/D-*%
X145450000Y-99760000D03*
D11*
X145850000Y-99760000D03*
D10*
%TO.N,GND*%
X145450000Y-101030000D03*
D11*
X145850000Y-101030000D03*
D10*
%TO.N,Net-(J1-BASE-T1_LED)*%
X145450000Y-102300000D03*
D11*
X145850000Y-102300000D03*
D12*
%TO.N,GND*%
X155470000Y-81700000D03*
%TO.N,unconnected-(J1-NC-Pad15)*%
X156740000Y-81700000D03*
%TO.N,/MCU_RST*%
X158010000Y-81700000D03*
%TO.N,/SWCLK*%
X160550000Y-81700000D03*
%TO.N,/3V3*%
X161820000Y-81700000D03*
%TO.N,/SWDIO*%
X163090000Y-81700000D03*
D13*
%TO.N,Net-(J1-UART_RX)*%
X165630000Y-82000000D03*
D14*
X165630000Y-82400000D03*
D13*
%TO.N,Net-(J1-UART_TX)*%
X166900000Y-82000000D03*
D14*
X166900000Y-82400000D03*
D13*
%TO.N,Net-(J1-SLAVE_STRAP)*%
X168170000Y-82000000D03*
D14*
X168170000Y-82400000D03*
D13*
%TO.N,GND*%
X169440000Y-82000000D03*
D14*
X169440000Y-82400000D03*
D13*
%TO.N,/SPE_TRX+*%
X170710000Y-82000000D03*
D14*
X170710000Y-82400000D03*
D13*
%TO.N,/SPE_TRX-*%
X171980000Y-82000000D03*
D14*
X171980000Y-82400000D03*
D13*
%TO.N,GND*%
X173250000Y-82000000D03*
D14*
X173250000Y-82400000D03*
%TD*%
D15*
%TO.N,GND*%
%TO.C,J2*%
X118700000Y-77430000D03*
D16*
%TO.N,/3V3*%
X118700000Y-79970000D03*
%TD*%
D17*
%TO.N,/SPE_TRX-*%
%TO.C,J3*%
X172670000Y-73700000D03*
D18*
%TO.N,/SPE_TRX+*%
X170130000Y-73700000D03*
%TD*%
D19*
%TO.N,unconnected-(H4-Pad1)*%
%TO.C,H4*%
X177400000Y-72700000D03*
%TD*%
D17*
%TO.N,Net-(J1-UART_TX)*%
%TO.C,J4*%
X165970000Y-73700000D03*
D18*
%TO.N,Net-(J1-UART_RX)*%
X163430000Y-73700000D03*
%TD*%
D20*
%TO.N,/A+*%
%TO.C,J6*%
X132350000Y-100545000D03*
D21*
%TO.N,/A-*%
X134890000Y-99275000D03*
%TO.N,/B+*%
X132350000Y-98005000D03*
%TO.N,/B-*%
X134890000Y-96735000D03*
%TO.N,Net-(J6-CT_1)*%
X132350000Y-95465000D03*
%TO.N,Net-(J6-CT_2)*%
X134890000Y-94195000D03*
%TO.N,/C+*%
X132350000Y-92925000D03*
%TO.N,/C-*%
X134890000Y-91655000D03*
%TO.N,/D+*%
X132350000Y-90385000D03*
%TO.N,/D-*%
X134890000Y-89115000D03*
D22*
%TO.N,unconnected-(J6-PadP11)*%
X123460000Y-88045000D03*
%TO.N,unconnected-(J6-PadP12)*%
X121430000Y-88045000D03*
%TO.N,unconnected-(J6-PadP13)*%
X123460000Y-101615000D03*
%TO.N,unconnected-(J6-PadP14)*%
X121430000Y-101615000D03*
D23*
%TO.N,Earth*%
X129050000Y-102580000D03*
X129050000Y-87080000D03*
%TD*%
D24*
%TO.N,Net-(J1-SLAVE_STRAP)*%
%TO.C,J5*%
X159600000Y-73125000D03*
D25*
%TO.N,GND*%
X159600000Y-75665000D03*
%TD*%
D19*
%TO.N,unconnected-(H2-Pad1)*%
%TO.C,H2*%
X117800000Y-106400000D03*
%TD*%
%TO.N,unconnected-(H3-Pad1)*%
%TO.C,H3*%
X177400000Y-106400000D03*
%TD*%
%TO.N,unconnected-(H1-Pad1)*%
%TO.C,H1*%
X117800000Y-72700000D03*
%TD*%
D26*
%TO.N,GND*%
X143300000Y-89500000D03*
X141600000Y-89700000D03*
X136700000Y-90500000D03*
X140600000Y-91400000D03*
X141500000Y-91300000D03*
X140500000Y-89800000D03*
X138700000Y-91000000D03*
X157500000Y-78500000D03*
X138900000Y-89400000D03*
%TO.N,/D+*%
X138075000Y-91300000D03*
%TO.N,/D-*%
X137325000Y-91300000D03*
%TO.N,/C-*%
X139125000Y-90100000D03*
%TO.N,/C+*%
X139875000Y-90100000D03*
%TO.N,/A+*%
X142875000Y-90100000D03*
%TO.N,/B-*%
X140825000Y-92000000D03*
%TO.N,/A-*%
X142125000Y-90100000D03*
%TO.N,/B+*%
X141575000Y-92000000D03*
%TD*%
%TA.AperFunction,Conductor*%
%TO.N,GND*%
G36*
X145869930Y-100815095D02*
G01*
X145823852Y-100894905D01*
X145800000Y-100983922D01*
X145800000Y-101076078D01*
X145823852Y-101165095D01*
X145869930Y-101244905D01*
X145905025Y-101280000D01*
X145394975Y-101280000D01*
X145430070Y-101244905D01*
X145476148Y-101165095D01*
X145500000Y-101076078D01*
X145500000Y-100983922D01*
X145476148Y-100894905D01*
X145430070Y-100815095D01*
X145394975Y-100780000D01*
X145905025Y-100780000D01*
X145869930Y-100815095D01*
G37*
%TD.AperFunction*%
%TA.AperFunction,Conductor*%
G36*
X145869930Y-89385095D02*
G01*
X145823852Y-89464905D01*
X145800000Y-89553922D01*
X145800000Y-89646078D01*
X145823852Y-89735095D01*
X145869930Y-89814905D01*
X145905025Y-89850000D01*
X145394975Y-89850000D01*
X145430070Y-89814905D01*
X145476148Y-89735095D01*
X145500000Y-89646078D01*
X145500000Y-89553922D01*
X145476148Y-89464905D01*
X145430070Y-89385095D01*
X145394975Y-89350000D01*
X145905025Y-89350000D01*
X145869930Y-89385095D01*
G37*
%TD.AperFunction*%
%TA.AperFunction,Conductor*%
G36*
X169690000Y-82455025D02*
G01*
X169654905Y-82419930D01*
X169575095Y-82373852D01*
X169486078Y-82350000D01*
X169393922Y-82350000D01*
X169304905Y-82373852D01*
X169225095Y-82419930D01*
X169190000Y-82455025D01*
X169190000Y-81944975D01*
X169225095Y-81980070D01*
X169304905Y-82026148D01*
X169393922Y-82050000D01*
X169486078Y-82050000D01*
X169575095Y-82026148D01*
X169654905Y-81980070D01*
X169690000Y-81944975D01*
X169690000Y-82455025D01*
G37*
%TD.AperFunction*%
%TA.AperFunction,Conductor*%
G36*
X177403471Y-70100695D02*
G01*
X177441470Y-70102828D01*
X177684106Y-70116454D01*
X177697909Y-70118010D01*
X177971584Y-70164509D01*
X177985123Y-70167599D01*
X178251874Y-70244449D01*
X178264993Y-70249040D01*
X178521445Y-70355265D01*
X178533967Y-70361294D01*
X178626475Y-70412422D01*
X178776921Y-70495571D01*
X178788695Y-70502969D01*
X179015079Y-70663597D01*
X179015081Y-70663598D01*
X179025952Y-70672267D01*
X179203523Y-70830955D01*
X179232931Y-70857235D01*
X179242764Y-70867068D01*
X179427731Y-71074046D01*
X179436401Y-71084918D01*
X179597030Y-71311304D01*
X179604428Y-71323078D01*
X179738701Y-71566025D01*
X179744734Y-71578554D01*
X179850959Y-71835006D01*
X179855552Y-71848130D01*
X179932397Y-72114865D01*
X179935491Y-72128422D01*
X179981988Y-72402082D01*
X179983545Y-72415900D01*
X179999305Y-72696526D01*
X179999500Y-72703479D01*
X179999500Y-106396520D01*
X179999305Y-106403473D01*
X179983545Y-106684100D01*
X179981988Y-106697918D01*
X179935491Y-106971575D01*
X179932397Y-106985132D01*
X179855550Y-107251872D01*
X179850957Y-107264996D01*
X179744733Y-107521445D01*
X179738700Y-107533974D01*
X179604427Y-107776922D01*
X179597029Y-107788696D01*
X179436401Y-108015081D01*
X179427731Y-108025953D01*
X179242764Y-108232931D01*
X179232931Y-108242764D01*
X179025947Y-108427736D01*
X179015081Y-108436400D01*
X178905202Y-108514365D01*
X178788701Y-108597027D01*
X178776927Y-108604425D01*
X178533974Y-108738701D01*
X178521445Y-108744734D01*
X178264993Y-108850959D01*
X178251869Y-108855552D01*
X177985134Y-108932397D01*
X177971577Y-108935491D01*
X177697917Y-108981988D01*
X177684099Y-108983545D01*
X177403472Y-108999305D01*
X177396519Y-108999500D01*
X117803481Y-108999500D01*
X117796528Y-108999305D01*
X117515900Y-108983545D01*
X117502082Y-108981988D01*
X117228422Y-108935491D01*
X117214865Y-108932397D01*
X116948130Y-108855552D01*
X116935006Y-108850959D01*
X116678554Y-108744734D01*
X116666025Y-108738701D01*
X116423078Y-108604428D01*
X116411304Y-108597030D01*
X116184918Y-108436401D01*
X116174046Y-108427731D01*
X116050606Y-108317418D01*
X115967066Y-108242762D01*
X115957235Y-108232931D01*
X115772268Y-108025953D01*
X115763598Y-108015081D01*
X115602969Y-107788695D01*
X115595571Y-107776921D01*
X115461298Y-107533974D01*
X115455265Y-107521445D01*
X115349040Y-107264993D01*
X115344447Y-107251869D01*
X115322734Y-107176500D01*
X115267599Y-106985123D01*
X115264508Y-106971577D01*
X115264508Y-106971575D01*
X115218010Y-106697909D01*
X115216454Y-106684106D01*
X115200695Y-106403471D01*
X115200598Y-106400000D01*
X115640466Y-106400000D01*
X115660579Y-106694051D01*
X115660579Y-106694055D01*
X115660580Y-106694057D01*
X115682922Y-106801575D01*
X115720547Y-106982637D01*
X115720548Y-106982640D01*
X115819249Y-107260357D01*
X115819248Y-107260357D01*
X115929636Y-107473394D01*
X115954852Y-107522059D01*
X116120543Y-107756790D01*
X116124829Y-107762861D01*
X116326006Y-107978268D01*
X116554632Y-108164269D01*
X116554635Y-108164271D01*
X116554639Y-108164274D01*
X116667541Y-108232931D01*
X116806475Y-108317419D01*
X117025890Y-108412723D01*
X117076816Y-108434844D01*
X117360630Y-108514365D01*
X117617342Y-108549649D01*
X117652627Y-108554500D01*
X117652628Y-108554500D01*
X117947373Y-108554500D01*
X117978853Y-108550172D01*
X118239370Y-108514365D01*
X118523184Y-108434844D01*
X118793526Y-108317418D01*
X119045361Y-108164274D01*
X119273997Y-107978265D01*
X119475175Y-107762856D01*
X119645148Y-107522059D01*
X119780749Y-107260361D01*
X119879453Y-106982635D01*
X119939420Y-106694057D01*
X119959534Y-106400000D01*
X175240466Y-106400000D01*
X175260579Y-106694051D01*
X175260579Y-106694055D01*
X175260580Y-106694057D01*
X175282922Y-106801575D01*
X175320547Y-106982637D01*
X175320548Y-106982640D01*
X175419249Y-107260357D01*
X175419248Y-107260357D01*
X175529636Y-107473394D01*
X175554852Y-107522059D01*
X175720543Y-107756790D01*
X175724829Y-107762861D01*
X175926006Y-107978268D01*
X176154632Y-108164269D01*
X176154635Y-108164271D01*
X176154639Y-108164274D01*
X176267541Y-108232931D01*
X176406475Y-108317419D01*
X176625890Y-108412723D01*
X176676816Y-108434844D01*
X176960630Y-108514365D01*
X177217342Y-108549649D01*
X177252627Y-108554500D01*
X177252628Y-108554500D01*
X177547373Y-108554500D01*
X177578853Y-108550172D01*
X177839370Y-108514365D01*
X178123184Y-108434844D01*
X178393526Y-108317418D01*
X178645361Y-108164274D01*
X178873997Y-107978265D01*
X179075175Y-107762856D01*
X179245148Y-107522059D01*
X179380749Y-107260361D01*
X179479453Y-106982635D01*
X179539420Y-106694057D01*
X179559534Y-106400000D01*
X179539420Y-106105943D01*
X179479453Y-105817365D01*
X179380750Y-105539642D01*
X179380751Y-105539642D01*
X179245147Y-105277940D01*
X179075175Y-105037144D01*
X179075171Y-105037140D01*
X179075170Y-105037138D01*
X178873993Y-104821731D01*
X178645367Y-104635730D01*
X178645356Y-104635723D01*
X178393524Y-104482580D01*
X178123185Y-104365156D01*
X177839375Y-104285636D01*
X177839371Y-104285635D01*
X177839370Y-104285635D01*
X177693371Y-104265567D01*
X177547373Y-104245500D01*
X177547372Y-104245500D01*
X177252628Y-104245500D01*
X177252627Y-104245500D01*
X176960630Y-104285635D01*
X176960624Y-104285636D01*
X176676814Y-104365156D01*
X176406475Y-104482580D01*
X176154643Y-104635723D01*
X176154632Y-104635730D01*
X175926006Y-104821731D01*
X175724829Y-105037138D01*
X175554852Y-105277940D01*
X175419249Y-105539642D01*
X175320548Y-105817359D01*
X175320547Y-105817362D01*
X175260579Y-106105948D01*
X175240466Y-106400000D01*
X119959534Y-106400000D01*
X119939420Y-106105943D01*
X119879453Y-105817365D01*
X119780750Y-105539642D01*
X119780751Y-105539642D01*
X119645147Y-105277940D01*
X119475175Y-105037144D01*
X119475171Y-105037140D01*
X119475170Y-105037138D01*
X119273993Y-104821731D01*
X119045367Y-104635730D01*
X119045356Y-104635723D01*
X118793524Y-104482580D01*
X118523185Y-104365156D01*
X118239375Y-104285636D01*
X118239371Y-104285635D01*
X118239370Y-104285635D01*
X118093371Y-104265567D01*
X117947373Y-104245500D01*
X117947372Y-104245500D01*
X117652628Y-104245500D01*
X117652627Y-104245500D01*
X117360630Y-104285635D01*
X117360624Y-104285636D01*
X117076814Y-104365156D01*
X116806475Y-104482580D01*
X116554643Y-104635723D01*
X116554632Y-104635730D01*
X116326006Y-104821731D01*
X116124829Y-105037138D01*
X115954852Y-105277940D01*
X115819249Y-105539642D01*
X115720548Y-105817359D01*
X115720547Y-105817362D01*
X115660579Y-106105948D01*
X115640466Y-106400000D01*
X115200598Y-106400000D01*
X115200500Y-106396519D01*
X115200500Y-101615000D01*
X120367886Y-101615000D01*
X120388293Y-101822208D01*
X120388294Y-101822210D01*
X120448733Y-102021448D01*
X120448735Y-102021453D01*
X120546884Y-102205079D01*
X120546886Y-102205082D01*
X120678971Y-102366028D01*
X120839917Y-102498113D01*
X120839921Y-102498116D01*
X121023547Y-102596265D01*
X121222789Y-102656705D01*
X121222791Y-102656706D01*
X121241369Y-102658535D01*
X121430000Y-102677114D01*
X121637208Y-102656706D01*
X121836453Y-102596265D01*
X122020079Y-102498116D01*
X122181028Y-102366028D01*
X122313116Y-102205079D01*
X122335642Y-102162934D01*
X122384603Y-102113091D01*
X122452740Y-102097630D01*
X122518420Y-102121461D01*
X122554357Y-102162934D01*
X122574694Y-102200983D01*
X122576885Y-102205081D01*
X122708971Y-102366028D01*
X122869917Y-102498113D01*
X122869921Y-102498116D01*
X123053547Y-102596265D01*
X123252789Y-102656705D01*
X123252791Y-102656706D01*
X123271369Y-102658535D01*
X123460000Y-102677114D01*
X123667208Y-102656706D01*
X123866453Y-102596265D01*
X123896894Y-102579994D01*
X127552887Y-102579994D01*
X127552887Y-102580005D01*
X127573305Y-102826413D01*
X127634004Y-103066110D01*
X127733327Y-103292546D01*
X127868564Y-103499543D01*
X128036035Y-103681464D01*
X128036039Y-103681467D01*
X128231148Y-103833327D01*
X128231155Y-103833331D01*
X128231157Y-103833333D01*
X128448617Y-103951016D01*
X128682480Y-104031302D01*
X128926369Y-104072000D01*
X128926370Y-104072000D01*
X129173630Y-104072000D01*
X129173631Y-104072000D01*
X129417520Y-104031302D01*
X129651383Y-103951016D01*
X129868843Y-103833333D01*
X130063967Y-103681462D01*
X130231433Y-103499546D01*
X130366672Y-103292547D01*
X130465995Y-103066112D01*
X130526694Y-102826417D01*
X130540757Y-102656705D01*
X130547113Y-102580005D01*
X130547113Y-102579994D01*
X130530069Y-102374312D01*
X130526694Y-102333583D01*
X130465995Y-102093888D01*
X130366672Y-101867453D01*
X130329198Y-101810095D01*
X130231435Y-101660456D01*
X130096366Y-101513733D01*
X130063967Y-101478538D01*
X130063966Y-101478537D01*
X130063964Y-101478535D01*
X130063960Y-101478532D01*
X129868851Y-101326672D01*
X129868840Y-101326665D01*
X129651389Y-101208987D01*
X129651386Y-101208986D01*
X129651383Y-101208984D01*
X129651377Y-101208982D01*
X129651375Y-101208981D01*
X129417522Y-101128698D01*
X129254927Y-101101566D01*
X129173631Y-101088000D01*
X128926369Y-101088000D01*
X128865396Y-101098174D01*
X128682477Y-101128698D01*
X128448624Y-101208981D01*
X128448610Y-101208987D01*
X128231159Y-101326665D01*
X128231148Y-101326672D01*
X128036039Y-101478532D01*
X128036035Y-101478535D01*
X127868564Y-101660456D01*
X127733327Y-101867453D01*
X127634004Y-102093889D01*
X127573305Y-102333586D01*
X127552887Y-102579994D01*
X123896894Y-102579994D01*
X124050079Y-102498116D01*
X124211028Y-102366028D01*
X124343116Y-102205079D01*
X124441265Y-102021453D01*
X124501706Y-101822208D01*
X124502899Y-101810094D01*
X124529057Y-101745307D01*
X124586091Y-101704946D01*
X124655891Y-101701827D01*
X124713983Y-101734564D01*
X124843330Y-101863911D01*
X124843338Y-101863918D01*
X125025382Y-102003607D01*
X125025385Y-102003608D01*
X125025388Y-102003611D01*
X125224112Y-102118344D01*
X125224117Y-102118346D01*
X125224123Y-102118349D01*
X125315480Y-102156190D01*
X125436113Y-102206158D01*
X125657762Y-102265548D01*
X125885266Y-102295500D01*
X125885273Y-102295500D01*
X126114727Y-102295500D01*
X126114734Y-102295500D01*
X126342238Y-102265548D01*
X126563887Y-102206158D01*
X126775888Y-102118344D01*
X126974612Y-102003611D01*
X127156661Y-101863919D01*
X127156665Y-101863914D01*
X127156670Y-101863911D01*
X127318911Y-101701670D01*
X127318914Y-101701665D01*
X127318919Y-101701661D01*
X127458611Y-101519612D01*
X127573344Y-101320888D01*
X127661158Y-101108887D01*
X127720548Y-100887238D01*
X127750500Y-100659734D01*
X127750500Y-100430266D01*
X127750284Y-100428629D01*
X127745532Y-100392533D01*
X127720548Y-100202762D01*
X127661158Y-99981113D01*
X127611190Y-99860480D01*
X127582381Y-99790928D01*
X131366500Y-99790928D01*
X131366500Y-101299063D01*
X131381266Y-101373301D01*
X131437515Y-101457484D01*
X131469016Y-101478532D01*
X131521699Y-101513734D01*
X131521702Y-101513734D01*
X131521703Y-101513735D01*
X131546666Y-101518700D01*
X131595933Y-101528500D01*
X133104066Y-101528499D01*
X133178301Y-101513734D01*
X133262484Y-101457484D01*
X133318734Y-101373301D01*
X133333500Y-101299067D01*
X133333499Y-99790934D01*
X133318734Y-99716699D01*
X133276299Y-99653191D01*
X133262484Y-99632515D01*
X133212019Y-99598796D01*
X133178301Y-99576266D01*
X133178299Y-99576265D01*
X133178296Y-99576264D01*
X133104069Y-99561500D01*
X131595936Y-99561500D01*
X131521698Y-99576266D01*
X131437515Y-99632515D01*
X131381266Y-99716699D01*
X131381264Y-99716703D01*
X131366500Y-99790928D01*
X127582381Y-99790928D01*
X127573349Y-99769123D01*
X127573346Y-99769117D01*
X127573344Y-99769112D01*
X127458611Y-99570388D01*
X127458608Y-99570385D01*
X127458607Y-99570382D01*
X127357764Y-99438962D01*
X127318919Y-99388339D01*
X127318918Y-99388338D01*
X127318911Y-99388330D01*
X127205581Y-99275000D01*
X133901741Y-99275000D01*
X133920729Y-99467800D01*
X133920730Y-99467802D01*
X133976968Y-99653191D01*
X134068288Y-99824040D01*
X134068291Y-99824044D01*
X134068293Y-99824047D01*
X134123690Y-99891550D01*
X134191194Y-99973805D01*
X134258698Y-100029202D01*
X134340953Y-100096707D01*
X134340956Y-100096708D01*
X134340959Y-100096711D01*
X134456477Y-100158456D01*
X134511810Y-100188032D01*
X134697197Y-100244269D01*
X134697199Y-100244270D01*
X134714485Y-100245972D01*
X134890000Y-100263259D01*
X135082800Y-100244270D01*
X135268190Y-100188032D01*
X135439047Y-100096707D01*
X135588805Y-99973805D01*
X135711707Y-99824047D01*
X135729410Y-99790928D01*
X135744310Y-99763050D01*
X135803032Y-99653190D01*
X135859270Y-99467800D01*
X135878259Y-99275000D01*
X135859270Y-99082200D01*
X135803032Y-98896810D01*
X135803031Y-98896808D01*
X135711711Y-98725959D01*
X135711708Y-98725956D01*
X135711707Y-98725953D01*
X135644202Y-98643698D01*
X135588805Y-98576194D01*
X135506550Y-98508690D01*
X135439047Y-98453293D01*
X135439044Y-98453291D01*
X135439040Y-98453288D01*
X135268191Y-98361968D01*
X135082802Y-98305730D01*
X135082800Y-98305729D01*
X134890000Y-98286741D01*
X134697199Y-98305729D01*
X134697197Y-98305730D01*
X134511808Y-98361968D01*
X134340959Y-98453288D01*
X134340953Y-98453293D01*
X134191194Y-98576194D01*
X134068293Y-98725953D01*
X134068288Y-98725959D01*
X133976968Y-98896808D01*
X133920730Y-99082197D01*
X133920729Y-99082199D01*
X133901741Y-99275000D01*
X127205581Y-99275000D01*
X127156670Y-99226089D01*
X127156661Y-99226081D01*
X126974617Y-99086392D01*
X126775890Y-98971657D01*
X126775876Y-98971650D01*
X126563887Y-98883842D01*
X126342238Y-98824452D01*
X126304215Y-98819446D01*
X126114741Y-98794500D01*
X126114734Y-98794500D01*
X125885266Y-98794500D01*
X125885258Y-98794500D01*
X125668715Y-98823009D01*
X125657762Y-98824452D01*
X125572155Y-98847390D01*
X125436112Y-98883842D01*
X125224123Y-98971650D01*
X125224109Y-98971657D01*
X125025382Y-99086392D01*
X124843338Y-99226081D01*
X124681081Y-99388338D01*
X124541392Y-99570382D01*
X124426657Y-99769109D01*
X124426650Y-99769123D01*
X124338842Y-99981112D01*
X124279453Y-100202759D01*
X124279451Y-100202770D01*
X124249500Y-100430258D01*
X124249500Y-100633368D01*
X124229815Y-100700407D01*
X124177011Y-100746162D01*
X124107853Y-100756106D01*
X124056376Y-100733429D01*
X124055147Y-100735270D01*
X124050085Y-100731887D01*
X123991189Y-100700407D01*
X123866453Y-100633735D01*
X123866450Y-100633734D01*
X123866448Y-100633733D01*
X123667210Y-100573294D01*
X123667208Y-100573293D01*
X123460000Y-100552886D01*
X123252791Y-100573293D01*
X123252789Y-100573294D01*
X123053551Y-100633733D01*
X122869917Y-100731886D01*
X122708971Y-100863971D01*
X122576886Y-101024917D01*
X122576884Y-101024921D01*
X122554357Y-101067065D01*
X122505396Y-101116908D01*
X122437259Y-101132369D01*
X122371579Y-101108538D01*
X122335642Y-101067065D01*
X122313116Y-101024921D01*
X122273365Y-100976484D01*
X122181028Y-100863971D01*
X122020082Y-100731886D01*
X122020080Y-100731885D01*
X122020079Y-100731884D01*
X121836453Y-100633735D01*
X121836450Y-100633734D01*
X121836448Y-100633733D01*
X121637210Y-100573294D01*
X121637208Y-100573293D01*
X121430000Y-100552886D01*
X121222791Y-100573293D01*
X121222789Y-100573294D01*
X121023551Y-100633733D01*
X120839917Y-100731886D01*
X120678971Y-100863971D01*
X120546886Y-101024917D01*
X120448733Y-101208551D01*
X120388294Y-101407789D01*
X120388293Y-101407791D01*
X120367886Y-101615000D01*
X115200500Y-101615000D01*
X115200500Y-98005000D01*
X131361741Y-98005000D01*
X131380729Y-98197800D01*
X131380730Y-98197802D01*
X131436968Y-98383191D01*
X131528288Y-98554040D01*
X131528291Y-98554044D01*
X131528293Y-98554047D01*
X131583690Y-98621550D01*
X131651194Y-98703805D01*
X131718698Y-98759202D01*
X131800953Y-98826707D01*
X131800956Y-98826708D01*
X131800959Y-98826711D01*
X131932106Y-98896810D01*
X131971810Y-98918032D01*
X132157197Y-98974269D01*
X132157199Y-98974270D01*
X132174485Y-98975972D01*
X132350000Y-98993259D01*
X132542800Y-98974270D01*
X132728190Y-98918032D01*
X132899047Y-98826707D01*
X133048805Y-98703805D01*
X133171707Y-98554047D01*
X133263032Y-98383190D01*
X133319270Y-98197800D01*
X133338259Y-98005000D01*
X133319270Y-97812200D01*
X133263032Y-97626810D01*
X133236617Y-97577391D01*
X133171711Y-97455959D01*
X133171708Y-97455956D01*
X133171707Y-97455953D01*
X133104202Y-97373698D01*
X133048805Y-97306194D01*
X132966550Y-97238690D01*
X132899047Y-97183293D01*
X132899044Y-97183291D01*
X132899040Y-97183288D01*
X132728191Y-97091968D01*
X132542802Y-97035730D01*
X132542800Y-97035729D01*
X132350000Y-97016741D01*
X132157199Y-97035729D01*
X132157197Y-97035730D01*
X131971808Y-97091968D01*
X131800959Y-97183288D01*
X131800953Y-97183293D01*
X131651194Y-97306194D01*
X131528293Y-97455953D01*
X131528288Y-97455959D01*
X131436968Y-97626808D01*
X131380730Y-97812197D01*
X131380729Y-97812199D01*
X131361741Y-98005000D01*
X115200500Y-98005000D01*
X115200500Y-96735000D01*
X133901741Y-96735000D01*
X133920729Y-96927800D01*
X133920730Y-96927802D01*
X133976968Y-97113191D01*
X134068288Y-97284040D01*
X134068291Y-97284044D01*
X134068293Y-97284047D01*
X134123690Y-97351550D01*
X134191194Y-97433805D01*
X134258698Y-97489202D01*
X134340953Y-97556707D01*
X134340956Y-97556708D01*
X134340959Y-97556711D01*
X134472106Y-97626810D01*
X134511810Y-97648032D01*
X134686325Y-97700971D01*
X134697197Y-97704269D01*
X134697199Y-97704270D01*
X134714485Y-97705972D01*
X134890000Y-97723259D01*
X135082800Y-97704270D01*
X135268190Y-97648032D01*
X135439047Y-97556707D01*
X135588805Y-97433805D01*
X135711707Y-97284047D01*
X135803032Y-97113190D01*
X135859270Y-96927800D01*
X135878259Y-96735000D01*
X135859270Y-96542200D01*
X135803032Y-96356810D01*
X135776617Y-96307391D01*
X135711711Y-96185959D01*
X135711708Y-96185956D01*
X135711707Y-96185953D01*
X135644202Y-96103698D01*
X135588805Y-96036194D01*
X135506550Y-95968690D01*
X135439047Y-95913293D01*
X135439044Y-95913291D01*
X135439040Y-95913288D01*
X135268191Y-95821968D01*
X135082802Y-95765730D01*
X135082800Y-95765729D01*
X134890000Y-95746741D01*
X134697199Y-95765729D01*
X134697197Y-95765730D01*
X134511808Y-95821968D01*
X134340959Y-95913288D01*
X134340953Y-95913293D01*
X134191194Y-96036194D01*
X134068293Y-96185953D01*
X134068288Y-96185959D01*
X133976968Y-96356808D01*
X133920730Y-96542197D01*
X133920729Y-96542199D01*
X133901741Y-96735000D01*
X115200500Y-96735000D01*
X115200500Y-95465000D01*
X131361741Y-95465000D01*
X131380729Y-95657800D01*
X131380730Y-95657802D01*
X131436968Y-95843191D01*
X131528288Y-96014040D01*
X131528291Y-96014044D01*
X131528293Y-96014047D01*
X131583690Y-96081550D01*
X131651194Y-96163805D01*
X131718698Y-96219202D01*
X131800953Y-96286707D01*
X131800956Y-96286708D01*
X131800959Y-96286711D01*
X131932106Y-96356810D01*
X131971810Y-96378032D01*
X132146325Y-96430971D01*
X132157197Y-96434269D01*
X132157199Y-96434270D01*
X132174485Y-96435972D01*
X132350000Y-96453259D01*
X132542800Y-96434270D01*
X132728190Y-96378032D01*
X132899047Y-96286707D01*
X133048805Y-96163805D01*
X133171707Y-96014047D01*
X133263032Y-95843190D01*
X133319270Y-95657800D01*
X133338259Y-95465000D01*
X133319270Y-95272200D01*
X133263032Y-95086810D01*
X133236617Y-95037391D01*
X133171711Y-94915959D01*
X133171708Y-94915956D01*
X133171707Y-94915953D01*
X133104202Y-94833698D01*
X133048805Y-94766194D01*
X132966550Y-94698690D01*
X132899047Y-94643293D01*
X132899044Y-94643291D01*
X132899040Y-94643288D01*
X132728191Y-94551968D01*
X132542802Y-94495730D01*
X132542800Y-94495729D01*
X132350000Y-94476741D01*
X132157199Y-94495729D01*
X132157197Y-94495730D01*
X131971808Y-94551968D01*
X131800959Y-94643288D01*
X131800953Y-94643293D01*
X131651194Y-94766194D01*
X131528293Y-94915953D01*
X131528288Y-94915959D01*
X131436968Y-95086808D01*
X131380730Y-95272197D01*
X131380729Y-95272199D01*
X131361741Y-95465000D01*
X115200500Y-95465000D01*
X115200500Y-94195000D01*
X133901741Y-94195000D01*
X133920729Y-94387800D01*
X133920730Y-94387802D01*
X133976968Y-94573191D01*
X134068288Y-94744040D01*
X134068291Y-94744044D01*
X134068293Y-94744047D01*
X134123690Y-94811550D01*
X134191194Y-94893805D01*
X134258698Y-94949202D01*
X134340953Y-95016707D01*
X134340956Y-95016708D01*
X134340959Y-95016711D01*
X134472106Y-95086810D01*
X134511810Y-95108032D01*
X134686325Y-95160971D01*
X134697197Y-95164269D01*
X134697199Y-95164270D01*
X134714485Y-95165972D01*
X134890000Y-95183259D01*
X135082800Y-95164270D01*
X135268190Y-95108032D01*
X135439047Y-95016707D01*
X135588805Y-94893805D01*
X135711707Y-94744047D01*
X135803032Y-94573190D01*
X135859270Y-94387800D01*
X135878259Y-94195000D01*
X135859270Y-94002200D01*
X135803032Y-93816810D01*
X135776617Y-93767391D01*
X135711711Y-93645959D01*
X135711708Y-93645956D01*
X135711707Y-93645953D01*
X135644202Y-93563698D01*
X135588805Y-93496194D01*
X135506550Y-93428690D01*
X135439047Y-93373293D01*
X135439044Y-93373291D01*
X135439040Y-93373288D01*
X135268191Y-93281968D01*
X135082802Y-93225730D01*
X135082800Y-93225729D01*
X134890000Y-93206741D01*
X134697199Y-93225729D01*
X134697197Y-93225730D01*
X134511808Y-93281968D01*
X134340959Y-93373288D01*
X134340953Y-93373293D01*
X134191194Y-93496194D01*
X134068293Y-93645953D01*
X134068288Y-93645959D01*
X133976968Y-93816808D01*
X133920730Y-94002197D01*
X133920729Y-94002199D01*
X133901741Y-94195000D01*
X115200500Y-94195000D01*
X115200500Y-92925000D01*
X131361741Y-92925000D01*
X131380729Y-93117800D01*
X131380730Y-93117802D01*
X131436968Y-93303191D01*
X131528288Y-93474040D01*
X131528291Y-93474044D01*
X131528293Y-93474047D01*
X131583690Y-93541550D01*
X131651194Y-93623805D01*
X131718698Y-93679202D01*
X131800953Y-93746707D01*
X131800956Y-93746708D01*
X131800959Y-93746711D01*
X131932106Y-93816810D01*
X131971810Y-93838032D01*
X132146325Y-93890971D01*
X132157197Y-93894269D01*
X132157199Y-93894270D01*
X132174485Y-93895972D01*
X132350000Y-93913259D01*
X132542800Y-93894270D01*
X132728190Y-93838032D01*
X132899047Y-93746707D01*
X133048805Y-93623805D01*
X133171707Y-93474047D01*
X133263032Y-93303190D01*
X133319270Y-93117800D01*
X133338259Y-92925000D01*
X133319270Y-92732200D01*
X133263032Y-92546810D01*
X133240417Y-92504500D01*
X133171711Y-92375959D01*
X133171708Y-92375956D01*
X133171707Y-92375953D01*
X133089314Y-92275556D01*
X133048805Y-92226194D01*
X132948157Y-92143596D01*
X132899047Y-92103293D01*
X132899044Y-92103291D01*
X132899040Y-92103288D01*
X132728191Y-92011968D01*
X132542802Y-91955730D01*
X132542800Y-91955729D01*
X132350000Y-91936741D01*
X132157199Y-91955729D01*
X132157197Y-91955730D01*
X131971808Y-92011968D01*
X131800959Y-92103288D01*
X131800953Y-92103293D01*
X131651194Y-92226194D01*
X131528293Y-92375953D01*
X131528288Y-92375959D01*
X131436968Y-92546808D01*
X131380730Y-92732197D01*
X131380729Y-92732199D01*
X131361741Y-92925000D01*
X115200500Y-92925000D01*
X115200500Y-91655000D01*
X133901741Y-91655000D01*
X133920729Y-91847800D01*
X133920730Y-91847802D01*
X133976968Y-92033191D01*
X134068288Y-92204040D01*
X134068291Y-92204044D01*
X134068293Y-92204047D01*
X134123690Y-92271550D01*
X134191194Y-92353805D01*
X134258698Y-92409202D01*
X134340953Y-92476707D01*
X134340956Y-92476708D01*
X134340959Y-92476711D01*
X134472106Y-92546810D01*
X134511810Y-92568032D01*
X134686325Y-92620971D01*
X134697197Y-92624269D01*
X134697199Y-92624270D01*
X134714485Y-92625972D01*
X134890000Y-92643259D01*
X135082800Y-92624270D01*
X135268190Y-92568032D01*
X135439047Y-92476707D01*
X135588805Y-92353805D01*
X135711707Y-92204047D01*
X135803032Y-92033190D01*
X135813100Y-92000000D01*
X140315312Y-92000000D01*
X140335957Y-92143595D01*
X140335958Y-92143599D01*
X140396222Y-92275556D01*
X140396223Y-92275558D01*
X140491225Y-92385196D01*
X140569659Y-92435602D01*
X140613269Y-92463630D01*
X140752461Y-92504499D01*
X140752463Y-92504500D01*
X140752464Y-92504500D01*
X140897537Y-92504500D01*
X140897537Y-92504499D01*
X141036729Y-92463630D01*
X141036730Y-92463630D01*
X141036732Y-92463629D01*
X141132961Y-92401785D01*
X141199999Y-92382101D01*
X141267036Y-92401784D01*
X141320506Y-92436147D01*
X141363269Y-92463630D01*
X141502461Y-92504499D01*
X141502463Y-92504500D01*
X141502464Y-92504500D01*
X141647537Y-92504500D01*
X141647537Y-92504499D01*
X141786729Y-92463630D01*
X141786730Y-92463630D01*
X141786732Y-92463629D01*
X141908775Y-92385196D01*
X142003777Y-92275558D01*
X142064042Y-92143596D01*
X142084688Y-92000000D01*
X142064042Y-91856404D01*
X142064041Y-91856400D01*
X142025220Y-91771397D01*
X142003777Y-91724442D01*
X141908775Y-91614804D01*
X141847706Y-91575557D01*
X141786730Y-91536369D01*
X141647538Y-91495500D01*
X141647536Y-91495500D01*
X141502464Y-91495500D01*
X141502461Y-91495500D01*
X141363270Y-91536369D01*
X141363269Y-91536370D01*
X141267040Y-91598213D01*
X141200000Y-91617898D01*
X141132961Y-91598213D01*
X141132960Y-91598213D01*
X141064071Y-91553941D01*
X141036732Y-91536371D01*
X141036731Y-91536370D01*
X141036730Y-91536370D01*
X141036729Y-91536369D01*
X140897538Y-91495500D01*
X140897536Y-91495500D01*
X140752464Y-91495500D01*
X140752461Y-91495500D01*
X140613270Y-91536369D01*
X140613269Y-91536369D01*
X140491226Y-91614803D01*
X140491225Y-91614803D01*
X140491225Y-91614804D01*
X140452899Y-91659035D01*
X140396223Y-91724442D01*
X140396222Y-91724443D01*
X140335958Y-91856400D01*
X140335957Y-91856404D01*
X140315312Y-92000000D01*
X135813100Y-92000000D01*
X135859270Y-91847800D01*
X135878259Y-91655000D01*
X135859270Y-91462200D01*
X135810067Y-91300000D01*
X136815312Y-91300000D01*
X136835957Y-91443595D01*
X136835958Y-91443599D01*
X136883790Y-91548334D01*
X136896223Y-91575558D01*
X136991225Y-91685196D01*
X137052294Y-91724443D01*
X137113269Y-91763630D01*
X137252461Y-91804499D01*
X137252463Y-91804500D01*
X137252464Y-91804500D01*
X137397537Y-91804500D01*
X137397537Y-91804499D01*
X137536729Y-91763630D01*
X137536730Y-91763630D01*
X137536732Y-91763629D01*
X137632961Y-91701785D01*
X137699999Y-91682101D01*
X137767036Y-91701784D01*
X137802294Y-91724443D01*
X137863269Y-91763630D01*
X138002461Y-91804499D01*
X138002463Y-91804500D01*
X138002464Y-91804500D01*
X138147537Y-91804500D01*
X138147537Y-91804499D01*
X138286729Y-91763630D01*
X138286730Y-91763630D01*
X138286732Y-91763629D01*
X138408775Y-91685196D01*
X138503777Y-91575558D01*
X138555790Y-91461666D01*
X138564041Y-91443599D01*
X138564042Y-91443595D01*
X138567820Y-91417319D01*
X138584688Y-91300000D01*
X138564042Y-91156404D01*
X138564041Y-91156400D01*
X138503777Y-91024443D01*
X138503777Y-91024442D01*
X138408775Y-90914804D01*
X138373950Y-90892423D01*
X138286730Y-90836369D01*
X138147538Y-90795500D01*
X138147536Y-90795500D01*
X138002464Y-90795500D01*
X138002461Y-90795500D01*
X137863270Y-90836369D01*
X137863269Y-90836370D01*
X137767040Y-90898213D01*
X137700000Y-90917898D01*
X137632961Y-90898213D01*
X137632960Y-90898213D01*
X137536730Y-90836370D01*
X137536729Y-90836369D01*
X137397538Y-90795500D01*
X137397536Y-90795500D01*
X137252464Y-90795500D01*
X137252461Y-90795500D01*
X137113270Y-90836369D01*
X137113269Y-90836369D01*
X136991226Y-90914803D01*
X136991225Y-90914803D01*
X136991225Y-90914804D01*
X136950000Y-90962380D01*
X136896223Y-91024442D01*
X136896222Y-91024443D01*
X136835958Y-91156400D01*
X136835957Y-91156404D01*
X136815312Y-91300000D01*
X135810067Y-91300000D01*
X135803032Y-91276810D01*
X135776617Y-91227391D01*
X135711711Y-91105959D01*
X135711708Y-91105956D01*
X135711707Y-91105953D01*
X135644202Y-91023698D01*
X135588805Y-90956194D01*
X135506550Y-90888690D01*
X135439047Y-90833293D01*
X135439044Y-90833291D01*
X135439040Y-90833288D01*
X135268191Y-90741968D01*
X135082802Y-90685730D01*
X135082800Y-90685729D01*
X134890000Y-90666741D01*
X134697199Y-90685729D01*
X134697197Y-90685730D01*
X134511808Y-90741968D01*
X134340959Y-90833288D01*
X134340953Y-90833293D01*
X134191194Y-90956194D01*
X134068293Y-91105953D01*
X134068288Y-91105959D01*
X133976968Y-91276808D01*
X133920730Y-91462197D01*
X133920729Y-91462199D01*
X133901741Y-91655000D01*
X115200500Y-91655000D01*
X115200500Y-88045000D01*
X120367886Y-88045000D01*
X120388293Y-88252208D01*
X120388294Y-88252210D01*
X120438039Y-88416194D01*
X120448735Y-88451453D01*
X120546884Y-88635079D01*
X120546886Y-88635082D01*
X120678971Y-88796028D01*
X120839916Y-88928112D01*
X120839921Y-88928116D01*
X121023547Y-89026265D01*
X121215520Y-89084500D01*
X121222789Y-89086705D01*
X121222791Y-89086706D01*
X121241369Y-89088535D01*
X121430000Y-89107114D01*
X121637208Y-89086706D01*
X121836453Y-89026265D01*
X122020079Y-88928116D01*
X122181028Y-88796028D01*
X122313116Y-88635079D01*
X122335642Y-88592934D01*
X122384603Y-88543091D01*
X122452740Y-88527630D01*
X122518420Y-88551461D01*
X122554357Y-88592934D01*
X122574694Y-88630983D01*
X122576885Y-88635081D01*
X122708971Y-88796028D01*
X122869916Y-88928112D01*
X122869921Y-88928116D01*
X123053547Y-89026265D01*
X123245520Y-89084500D01*
X123252789Y-89086705D01*
X123252791Y-89086706D01*
X123271369Y-89088535D01*
X123460000Y-89107114D01*
X123667208Y-89086706D01*
X123866453Y-89026265D01*
X124050079Y-88928116D01*
X124050081Y-88928113D01*
X124050085Y-88928112D01*
X124055147Y-88924730D01*
X124056461Y-88926696D01*
X124111110Y-88903469D01*
X124179981Y-88915240D01*
X124231554Y-88962378D01*
X124249500Y-89026631D01*
X124249500Y-89229741D01*
X124269954Y-89385095D01*
X124279452Y-89457238D01*
X124327450Y-89636370D01*
X124338842Y-89678887D01*
X124426650Y-89890876D01*
X124426657Y-89890890D01*
X124492896Y-90005620D01*
X124532185Y-90073671D01*
X124541392Y-90089617D01*
X124681081Y-90271661D01*
X124681089Y-90271670D01*
X124843330Y-90433911D01*
X124843338Y-90433918D01*
X125025382Y-90573607D01*
X125025385Y-90573608D01*
X125025388Y-90573611D01*
X125224112Y-90688344D01*
X125224117Y-90688346D01*
X125224123Y-90688349D01*
X125315480Y-90726190D01*
X125436113Y-90776158D01*
X125657762Y-90835548D01*
X125885266Y-90865500D01*
X125885273Y-90865500D01*
X126114727Y-90865500D01*
X126114734Y-90865500D01*
X126342238Y-90835548D01*
X126563887Y-90776158D01*
X126775888Y-90688344D01*
X126974612Y-90573611D01*
X127156661Y-90433919D01*
X127156665Y-90433914D01*
X127156670Y-90433911D01*
X127205581Y-90385000D01*
X131361741Y-90385000D01*
X131380729Y-90577800D01*
X131380730Y-90577802D01*
X131436968Y-90763191D01*
X131528288Y-90934040D01*
X131528291Y-90934044D01*
X131528293Y-90934047D01*
X131583690Y-91001550D01*
X131651194Y-91083805D01*
X131718698Y-91139202D01*
X131800953Y-91206707D01*
X131800956Y-91206708D01*
X131800959Y-91206711D01*
X131932106Y-91276810D01*
X131971810Y-91298032D01*
X132146325Y-91350971D01*
X132157197Y-91354269D01*
X132157199Y-91354270D01*
X132174485Y-91355972D01*
X132350000Y-91373259D01*
X132542800Y-91354270D01*
X132728190Y-91298032D01*
X132899047Y-91206707D01*
X133048805Y-91083805D01*
X133171707Y-90934047D01*
X133263032Y-90763190D01*
X133319270Y-90577800D01*
X133338259Y-90385000D01*
X133319270Y-90192200D01*
X133263032Y-90006810D01*
X133263031Y-90006808D01*
X133171711Y-89835959D01*
X133171708Y-89835956D01*
X133171707Y-89835953D01*
X133058668Y-89698213D01*
X133048805Y-89686194D01*
X132966550Y-89618690D01*
X132899047Y-89563293D01*
X132899044Y-89563291D01*
X132899040Y-89563288D01*
X132728191Y-89471968D01*
X132542802Y-89415730D01*
X132542800Y-89415729D01*
X132350000Y-89396741D01*
X132157199Y-89415729D01*
X132157197Y-89415730D01*
X131971808Y-89471968D01*
X131800959Y-89563288D01*
X131800953Y-89563293D01*
X131651194Y-89686194D01*
X131528293Y-89835953D01*
X131528288Y-89835959D01*
X131436968Y-90006808D01*
X131380730Y-90192197D01*
X131380729Y-90192199D01*
X131361741Y-90385000D01*
X127205581Y-90385000D01*
X127318911Y-90271670D01*
X127318914Y-90271665D01*
X127318919Y-90271661D01*
X127458611Y-90089612D01*
X127573344Y-89890888D01*
X127661158Y-89678887D01*
X127720548Y-89457238D01*
X127750500Y-89229734D01*
X127750500Y-89115000D01*
X133901741Y-89115000D01*
X133920729Y-89307800D01*
X133920730Y-89307802D01*
X133976968Y-89493191D01*
X134068288Y-89664040D01*
X134068291Y-89664044D01*
X134068293Y-89664047D01*
X134096332Y-89698213D01*
X134191194Y-89813805D01*
X134235299Y-89850000D01*
X134340953Y-89936707D01*
X134340956Y-89936708D01*
X134340959Y-89936711D01*
X134472106Y-90006810D01*
X134511810Y-90028032D01*
X134662303Y-90073684D01*
X134697197Y-90084269D01*
X134697199Y-90084270D01*
X134714485Y-90085972D01*
X134890000Y-90103259D01*
X134923089Y-90100000D01*
X138615312Y-90100000D01*
X138635957Y-90243595D01*
X138635958Y-90243599D01*
X138696222Y-90375556D01*
X138696223Y-90375558D01*
X138791225Y-90485196D01*
X138833877Y-90512607D01*
X138913269Y-90563630D01*
X139052461Y-90604499D01*
X139052463Y-90604500D01*
X139052464Y-90604500D01*
X139197537Y-90604500D01*
X139197537Y-90604499D01*
X139336729Y-90563630D01*
X139336730Y-90563630D01*
X139416121Y-90512608D01*
X139432961Y-90501785D01*
X139499999Y-90482101D01*
X139567036Y-90501784D01*
X139583877Y-90512607D01*
X139663269Y-90563630D01*
X139802461Y-90604499D01*
X139802463Y-90604500D01*
X139802464Y-90604500D01*
X139947537Y-90604500D01*
X139947537Y-90604499D01*
X140086729Y-90563630D01*
X140086730Y-90563630D01*
X140086732Y-90563629D01*
X140208775Y-90485196D01*
X140303777Y-90375558D01*
X140364042Y-90243596D01*
X140384688Y-90100000D01*
X141615312Y-90100000D01*
X141635957Y-90243595D01*
X141635958Y-90243599D01*
X141696222Y-90375556D01*
X141696223Y-90375558D01*
X141791225Y-90485196D01*
X141833877Y-90512607D01*
X141913269Y-90563630D01*
X142052461Y-90604499D01*
X142052463Y-90604500D01*
X142052464Y-90604500D01*
X142197537Y-90604500D01*
X142197537Y-90604499D01*
X142336729Y-90563630D01*
X142336730Y-90563630D01*
X142416121Y-90512608D01*
X142432961Y-90501785D01*
X142499999Y-90482101D01*
X142567036Y-90501784D01*
X142583877Y-90512607D01*
X142663269Y-90563630D01*
X142802461Y-90604499D01*
X142802463Y-90604500D01*
X142802464Y-90604500D01*
X142947537Y-90604500D01*
X142947537Y-90604499D01*
X143086729Y-90563630D01*
X143086730Y-90563630D01*
X143086732Y-90563629D01*
X143208775Y-90485196D01*
X143303777Y-90375558D01*
X143364042Y-90243596D01*
X143384688Y-90100000D01*
X143364042Y-89956404D01*
X143364041Y-89956400D01*
X143315449Y-89850000D01*
X143303777Y-89824442D01*
X143208775Y-89714804D01*
X143164259Y-89686195D01*
X143086730Y-89636369D01*
X142947538Y-89595500D01*
X142947536Y-89595500D01*
X142802464Y-89595500D01*
X142802461Y-89595500D01*
X142663270Y-89636369D01*
X142663269Y-89636370D01*
X142567040Y-89698213D01*
X142500000Y-89717898D01*
X142432961Y-89698213D01*
X142432960Y-89698213D01*
X142336730Y-89636370D01*
X142336729Y-89636369D01*
X142197538Y-89595500D01*
X142197536Y-89595500D01*
X142052464Y-89595500D01*
X142052461Y-89595500D01*
X141913270Y-89636369D01*
X141913269Y-89636369D01*
X141791226Y-89714803D01*
X141696223Y-89824442D01*
X141696222Y-89824443D01*
X141635958Y-89956400D01*
X141635957Y-89956404D01*
X141615312Y-90100000D01*
X140384688Y-90100000D01*
X140364042Y-89956404D01*
X140364041Y-89956400D01*
X140315449Y-89850000D01*
X140303777Y-89824442D01*
X140208775Y-89714804D01*
X140164259Y-89686195D01*
X140086730Y-89636369D01*
X139947538Y-89595500D01*
X139947536Y-89595500D01*
X139802464Y-89595500D01*
X139802461Y-89595500D01*
X139663270Y-89636369D01*
X139663269Y-89636370D01*
X139567040Y-89698213D01*
X139500000Y-89717898D01*
X139432961Y-89698213D01*
X139432960Y-89698213D01*
X139336730Y-89636370D01*
X139336729Y-89636369D01*
X139197538Y-89595500D01*
X139197536Y-89595500D01*
X139052464Y-89595500D01*
X139052461Y-89595500D01*
X138913270Y-89636369D01*
X138913269Y-89636369D01*
X138791226Y-89714803D01*
X138696223Y-89824442D01*
X138696222Y-89824443D01*
X138635958Y-89956400D01*
X138635957Y-89956404D01*
X138615312Y-90100000D01*
X134923089Y-90100000D01*
X135082800Y-90084270D01*
X135268190Y-90028032D01*
X135439047Y-89936707D01*
X135588805Y-89813805D01*
X135711707Y-89664047D01*
X135803032Y-89493190D01*
X135846469Y-89350000D01*
X143630138Y-89350000D01*
X144905025Y-89350000D01*
X144869930Y-89385095D01*
X144823852Y-89464905D01*
X144800000Y-89553922D01*
X144800000Y-89646078D01*
X144823852Y-89735095D01*
X144869930Y-89814905D01*
X144905025Y-89850000D01*
X143630138Y-89850000D01*
X143638430Y-89891690D01*
X143638430Y-89891692D01*
X143713807Y-90073671D01*
X143713814Y-90073684D01*
X143823248Y-90237462D01*
X143823251Y-90237466D01*
X143926313Y-90340528D01*
X143959798Y-90401851D01*
X143954814Y-90471543D01*
X143941735Y-90497098D01*
X143931371Y-90512608D01*
X143874495Y-90649919D01*
X143874493Y-90649927D01*
X143845500Y-90795683D01*
X143845500Y-90944316D01*
X143874493Y-91090072D01*
X143874495Y-91090080D01*
X143931371Y-91227391D01*
X144013939Y-91350964D01*
X144013945Y-91350971D01*
X144080293Y-91417319D01*
X144113778Y-91478642D01*
X144108794Y-91548334D01*
X144080293Y-91592681D01*
X144013945Y-91659028D01*
X144013939Y-91659035D01*
X143931371Y-91782608D01*
X143874495Y-91919919D01*
X143874493Y-91919927D01*
X143845500Y-92065683D01*
X143845500Y-92214316D01*
X143874493Y-92360072D01*
X143874495Y-92360080D01*
X143931371Y-92497391D01*
X144013939Y-92620964D01*
X144013945Y-92620971D01*
X144080293Y-92687319D01*
X144113778Y-92748642D01*
X144108794Y-92818334D01*
X144080293Y-92862681D01*
X144013945Y-92929028D01*
X144013939Y-92929035D01*
X143931371Y-93052608D01*
X143874495Y-93189919D01*
X143874493Y-93189927D01*
X143845500Y-93335683D01*
X143845500Y-93484316D01*
X143874493Y-93630072D01*
X143874495Y-93630080D01*
X143931371Y-93767391D01*
X144013939Y-93890964D01*
X144013945Y-93890971D01*
X144080293Y-93957319D01*
X144113778Y-94018642D01*
X144108794Y-94088334D01*
X144080293Y-94132681D01*
X144013945Y-94199028D01*
X144013939Y-94199035D01*
X143931371Y-94322608D01*
X143874495Y-94459919D01*
X143874493Y-94459927D01*
X143845500Y-94605683D01*
X143845500Y-94754316D01*
X143874493Y-94900072D01*
X143874495Y-94900080D01*
X143931371Y-95037391D01*
X144013939Y-95160964D01*
X144013945Y-95160971D01*
X144080293Y-95227319D01*
X144113778Y-95288642D01*
X144108794Y-95358334D01*
X144080293Y-95402681D01*
X144013945Y-95469028D01*
X144013939Y-95469035D01*
X143931371Y-95592608D01*
X143874495Y-95729919D01*
X143874493Y-95729927D01*
X143845500Y-95875683D01*
X143845500Y-96024316D01*
X143874493Y-96170072D01*
X143874495Y-96170080D01*
X143931371Y-96307391D01*
X144013939Y-96430964D01*
X144013945Y-96430971D01*
X144080293Y-96497319D01*
X144113778Y-96558642D01*
X144108794Y-96628334D01*
X144080293Y-96672681D01*
X144013945Y-96739028D01*
X144013939Y-96739035D01*
X143931371Y-96862608D01*
X143874495Y-96999919D01*
X143874493Y-96999927D01*
X143845500Y-97145683D01*
X143845500Y-97294316D01*
X143874493Y-97440072D01*
X143874495Y-97440080D01*
X143931371Y-97577391D01*
X144013939Y-97700964D01*
X144013945Y-97700971D01*
X144080293Y-97767319D01*
X144113778Y-97828642D01*
X144108794Y-97898334D01*
X144080293Y-97942681D01*
X144013945Y-98009028D01*
X144013939Y-98009035D01*
X143931371Y-98132608D01*
X143874495Y-98269919D01*
X143874493Y-98269927D01*
X143845500Y-98415683D01*
X143845500Y-98564316D01*
X143874493Y-98710072D01*
X143874495Y-98710080D01*
X143931371Y-98847391D01*
X144013939Y-98970964D01*
X144013945Y-98970971D01*
X144080293Y-99037319D01*
X144113778Y-99098642D01*
X144108794Y-99168334D01*
X144080293Y-99212681D01*
X144013945Y-99279028D01*
X144013939Y-99279035D01*
X143931371Y-99402608D01*
X143874495Y-99539919D01*
X143874493Y-99539927D01*
X143845500Y-99685683D01*
X143845500Y-99834316D01*
X143874493Y-99980072D01*
X143874495Y-99980080D01*
X143931371Y-100117391D01*
X143941735Y-100132902D01*
X143962612Y-100199580D01*
X143944126Y-100266959D01*
X143926313Y-100289472D01*
X143823251Y-100392533D01*
X143823248Y-100392537D01*
X143713814Y-100556315D01*
X143713807Y-100556328D01*
X143638430Y-100738307D01*
X143638430Y-100738309D01*
X143630138Y-100780000D01*
X144905025Y-100780000D01*
X144869930Y-100815095D01*
X144823852Y-100894905D01*
X144800000Y-100983922D01*
X144800000Y-101076078D01*
X144823852Y-101165095D01*
X144869930Y-101244905D01*
X144905025Y-101280000D01*
X143630138Y-101280000D01*
X143638430Y-101321690D01*
X143638430Y-101321692D01*
X143713807Y-101503671D01*
X143713814Y-101503684D01*
X143823248Y-101667462D01*
X143823251Y-101667466D01*
X143926313Y-101770528D01*
X143959798Y-101831851D01*
X143954814Y-101901543D01*
X143941735Y-101927098D01*
X143931371Y-101942608D01*
X143874495Y-102079919D01*
X143874493Y-102079927D01*
X143845500Y-102225683D01*
X143845500Y-102374316D01*
X143874493Y-102520072D01*
X143874495Y-102520080D01*
X143931371Y-102657391D01*
X144013939Y-102780964D01*
X144013945Y-102780971D01*
X144119028Y-102886054D01*
X144119035Y-102886060D01*
X144242608Y-102968628D01*
X144242609Y-102968628D01*
X144242610Y-102968629D01*
X144379920Y-103025505D01*
X144525683Y-103054499D01*
X144525687Y-103054500D01*
X144525688Y-103054500D01*
X146374313Y-103054500D01*
X146374314Y-103054499D01*
X146520080Y-103025505D01*
X146657390Y-102968629D01*
X146780966Y-102886059D01*
X146886059Y-102780966D01*
X146968629Y-102657390D01*
X147025505Y-102520080D01*
X147054500Y-102374312D01*
X147054500Y-102225688D01*
X147025505Y-102079920D01*
X146968629Y-101942610D01*
X146968628Y-101942608D01*
X146968628Y-101942607D01*
X146958265Y-101927098D01*
X146937387Y-101860421D01*
X146955872Y-101793041D01*
X146973687Y-101770526D01*
X147076748Y-101667466D01*
X147076751Y-101667462D01*
X147186185Y-101503684D01*
X147186192Y-101503671D01*
X147261569Y-101321692D01*
X147261569Y-101321690D01*
X147269862Y-101280000D01*
X146394975Y-101280000D01*
X146430070Y-101244905D01*
X146476148Y-101165095D01*
X146500000Y-101076078D01*
X146500000Y-100983922D01*
X146476148Y-100894905D01*
X146430070Y-100815095D01*
X146394975Y-100780000D01*
X147269862Y-100780000D01*
X147261569Y-100738309D01*
X147261569Y-100738307D01*
X147186192Y-100556328D01*
X147186185Y-100556315D01*
X147076751Y-100392537D01*
X147076748Y-100392533D01*
X146973686Y-100289471D01*
X146940201Y-100228148D01*
X146945185Y-100158456D01*
X146958264Y-100132901D01*
X146968629Y-100117390D01*
X147025505Y-99980080D01*
X147054500Y-99834312D01*
X147054500Y-99685688D01*
X147025505Y-99539920D01*
X146968629Y-99402610D01*
X146886059Y-99279034D01*
X146886054Y-99279028D01*
X146819707Y-99212681D01*
X146786222Y-99151358D01*
X146791206Y-99081666D01*
X146819707Y-99037319D01*
X146886054Y-98970971D01*
X146886059Y-98970966D01*
X146968629Y-98847390D01*
X147025505Y-98710080D01*
X147054500Y-98564312D01*
X147054500Y-98415688D01*
X147025505Y-98269920D01*
X146968629Y-98132610D01*
X146886059Y-98009034D01*
X146886054Y-98009028D01*
X146819707Y-97942681D01*
X146786222Y-97881358D01*
X146791206Y-97811666D01*
X146819707Y-97767319D01*
X146886054Y-97700971D01*
X146886059Y-97700966D01*
X146968629Y-97577390D01*
X147025505Y-97440080D01*
X147054500Y-97294312D01*
X147054500Y-97145688D01*
X147025505Y-96999920D01*
X146968629Y-96862610D01*
X146886059Y-96739034D01*
X146886054Y-96739028D01*
X146819707Y-96672681D01*
X146786222Y-96611358D01*
X146791206Y-96541666D01*
X146819707Y-96497319D01*
X146886054Y-96430971D01*
X146886059Y-96430966D01*
X146968629Y-96307390D01*
X147025505Y-96170080D01*
X147054500Y-96024312D01*
X147054500Y-95875688D01*
X147025505Y-95729920D01*
X146968629Y-95592610D01*
X146886059Y-95469034D01*
X146886054Y-95469028D01*
X146819707Y-95402681D01*
X146786222Y-95341358D01*
X146791206Y-95271666D01*
X146819707Y-95227319D01*
X146886054Y-95160971D01*
X146886059Y-95160966D01*
X146968629Y-95037390D01*
X147025505Y-94900080D01*
X147054500Y-94754312D01*
X147054500Y-94605688D01*
X147025505Y-94459920D01*
X146968629Y-94322610D01*
X146886059Y-94199034D01*
X146886054Y-94199028D01*
X146819707Y-94132681D01*
X146786222Y-94071358D01*
X146791206Y-94001666D01*
X146819707Y-93957319D01*
X146886054Y-93890971D01*
X146886059Y-93890966D01*
X146968629Y-93767390D01*
X147025505Y-93630080D01*
X147054500Y-93484312D01*
X147054500Y-93335688D01*
X147025505Y-93189920D01*
X146968629Y-93052610D01*
X146886059Y-92929034D01*
X146886054Y-92929028D01*
X146819707Y-92862681D01*
X146786222Y-92801358D01*
X146791206Y-92731666D01*
X146819707Y-92687319D01*
X146886054Y-92620971D01*
X146886059Y-92620966D01*
X146968629Y-92497390D01*
X147025505Y-92360080D01*
X147054500Y-92214312D01*
X147054500Y-92065688D01*
X147025505Y-91919920D01*
X146968629Y-91782610D01*
X146955946Y-91763629D01*
X146886060Y-91659035D01*
X146886054Y-91659028D01*
X146819707Y-91592681D01*
X146786222Y-91531358D01*
X146791206Y-91461666D01*
X146819707Y-91417319D01*
X146886054Y-91350971D01*
X146886059Y-91350966D01*
X146968629Y-91227390D01*
X147025505Y-91090080D01*
X147054500Y-90944312D01*
X147054500Y-90795688D01*
X147025505Y-90649920D01*
X146968629Y-90512610D01*
X146968628Y-90512608D01*
X146968628Y-90512607D01*
X146958265Y-90497098D01*
X146937387Y-90430421D01*
X146955872Y-90363041D01*
X146973687Y-90340526D01*
X147076748Y-90237466D01*
X147076751Y-90237462D01*
X147186185Y-90073684D01*
X147186192Y-90073671D01*
X147261569Y-89891692D01*
X147261569Y-89891690D01*
X147269862Y-89850000D01*
X146394975Y-89850000D01*
X146430070Y-89814905D01*
X146476148Y-89735095D01*
X146500000Y-89646078D01*
X146500000Y-89553922D01*
X146476148Y-89464905D01*
X146430070Y-89385095D01*
X146394975Y-89350000D01*
X147269862Y-89350000D01*
X147261569Y-89308309D01*
X147261569Y-89308307D01*
X147186192Y-89126328D01*
X147186185Y-89126315D01*
X147076751Y-88962537D01*
X147076748Y-88962533D01*
X146973686Y-88859471D01*
X146940201Y-88798148D01*
X146945185Y-88728456D01*
X146958264Y-88702901D01*
X146968629Y-88687390D01*
X147025505Y-88550080D01*
X147054500Y-88404312D01*
X147054500Y-88255688D01*
X147025505Y-88109920D01*
X146968629Y-87972610D01*
X146886059Y-87849034D01*
X146886054Y-87849028D01*
X146819707Y-87782681D01*
X146786222Y-87721358D01*
X146791206Y-87651666D01*
X146819707Y-87607319D01*
X146886054Y-87540971D01*
X146886059Y-87540966D01*
X146968629Y-87417390D01*
X147025505Y-87280080D01*
X147054500Y-87134312D01*
X147054500Y-86985688D01*
X147025505Y-86839920D01*
X146968629Y-86702610D01*
X146886059Y-86579034D01*
X146886054Y-86579028D01*
X146780971Y-86473945D01*
X146780964Y-86473939D01*
X146657391Y-86391371D01*
X146520080Y-86334495D01*
X146520072Y-86334493D01*
X146374316Y-86305500D01*
X146374312Y-86305500D01*
X144525688Y-86305500D01*
X144525683Y-86305500D01*
X144379927Y-86334493D01*
X144379919Y-86334495D01*
X144242608Y-86391371D01*
X144119035Y-86473939D01*
X144119028Y-86473945D01*
X144013945Y-86579028D01*
X144013939Y-86579035D01*
X143931371Y-86702608D01*
X143874495Y-86839919D01*
X143874493Y-86839927D01*
X143845500Y-86985683D01*
X143845500Y-87134316D01*
X143874493Y-87280072D01*
X143874495Y-87280080D01*
X143931371Y-87417391D01*
X144013939Y-87540964D01*
X144013945Y-87540971D01*
X144080293Y-87607319D01*
X144113778Y-87668642D01*
X144108794Y-87738334D01*
X144080293Y-87782681D01*
X144013945Y-87849028D01*
X144013939Y-87849035D01*
X143931371Y-87972608D01*
X143874495Y-88109919D01*
X143874493Y-88109927D01*
X143845500Y-88255683D01*
X143845500Y-88404316D01*
X143874493Y-88550072D01*
X143874495Y-88550080D01*
X143931371Y-88687391D01*
X143941735Y-88702902D01*
X143962612Y-88769580D01*
X143944126Y-88836959D01*
X143926313Y-88859472D01*
X143823251Y-88962533D01*
X143823248Y-88962537D01*
X143713814Y-89126315D01*
X143713807Y-89126328D01*
X143638430Y-89308307D01*
X143638430Y-89308309D01*
X143630138Y-89350000D01*
X135846469Y-89350000D01*
X135859270Y-89307800D01*
X135878259Y-89115000D01*
X135859270Y-88922200D01*
X135803032Y-88736810D01*
X135776617Y-88687391D01*
X135711711Y-88565959D01*
X135711708Y-88565956D01*
X135711707Y-88565953D01*
X135644202Y-88483698D01*
X135588805Y-88416194D01*
X135506550Y-88348690D01*
X135439047Y-88293293D01*
X135439044Y-88293291D01*
X135439040Y-88293288D01*
X135268191Y-88201968D01*
X135082802Y-88145730D01*
X135082800Y-88145729D01*
X134890000Y-88126741D01*
X134697199Y-88145729D01*
X134697197Y-88145730D01*
X134511808Y-88201968D01*
X134340959Y-88293288D01*
X134340953Y-88293293D01*
X134191194Y-88416194D01*
X134068293Y-88565953D01*
X134068288Y-88565959D01*
X133976968Y-88736808D01*
X133920730Y-88922197D01*
X133920729Y-88922199D01*
X133901741Y-89115000D01*
X127750500Y-89115000D01*
X127750500Y-89000266D01*
X127750284Y-88998629D01*
X127741001Y-88928116D01*
X127720548Y-88772762D01*
X127661158Y-88551113D01*
X127605273Y-88416194D01*
X127573349Y-88339123D01*
X127573346Y-88339117D01*
X127573344Y-88339112D01*
X127458611Y-88140388D01*
X127458608Y-88140385D01*
X127458607Y-88140382D01*
X127350536Y-87999543D01*
X127318919Y-87958339D01*
X127318918Y-87958338D01*
X127318911Y-87958330D01*
X127156670Y-87796089D01*
X127156661Y-87796081D01*
X126974617Y-87656392D01*
X126943715Y-87638551D01*
X126775888Y-87541656D01*
X126775876Y-87541650D01*
X126563887Y-87453842D01*
X126342238Y-87394452D01*
X126304215Y-87389446D01*
X126114741Y-87364500D01*
X126114734Y-87364500D01*
X125885266Y-87364500D01*
X125885258Y-87364500D01*
X125668715Y-87393009D01*
X125657762Y-87394452D01*
X125572155Y-87417390D01*
X125436112Y-87453842D01*
X125224123Y-87541650D01*
X125224109Y-87541657D01*
X125025382Y-87656392D01*
X124843338Y-87796081D01*
X124713983Y-87925436D01*
X124652660Y-87958920D01*
X124582968Y-87953936D01*
X124527035Y-87912064D01*
X124502899Y-87849905D01*
X124501706Y-87837792D01*
X124501705Y-87837789D01*
X124446677Y-87656389D01*
X124441265Y-87638547D01*
X124343116Y-87454921D01*
X124343113Y-87454917D01*
X124211028Y-87293971D01*
X124050082Y-87161886D01*
X124050080Y-87161885D01*
X124050079Y-87161884D01*
X123896872Y-87079994D01*
X127552887Y-87079994D01*
X127552887Y-87080005D01*
X127573305Y-87326413D01*
X127634004Y-87566110D01*
X127733327Y-87792546D01*
X127868564Y-87999543D01*
X128036035Y-88181464D01*
X128036039Y-88181467D01*
X128231148Y-88333327D01*
X128231155Y-88333331D01*
X128231157Y-88333333D01*
X128448617Y-88451016D01*
X128682480Y-88531302D01*
X128926369Y-88572000D01*
X128926370Y-88572000D01*
X129173630Y-88572000D01*
X129173631Y-88572000D01*
X129417520Y-88531302D01*
X129651383Y-88451016D01*
X129868843Y-88333333D01*
X130063967Y-88181462D01*
X130231433Y-87999546D01*
X130366672Y-87792547D01*
X130465995Y-87566112D01*
X130526694Y-87326417D01*
X130542612Y-87134316D01*
X130547113Y-87080005D01*
X130547113Y-87079994D01*
X130533500Y-86915722D01*
X130526694Y-86833583D01*
X130465995Y-86593888D01*
X130366672Y-86367453D01*
X130231435Y-86160456D01*
X130063964Y-85978535D01*
X130063960Y-85978532D01*
X129868851Y-85826672D01*
X129868840Y-85826665D01*
X129651389Y-85708987D01*
X129651386Y-85708986D01*
X129651383Y-85708984D01*
X129651377Y-85708982D01*
X129651375Y-85708981D01*
X129417522Y-85628698D01*
X129254927Y-85601566D01*
X129173631Y-85588000D01*
X128926369Y-85588000D01*
X128865396Y-85598174D01*
X128682477Y-85628698D01*
X128448624Y-85708981D01*
X128448610Y-85708987D01*
X128231159Y-85826665D01*
X128231148Y-85826672D01*
X128036039Y-85978532D01*
X128036035Y-85978535D01*
X127868564Y-86160456D01*
X127733327Y-86367453D01*
X127634004Y-86593889D01*
X127573305Y-86833586D01*
X127552887Y-87079994D01*
X123896872Y-87079994D01*
X123866453Y-87063735D01*
X123866450Y-87063734D01*
X123866448Y-87063733D01*
X123667210Y-87003294D01*
X123667208Y-87003293D01*
X123460000Y-86982886D01*
X123252791Y-87003293D01*
X123252789Y-87003294D01*
X123053551Y-87063733D01*
X122869917Y-87161886D01*
X122708971Y-87293971D01*
X122576886Y-87454917D01*
X122576884Y-87454921D01*
X122554357Y-87497065D01*
X122505396Y-87546908D01*
X122437259Y-87562369D01*
X122371579Y-87538538D01*
X122335642Y-87497065D01*
X122313116Y-87454921D01*
X122313113Y-87454917D01*
X122181028Y-87293971D01*
X122020082Y-87161886D01*
X122020080Y-87161885D01*
X122020079Y-87161884D01*
X121836453Y-87063735D01*
X121836450Y-87063734D01*
X121836448Y-87063733D01*
X121637210Y-87003294D01*
X121637208Y-87003293D01*
X121430000Y-86982886D01*
X121222791Y-87003293D01*
X121222789Y-87003294D01*
X121023551Y-87063733D01*
X120839917Y-87161886D01*
X120678971Y-87293971D01*
X120546886Y-87454917D01*
X120448733Y-87638551D01*
X120388294Y-87837789D01*
X120388293Y-87837791D01*
X120367886Y-88045000D01*
X115200500Y-88045000D01*
X115200500Y-81620943D01*
X153599500Y-81620943D01*
X153599500Y-81779057D01*
X153635901Y-81914905D01*
X153640423Y-81931783D01*
X153640426Y-81931790D01*
X153719475Y-82068709D01*
X153719479Y-82068714D01*
X153719480Y-82068716D01*
X153831284Y-82180520D01*
X153831286Y-82180521D01*
X153831290Y-82180524D01*
X153968209Y-82259573D01*
X153968216Y-82259577D01*
X154120943Y-82300500D01*
X154120945Y-82300500D01*
X154279051Y-82300500D01*
X154279057Y-82300500D01*
X154279062Y-82300498D01*
X154279810Y-82300400D01*
X154280451Y-82300500D01*
X154287184Y-82300500D01*
X154287184Y-82301549D01*
X154348846Y-82311164D01*
X154401103Y-82357541D01*
X154420000Y-82423339D01*
X154420000Y-82847844D01*
X154426401Y-82907372D01*
X154426403Y-82907379D01*
X154476645Y-83042086D01*
X154476649Y-83042093D01*
X154562809Y-83157187D01*
X154562812Y-83157190D01*
X154677906Y-83243350D01*
X154677913Y-83243354D01*
X154812620Y-83293596D01*
X154812627Y-83293598D01*
X154872155Y-83299999D01*
X154872172Y-83300000D01*
X155220000Y-83300000D01*
X155220000Y-82022757D01*
X155221324Y-82024081D01*
X155313676Y-82077400D01*
X155416681Y-82105000D01*
X155523319Y-82105000D01*
X155626324Y-82077400D01*
X155718676Y-82024081D01*
X155720000Y-82022757D01*
X155720000Y-83300000D01*
X156067828Y-83300000D01*
X156067844Y-83299999D01*
X156127372Y-83293598D01*
X156127379Y-83293596D01*
X156262086Y-83243354D01*
X156262088Y-83243352D01*
X156377186Y-83157190D01*
X156377187Y-83157189D01*
X156416865Y-83104188D01*
X156472799Y-83062317D01*
X156516128Y-83054499D01*
X157315066Y-83054499D01*
X157315067Y-83054499D01*
X157315068Y-83054498D01*
X157337685Y-83050000D01*
X157350808Y-83047390D01*
X157399190Y-83047390D01*
X157434933Y-83054500D01*
X158525500Y-83054499D01*
X158592539Y-83074184D01*
X158638294Y-83126987D01*
X158649500Y-83178499D01*
X158649500Y-83262103D01*
X158673727Y-83383902D01*
X158673730Y-83383912D01*
X158721256Y-83498650D01*
X158721261Y-83498660D01*
X158790257Y-83601919D01*
X158790260Y-83601923D01*
X158878076Y-83689739D01*
X158878080Y-83689742D01*
X158981339Y-83758738D01*
X158981343Y-83758740D01*
X158981346Y-83758742D01*
X159096090Y-83806271D01*
X159164419Y-83819862D01*
X159217896Y-83830499D01*
X159217900Y-83830500D01*
X159217901Y-83830500D01*
X159342100Y-83830500D01*
X159342101Y-83830499D01*
X159463910Y-83806271D01*
X159578654Y-83758742D01*
X159681920Y-83689742D01*
X159769742Y-83601920D01*
X159838742Y-83498654D01*
X159886271Y-83383910D01*
X159910500Y-83262099D01*
X159910500Y-83178499D01*
X159930185Y-83111460D01*
X159982989Y-83065705D01*
X160034495Y-83054499D01*
X161125066Y-83054499D01*
X161125067Y-83054499D01*
X161125068Y-83054498D01*
X161147685Y-83050000D01*
X161160808Y-83047390D01*
X161209190Y-83047390D01*
X161244933Y-83054500D01*
X162395066Y-83054499D01*
X162417685Y-83050000D01*
X162430808Y-83047390D01*
X162479190Y-83047390D01*
X162514933Y-83054500D01*
X163665066Y-83054499D01*
X163739301Y-83039734D01*
X163823484Y-82983484D01*
X163879734Y-82899301D01*
X163894500Y-82825067D01*
X163894499Y-81075683D01*
X164875500Y-81075683D01*
X164875500Y-82924316D01*
X164904493Y-83070072D01*
X164904495Y-83070080D01*
X164961371Y-83207391D01*
X165043939Y-83330964D01*
X165043945Y-83330971D01*
X165149028Y-83436054D01*
X165149035Y-83436060D01*
X165272608Y-83518628D01*
X165272609Y-83518628D01*
X165272610Y-83518629D01*
X165409920Y-83575505D01*
X165542733Y-83601923D01*
X165555683Y-83604499D01*
X165555687Y-83604500D01*
X165555688Y-83604500D01*
X165704313Y-83604500D01*
X165704314Y-83604499D01*
X165850080Y-83575505D01*
X165987390Y-83518629D01*
X166110966Y-83436059D01*
X166110971Y-83436054D01*
X166177319Y-83369707D01*
X166238642Y-83336222D01*
X166308334Y-83341206D01*
X166352681Y-83369707D01*
X166419028Y-83436054D01*
X166419035Y-83436060D01*
X166542608Y-83518628D01*
X166542609Y-83518628D01*
X166542610Y-83518629D01*
X166679920Y-83575505D01*
X166812733Y-83601923D01*
X166825683Y-83604499D01*
X166825687Y-83604500D01*
X166825688Y-83604500D01*
X166974313Y-83604500D01*
X166974314Y-83604499D01*
X167120080Y-83575505D01*
X167257390Y-83518629D01*
X167380966Y-83436059D01*
X167380971Y-83436054D01*
X167447319Y-83369707D01*
X167508642Y-83336222D01*
X167578334Y-83341206D01*
X167622681Y-83369707D01*
X167689028Y-83436054D01*
X167689035Y-83436060D01*
X167812608Y-83518628D01*
X167812609Y-83518628D01*
X167812610Y-83518629D01*
X167949920Y-83575505D01*
X168082733Y-83601923D01*
X168095683Y-83604499D01*
X168095687Y-83604500D01*
X168095688Y-83604500D01*
X168244313Y-83604500D01*
X168244314Y-83604499D01*
X168390080Y-83575505D01*
X168527390Y-83518629D01*
X168542897Y-83508267D01*
X168609572Y-83487387D01*
X168676953Y-83505869D01*
X168699471Y-83523686D01*
X168802533Y-83626748D01*
X168802537Y-83626751D01*
X168966315Y-83736185D01*
X168966328Y-83736192D01*
X169148308Y-83811569D01*
X169190000Y-83819862D01*
X169190000Y-82944975D01*
X169225095Y-82980070D01*
X169304905Y-83026148D01*
X169393922Y-83050000D01*
X169486078Y-83050000D01*
X169575095Y-83026148D01*
X169654905Y-82980070D01*
X169690000Y-82944975D01*
X169690000Y-83819862D01*
X169731690Y-83811569D01*
X169731692Y-83811569D01*
X169913671Y-83736192D01*
X169913684Y-83736185D01*
X170077462Y-83626751D01*
X170077466Y-83626748D01*
X170180526Y-83523687D01*
X170241849Y-83490201D01*
X170311540Y-83495185D01*
X170337098Y-83508265D01*
X170352607Y-83518628D01*
X170364821Y-83523687D01*
X170489920Y-83575505D01*
X170622733Y-83601923D01*
X170635683Y-83604499D01*
X170635687Y-83604500D01*
X170635688Y-83604500D01*
X170784313Y-83604500D01*
X170784314Y-83604499D01*
X170930080Y-83575505D01*
X171067390Y-83518629D01*
X171190966Y-83436059D01*
X171190971Y-83436054D01*
X171257319Y-83369707D01*
X171318642Y-83336222D01*
X171388334Y-83341206D01*
X171432681Y-83369707D01*
X171499028Y-83436054D01*
X171499035Y-83436060D01*
X171622608Y-83518628D01*
X171622609Y-83518628D01*
X171622610Y-83518629D01*
X171759920Y-83575505D01*
X171892733Y-83601923D01*
X171905683Y-83604499D01*
X171905687Y-83604500D01*
X171905688Y-83604500D01*
X172054313Y-83604500D01*
X172054314Y-83604499D01*
X172200080Y-83575505D01*
X172337390Y-83518629D01*
X172352897Y-83508267D01*
X172419572Y-83487387D01*
X172486953Y-83505869D01*
X172509471Y-83523686D01*
X172612533Y-83626748D01*
X172612537Y-83626751D01*
X172776315Y-83736185D01*
X172776328Y-83736192D01*
X172958308Y-83811569D01*
X173000000Y-83819862D01*
X173000000Y-82944975D01*
X173035095Y-82980070D01*
X173114905Y-83026148D01*
X173203922Y-83050000D01*
X173296078Y-83050000D01*
X173385095Y-83026148D01*
X173464905Y-82980070D01*
X173500000Y-82944975D01*
X173500000Y-83819862D01*
X173541690Y-83811569D01*
X173541692Y-83811569D01*
X173723671Y-83736192D01*
X173723684Y-83736185D01*
X173887462Y-83626751D01*
X173887466Y-83626748D01*
X174026748Y-83487466D01*
X174026751Y-83487462D01*
X174136185Y-83323684D01*
X174136192Y-83323671D01*
X174211569Y-83141693D01*
X174211572Y-83141681D01*
X174249999Y-82948495D01*
X174250000Y-82948492D01*
X174250000Y-82650000D01*
X173598949Y-82650000D01*
X173576148Y-82564905D01*
X173530070Y-82485095D01*
X173464905Y-82419930D01*
X173385095Y-82373852D01*
X173296078Y-82350000D01*
X173203922Y-82350000D01*
X173114905Y-82373852D01*
X173035095Y-82419930D01*
X173000000Y-82455025D01*
X173000000Y-81944975D01*
X173035095Y-81980070D01*
X173114905Y-82026148D01*
X173203922Y-82050000D01*
X173296078Y-82050000D01*
X173385095Y-82026148D01*
X173464905Y-81980070D01*
X173530070Y-81914905D01*
X173576148Y-81835095D01*
X173598949Y-81750000D01*
X174250000Y-81750000D01*
X174250000Y-81051508D01*
X174249999Y-81051504D01*
X174211572Y-80858318D01*
X174211569Y-80858306D01*
X174136192Y-80676328D01*
X174136185Y-80676315D01*
X174026751Y-80512537D01*
X174026748Y-80512533D01*
X173887466Y-80373251D01*
X173887462Y-80373248D01*
X173723684Y-80263814D01*
X173723671Y-80263807D01*
X173541691Y-80188429D01*
X173541683Y-80188427D01*
X173500000Y-80180135D01*
X173500000Y-81455025D01*
X173464905Y-81419930D01*
X173385095Y-81373852D01*
X173296078Y-81350000D01*
X173203922Y-81350000D01*
X173114905Y-81373852D01*
X173035095Y-81419930D01*
X173000000Y-81455025D01*
X173000000Y-80180136D01*
X172999999Y-80180135D01*
X172958316Y-80188427D01*
X172958308Y-80188429D01*
X172776328Y-80263807D01*
X172776315Y-80263814D01*
X172612537Y-80373248D01*
X172612533Y-80373251D01*
X172509472Y-80476313D01*
X172448149Y-80509798D01*
X172378457Y-80504814D01*
X172352902Y-80491735D01*
X172337391Y-80481371D01*
X172200080Y-80424495D01*
X172200072Y-80424493D01*
X172054316Y-80395500D01*
X172054312Y-80395500D01*
X171905688Y-80395500D01*
X171905683Y-80395500D01*
X171759927Y-80424493D01*
X171759919Y-80424495D01*
X171622608Y-80481371D01*
X171499035Y-80563939D01*
X171499028Y-80563945D01*
X171432681Y-80630293D01*
X171371358Y-80663778D01*
X171301666Y-80658794D01*
X171257319Y-80630293D01*
X171190971Y-80563945D01*
X171190964Y-80563939D01*
X171067391Y-80481371D01*
X170930080Y-80424495D01*
X170930072Y-80424493D01*
X170784316Y-80395500D01*
X170784312Y-80395500D01*
X170635688Y-80395500D01*
X170635683Y-80395500D01*
X170489927Y-80424493D01*
X170489919Y-80424495D01*
X170352608Y-80481371D01*
X170337098Y-80491735D01*
X170270420Y-80512612D01*
X170203041Y-80494126D01*
X170180528Y-80476313D01*
X170077466Y-80373251D01*
X170077462Y-80373248D01*
X169913684Y-80263814D01*
X169913671Y-80263807D01*
X169731691Y-80188429D01*
X169731683Y-80188427D01*
X169690000Y-80180135D01*
X169690000Y-81455025D01*
X169654905Y-81419930D01*
X169575095Y-81373852D01*
X169486078Y-81350000D01*
X169393922Y-81350000D01*
X169304905Y-81373852D01*
X169225095Y-81419930D01*
X169190000Y-81455025D01*
X169190000Y-80180136D01*
X169189999Y-80180135D01*
X169148316Y-80188427D01*
X169148308Y-80188429D01*
X168966328Y-80263807D01*
X168966315Y-80263814D01*
X168802537Y-80373248D01*
X168802533Y-80373251D01*
X168699472Y-80476313D01*
X168638149Y-80509798D01*
X168568457Y-80504814D01*
X168542902Y-80491735D01*
X168527391Y-80481371D01*
X168390080Y-80424495D01*
X168390072Y-80424493D01*
X168244316Y-80395500D01*
X168244312Y-80395500D01*
X168095688Y-80395500D01*
X168095683Y-80395500D01*
X167949927Y-80424493D01*
X167949919Y-80424495D01*
X167812608Y-80481371D01*
X167689035Y-80563939D01*
X167689028Y-80563945D01*
X167622681Y-80630293D01*
X167561358Y-80663778D01*
X167491666Y-80658794D01*
X167447319Y-80630293D01*
X167380971Y-80563945D01*
X167380964Y-80563939D01*
X167257391Y-80481371D01*
X167120080Y-80424495D01*
X167120072Y-80424493D01*
X166974316Y-80395500D01*
X166974312Y-80395500D01*
X166825688Y-80395500D01*
X166825683Y-80395500D01*
X166679927Y-80424493D01*
X166679919Y-80424495D01*
X166542608Y-80481371D01*
X166419035Y-80563939D01*
X166419028Y-80563945D01*
X166352681Y-80630293D01*
X166291358Y-80663778D01*
X166221666Y-80658794D01*
X166177319Y-80630293D01*
X166110971Y-80563945D01*
X166110964Y-80563939D01*
X165987391Y-80481371D01*
X165850080Y-80424495D01*
X165850072Y-80424493D01*
X165704316Y-80395500D01*
X165704312Y-80395500D01*
X165555688Y-80395500D01*
X165555683Y-80395500D01*
X165409927Y-80424493D01*
X165409919Y-80424495D01*
X165272608Y-80481371D01*
X165149035Y-80563939D01*
X165149028Y-80563945D01*
X165043945Y-80669028D01*
X165043939Y-80669035D01*
X164961371Y-80792608D01*
X164904495Y-80929919D01*
X164904493Y-80929927D01*
X164875500Y-81075683D01*
X163894499Y-81075683D01*
X163894499Y-80574934D01*
X163879734Y-80500699D01*
X163861068Y-80472765D01*
X163823484Y-80416515D01*
X163758734Y-80373251D01*
X163739301Y-80360266D01*
X163739299Y-80360265D01*
X163739296Y-80360264D01*
X163665069Y-80345500D01*
X162514935Y-80345500D01*
X162479187Y-80352610D01*
X162430815Y-80352609D01*
X162395069Y-80345500D01*
X161244935Y-80345500D01*
X161209187Y-80352610D01*
X161160815Y-80352609D01*
X161125069Y-80345500D01*
X159974936Y-80345500D01*
X159900698Y-80360266D01*
X159816515Y-80416515D01*
X159760266Y-80500699D01*
X159760264Y-80500703D01*
X159745500Y-80574928D01*
X159745500Y-82524788D01*
X159725815Y-82591827D01*
X159673011Y-82637582D01*
X159603853Y-82647526D01*
X159574048Y-82639349D01*
X159463916Y-82593731D01*
X159463912Y-82593729D01*
X159463910Y-82593729D01*
X159463906Y-82593728D01*
X159463902Y-82593727D01*
X159342103Y-82569500D01*
X159342099Y-82569500D01*
X159217901Y-82569500D01*
X159217896Y-82569500D01*
X159096097Y-82593727D01*
X159096083Y-82593731D01*
X158985951Y-82639349D01*
X158916482Y-82646818D01*
X158854003Y-82615542D01*
X158818351Y-82555453D01*
X158814499Y-82524788D01*
X158814499Y-80574936D01*
X158814499Y-80574934D01*
X158799734Y-80500699D01*
X158781068Y-80472765D01*
X158743484Y-80416515D01*
X158678734Y-80373251D01*
X158659301Y-80360266D01*
X158659299Y-80360265D01*
X158659296Y-80360264D01*
X158585069Y-80345500D01*
X157434935Y-80345500D01*
X157399187Y-80352610D01*
X157350815Y-80352609D01*
X157315070Y-80345500D01*
X156516131Y-80345500D01*
X156449092Y-80325815D01*
X156416864Y-80295811D01*
X156377186Y-80242809D01*
X156262093Y-80156649D01*
X156262086Y-80156645D01*
X156127379Y-80106403D01*
X156127372Y-80106401D01*
X156067844Y-80100000D01*
X155720000Y-80100000D01*
X155720000Y-81377243D01*
X155718676Y-81375919D01*
X155626324Y-81322600D01*
X155523319Y-81295000D01*
X155416681Y-81295000D01*
X155313676Y-81322600D01*
X155221324Y-81375919D01*
X155220000Y-81377243D01*
X155220000Y-80100000D01*
X154872155Y-80100000D01*
X154812627Y-80106401D01*
X154812620Y-80106403D01*
X154677913Y-80156645D01*
X154677906Y-80156649D01*
X154562812Y-80242809D01*
X154562809Y-80242812D01*
X154476649Y-80357906D01*
X154476645Y-80357913D01*
X154426403Y-80492620D01*
X154426401Y-80492627D01*
X154420000Y-80552155D01*
X154420000Y-80976660D01*
X154400315Y-81043699D01*
X154347511Y-81089454D01*
X154287184Y-81098496D01*
X154287184Y-81099500D01*
X154280491Y-81099500D01*
X154279824Y-81099600D01*
X154279064Y-81099500D01*
X154279057Y-81099500D01*
X154120943Y-81099500D01*
X153968216Y-81140423D01*
X153968209Y-81140426D01*
X153831290Y-81219475D01*
X153831282Y-81219481D01*
X153719481Y-81331282D01*
X153719475Y-81331290D01*
X153640426Y-81468209D01*
X153640423Y-81468216D01*
X153599500Y-81620943D01*
X115200500Y-81620943D01*
X115200500Y-77073729D01*
X117100000Y-77073729D01*
X117100000Y-77180000D01*
X118151518Y-77180000D01*
X118140889Y-77198409D01*
X118100000Y-77351009D01*
X118100000Y-77508991D01*
X118140889Y-77661591D01*
X118151518Y-77680000D01*
X117100001Y-77680000D01*
X117100001Y-77786272D01*
X117102889Y-77834767D01*
X117148758Y-78045632D01*
X117148760Y-78045638D01*
X117233710Y-78244013D01*
X117354672Y-78422734D01*
X117507265Y-78575327D01*
X117685986Y-78696289D01*
X117864627Y-78772788D01*
X117918504Y-78817273D01*
X117939779Y-78883825D01*
X117921695Y-78951314D01*
X117888700Y-78987093D01*
X117747900Y-79089392D01*
X117747891Y-79089399D01*
X117619399Y-79217891D01*
X117619399Y-79217892D01*
X117619397Y-79217894D01*
X117573525Y-79281030D01*
X117512583Y-79364909D01*
X117430083Y-79526825D01*
X117430081Y-79526828D01*
X117373928Y-79699649D01*
X117373928Y-79699652D01*
X117345500Y-79879139D01*
X117345500Y-80060860D01*
X117373928Y-80240347D01*
X117373928Y-80240350D01*
X117430081Y-80413171D01*
X117430083Y-80413174D01*
X117512583Y-80575090D01*
X117619397Y-80722106D01*
X117747894Y-80850603D01*
X117894910Y-80957417D01*
X118056826Y-81039917D01*
X118056828Y-81039918D01*
X118166903Y-81075683D01*
X118229654Y-81096072D01*
X118409139Y-81124500D01*
X118409140Y-81124500D01*
X118990860Y-81124500D01*
X118990861Y-81124500D01*
X119170346Y-81096072D01*
X119170349Y-81096071D01*
X119170350Y-81096071D01*
X119343171Y-81039918D01*
X119343171Y-81039917D01*
X119343174Y-81039917D01*
X119505090Y-80957417D01*
X119652106Y-80850603D01*
X119780603Y-80722106D01*
X119887417Y-80575090D01*
X119969917Y-80413174D01*
X119987108Y-80360266D01*
X120026071Y-80240350D01*
X120026071Y-80240349D01*
X120026072Y-80240346D01*
X120054500Y-80060861D01*
X120054500Y-79879139D01*
X120026072Y-79699654D01*
X120026071Y-79699650D01*
X120026071Y-79699649D01*
X119969918Y-79526828D01*
X119969916Y-79526825D01*
X119887416Y-79364909D01*
X119780603Y-79217894D01*
X119652106Y-79089397D01*
X119511299Y-78987094D01*
X119468634Y-78931763D01*
X119462655Y-78862150D01*
X119495261Y-78800355D01*
X119535373Y-78772788D01*
X119714011Y-78696291D01*
X119714012Y-78696290D01*
X119892734Y-78575327D01*
X120045327Y-78422734D01*
X120166289Y-78244013D01*
X120251239Y-78045638D01*
X120251241Y-78045632D01*
X120297110Y-77834768D01*
X120300000Y-77786270D01*
X120300000Y-77680000D01*
X119248482Y-77680000D01*
X119259111Y-77661591D01*
X119300000Y-77508991D01*
X119300000Y-77351009D01*
X119259111Y-77198409D01*
X119248482Y-77180000D01*
X120299999Y-77180000D01*
X120299999Y-77073730D01*
X120299998Y-77073727D01*
X120297110Y-77025232D01*
X120251241Y-76814367D01*
X120251239Y-76814361D01*
X120166289Y-76615986D01*
X120061771Y-76461561D01*
X153488200Y-76461561D01*
X153488200Y-76618439D01*
X153528803Y-76769970D01*
X153607241Y-76905830D01*
X153718170Y-77016759D01*
X153854030Y-77095197D01*
X154005561Y-77135800D01*
X154005564Y-77135800D01*
X154162436Y-77135800D01*
X154162439Y-77135800D01*
X154313970Y-77095197D01*
X154449830Y-77016759D01*
X154560759Y-76905830D01*
X154639197Y-76769970D01*
X154679800Y-76618439D01*
X154679800Y-76461561D01*
X155520200Y-76461561D01*
X155520200Y-76618439D01*
X155560803Y-76769970D01*
X155639241Y-76905830D01*
X155750170Y-77016759D01*
X155886030Y-77095197D01*
X156037561Y-77135800D01*
X156037564Y-77135800D01*
X156194436Y-77135800D01*
X156194439Y-77135800D01*
X156345970Y-77095197D01*
X156481830Y-77016759D01*
X156592759Y-76905830D01*
X156671197Y-76769970D01*
X156711800Y-76618439D01*
X156711800Y-76461561D01*
X156671197Y-76310030D01*
X156592759Y-76174170D01*
X156481830Y-76063241D01*
X156345970Y-75984803D01*
X156345971Y-75984803D01*
X156298215Y-75972007D01*
X156194439Y-75944200D01*
X156037561Y-75944200D01*
X155933785Y-75972007D01*
X155886029Y-75984803D01*
X155750171Y-76063240D01*
X155750168Y-76063242D01*
X155639242Y-76174168D01*
X155639240Y-76174171D01*
X155560803Y-76310029D01*
X155560803Y-76310030D01*
X155520200Y-76461561D01*
X154679800Y-76461561D01*
X154639197Y-76310030D01*
X154560759Y-76174170D01*
X154449830Y-76063241D01*
X154313970Y-75984803D01*
X154313971Y-75984803D01*
X154266215Y-75972007D01*
X154162439Y-75944200D01*
X154005561Y-75944200D01*
X153901785Y-75972007D01*
X153854029Y-75984803D01*
X153718171Y-76063240D01*
X153718168Y-76063242D01*
X153607242Y-76174168D01*
X153607240Y-76174171D01*
X153528803Y-76310029D01*
X153528803Y-76310030D01*
X153488200Y-76461561D01*
X120061771Y-76461561D01*
X120045327Y-76437265D01*
X119892734Y-76284672D01*
X119714013Y-76163710D01*
X119515638Y-76078760D01*
X119515632Y-76078758D01*
X119304768Y-76032889D01*
X119256271Y-76030000D01*
X118950000Y-76030000D01*
X118950000Y-76881517D01*
X118931591Y-76870889D01*
X118778991Y-76830000D01*
X118621009Y-76830000D01*
X118468409Y-76870889D01*
X118450000Y-76881517D01*
X118450000Y-76030000D01*
X118143730Y-76030000D01*
X118143727Y-76030001D01*
X118095232Y-76032889D01*
X117884367Y-76078758D01*
X117884361Y-76078760D01*
X117685986Y-76163710D01*
X117507265Y-76284672D01*
X117354672Y-76437265D01*
X117233710Y-76615986D01*
X117148760Y-76814361D01*
X117148758Y-76814367D01*
X117102889Y-77025231D01*
X117100000Y-77073729D01*
X115200500Y-77073729D01*
X115200500Y-75414999D01*
X158269364Y-75414999D01*
X158269364Y-75415000D01*
X159166988Y-75415000D01*
X159134075Y-75472007D01*
X159100000Y-75599174D01*
X159100000Y-75730826D01*
X159134075Y-75857993D01*
X159166988Y-75915000D01*
X158269364Y-75915000D01*
X158326567Y-76128486D01*
X158326570Y-76128492D01*
X158426399Y-76342578D01*
X158561894Y-76536082D01*
X158728917Y-76703105D01*
X158922421Y-76838600D01*
X159136507Y-76938429D01*
X159136516Y-76938433D01*
X159350000Y-76995634D01*
X159350000Y-76098012D01*
X159407007Y-76130925D01*
X159534174Y-76165000D01*
X159665826Y-76165000D01*
X159792993Y-76130925D01*
X159850000Y-76098012D01*
X159850000Y-76995633D01*
X160063483Y-76938433D01*
X160063492Y-76938429D01*
X160277578Y-76838600D01*
X160471082Y-76703105D01*
X160638105Y-76536082D01*
X160773600Y-76342578D01*
X160873429Y-76128492D01*
X160873432Y-76128486D01*
X160930636Y-75915000D01*
X160033012Y-75915000D01*
X160065925Y-75857993D01*
X160100000Y-75730826D01*
X160100000Y-75599174D01*
X160065925Y-75472007D01*
X160033012Y-75415000D01*
X160930636Y-75415000D01*
X160930635Y-75414999D01*
X160873432Y-75201513D01*
X160873429Y-75201507D01*
X160773600Y-74987422D01*
X160773599Y-74987420D01*
X160638113Y-74793926D01*
X160638108Y-74793920D01*
X160471082Y-74626894D01*
X160277578Y-74491399D01*
X160222853Y-74465881D01*
X160170414Y-74419709D01*
X160151262Y-74352515D01*
X160171478Y-74285634D01*
X160224643Y-74240299D01*
X160275257Y-74229499D01*
X160475066Y-74229499D01*
X160549301Y-74214734D01*
X160633484Y-74158484D01*
X160689734Y-74074301D01*
X160704500Y-74000067D01*
X160704500Y-73409139D01*
X162275500Y-73409139D01*
X162275500Y-73990861D01*
X162276958Y-74000066D01*
X162303928Y-74170347D01*
X162303928Y-74170350D01*
X162360081Y-74343171D01*
X162360083Y-74343174D01*
X162442583Y-74505090D01*
X162549397Y-74652106D01*
X162677894Y-74780603D01*
X162824910Y-74887417D01*
X162986826Y-74969917D01*
X162986828Y-74969918D01*
X163148029Y-75022294D01*
X163159654Y-75026072D01*
X163339139Y-75054500D01*
X163339140Y-75054500D01*
X163520860Y-75054500D01*
X163520861Y-75054500D01*
X163700346Y-75026072D01*
X163700349Y-75026071D01*
X163700350Y-75026071D01*
X163873171Y-74969918D01*
X163873171Y-74969917D01*
X163873174Y-74969917D01*
X164035090Y-74887417D01*
X164182106Y-74780603D01*
X164310603Y-74652106D01*
X164417417Y-74505090D01*
X164499917Y-74343174D01*
X164510980Y-74309125D01*
X164556071Y-74170350D01*
X164556071Y-74170349D01*
X164556072Y-74170346D01*
X164569027Y-74088551D01*
X164598956Y-74025417D01*
X164658268Y-73988486D01*
X164728130Y-73989484D01*
X164786363Y-74028094D01*
X164814477Y-74092057D01*
X164815500Y-74107950D01*
X164815500Y-74231907D01*
X164821577Y-74309125D01*
X164821577Y-74309126D01*
X164869699Y-74488720D01*
X164954107Y-74654384D01*
X165002477Y-74714116D01*
X165071119Y-74798881D01*
X165139803Y-74854500D01*
X165215615Y-74915892D01*
X165321646Y-74969916D01*
X165381278Y-75000300D01*
X165560872Y-75048422D01*
X165638098Y-75054500D01*
X165638104Y-75054500D01*
X166301896Y-75054500D01*
X166301902Y-75054500D01*
X166379128Y-75048422D01*
X166558722Y-75000300D01*
X166671985Y-74942589D01*
X166724384Y-74915892D01*
X166724385Y-74915890D01*
X166724387Y-74915890D01*
X166868881Y-74798881D01*
X166985890Y-74654387D01*
X166987052Y-74652108D01*
X167012589Y-74601985D01*
X167070300Y-74488722D01*
X167118422Y-74309128D01*
X167124500Y-74231902D01*
X167124500Y-73409139D01*
X168975500Y-73409139D01*
X168975500Y-73990861D01*
X168976958Y-74000066D01*
X169003928Y-74170347D01*
X169003928Y-74170350D01*
X169060081Y-74343171D01*
X169060083Y-74343174D01*
X169142583Y-74505090D01*
X169249397Y-74652106D01*
X169377894Y-74780603D01*
X169524910Y-74887417D01*
X169686826Y-74969917D01*
X169686828Y-74969918D01*
X169848029Y-75022294D01*
X169859654Y-75026072D01*
X170039139Y-75054500D01*
X170039140Y-75054500D01*
X170220860Y-75054500D01*
X170220861Y-75054500D01*
X170400346Y-75026072D01*
X170400349Y-75026071D01*
X170400350Y-75026071D01*
X170573171Y-74969918D01*
X170573171Y-74969917D01*
X170573174Y-74969917D01*
X170735090Y-74887417D01*
X170882106Y-74780603D01*
X171010603Y-74652106D01*
X171117417Y-74505090D01*
X171199917Y-74343174D01*
X171210980Y-74309125D01*
X171256071Y-74170350D01*
X171256071Y-74170349D01*
X171256072Y-74170346D01*
X171269027Y-74088551D01*
X171298956Y-74025417D01*
X171358268Y-73988486D01*
X171428130Y-73989484D01*
X171486363Y-74028094D01*
X171514477Y-74092057D01*
X171515500Y-74107950D01*
X171515500Y-74231907D01*
X171521577Y-74309125D01*
X171521577Y-74309126D01*
X171569699Y-74488720D01*
X171654107Y-74654384D01*
X171702477Y-74714116D01*
X171771119Y-74798881D01*
X171839803Y-74854500D01*
X171915615Y-74915892D01*
X172021646Y-74969916D01*
X172081278Y-75000300D01*
X172260872Y-75048422D01*
X172338098Y-75054500D01*
X172338104Y-75054500D01*
X173001896Y-75054500D01*
X173001902Y-75054500D01*
X173079128Y-75048422D01*
X173258722Y-75000300D01*
X173371985Y-74942589D01*
X173424384Y-74915892D01*
X173424385Y-74915890D01*
X173424387Y-74915890D01*
X173568881Y-74798881D01*
X173685890Y-74654387D01*
X173687052Y-74652108D01*
X173712589Y-74601985D01*
X173770300Y-74488722D01*
X173818422Y-74309128D01*
X173824500Y-74231902D01*
X173824500Y-73168098D01*
X173818422Y-73090872D01*
X173770300Y-72911278D01*
X173741444Y-72854646D01*
X173685892Y-72745615D01*
X173648953Y-72700000D01*
X175240466Y-72700000D01*
X175260579Y-72994051D01*
X175320547Y-73282637D01*
X175320548Y-73282640D01*
X175419249Y-73560357D01*
X175419248Y-73560357D01*
X175554852Y-73822059D01*
X175700287Y-74028094D01*
X175724829Y-74062861D01*
X175926006Y-74278268D01*
X176154632Y-74464269D01*
X176154635Y-74464271D01*
X176154639Y-74464274D01*
X176286754Y-74544615D01*
X176406475Y-74617419D01*
X176625890Y-74712723D01*
X176676816Y-74734844D01*
X176960630Y-74814365D01*
X177217342Y-74849649D01*
X177252627Y-74854500D01*
X177252628Y-74854500D01*
X177547373Y-74854500D01*
X177578853Y-74850172D01*
X177839370Y-74814365D01*
X178123184Y-74734844D01*
X178371717Y-74626891D01*
X178393524Y-74617419D01*
X178393526Y-74617418D01*
X178645361Y-74464274D01*
X178873997Y-74278265D01*
X179075175Y-74062856D01*
X179245148Y-73822059D01*
X179380749Y-73560361D01*
X179479453Y-73282635D01*
X179539420Y-72994057D01*
X179559534Y-72700000D01*
X179539420Y-72405943D01*
X179479453Y-72117365D01*
X179478564Y-72114865D01*
X179380750Y-71839642D01*
X179380751Y-71839642D01*
X179270364Y-71626606D01*
X179245148Y-71577941D01*
X179075175Y-71337144D01*
X179075171Y-71337140D01*
X179075170Y-71337138D01*
X178873993Y-71121731D01*
X178645367Y-70935730D01*
X178645356Y-70935723D01*
X178393524Y-70782580D01*
X178123185Y-70665156D01*
X177839375Y-70585636D01*
X177839371Y-70585635D01*
X177839370Y-70585635D01*
X177693371Y-70565567D01*
X177547373Y-70545500D01*
X177547372Y-70545500D01*
X177252628Y-70545500D01*
X177252627Y-70545500D01*
X176960630Y-70585635D01*
X176960624Y-70585636D01*
X176676814Y-70665156D01*
X176406475Y-70782580D01*
X176154643Y-70935723D01*
X176154632Y-70935730D01*
X175926006Y-71121731D01*
X175724829Y-71337138D01*
X175554852Y-71577940D01*
X175419249Y-71839642D01*
X175320548Y-72117359D01*
X175320547Y-72117362D01*
X175260579Y-72405948D01*
X175240466Y-72700000D01*
X173648953Y-72700000D01*
X173632765Y-72680009D01*
X173568881Y-72601119D01*
X173459548Y-72512583D01*
X173424384Y-72484107D01*
X173258720Y-72399699D01*
X173079125Y-72351577D01*
X173001907Y-72345500D01*
X173001902Y-72345500D01*
X172338098Y-72345500D01*
X172338092Y-72345500D01*
X172260874Y-72351577D01*
X172260873Y-72351577D01*
X172081279Y-72399699D01*
X171915615Y-72484107D01*
X171771119Y-72601119D01*
X171654107Y-72745615D01*
X171569699Y-72911279D01*
X171521577Y-73090873D01*
X171521577Y-73090874D01*
X171515500Y-73168092D01*
X171515500Y-73292049D01*
X171495815Y-73359088D01*
X171443011Y-73404843D01*
X171373853Y-73414787D01*
X171310297Y-73385762D01*
X171272523Y-73326984D01*
X171269027Y-73311447D01*
X171267468Y-73301606D01*
X171256072Y-73229654D01*
X171256071Y-73229650D01*
X171256071Y-73229649D01*
X171199918Y-73056828D01*
X171199916Y-73056825D01*
X171167935Y-72994057D01*
X171117417Y-72894910D01*
X171010603Y-72747894D01*
X170882106Y-72619397D01*
X170735090Y-72512583D01*
X170573174Y-72430083D01*
X170573171Y-72430081D01*
X170400348Y-72373928D01*
X170259229Y-72351577D01*
X170220861Y-72345500D01*
X170039139Y-72345500D01*
X170000771Y-72351577D01*
X169859652Y-72373928D01*
X169859649Y-72373928D01*
X169686828Y-72430081D01*
X169686825Y-72430083D01*
X169524909Y-72512583D01*
X169441030Y-72573525D01*
X169377894Y-72619397D01*
X169377892Y-72619399D01*
X169377891Y-72619399D01*
X169249399Y-72747891D01*
X169249399Y-72747892D01*
X169249397Y-72747894D01*
X169203525Y-72811030D01*
X169142583Y-72894909D01*
X169060083Y-73056825D01*
X169060081Y-73056828D01*
X169003928Y-73229649D01*
X169003928Y-73229652D01*
X168995536Y-73282637D01*
X168975500Y-73409139D01*
X167124500Y-73409139D01*
X167124500Y-73168098D01*
X167118422Y-73090872D01*
X167070300Y-72911278D01*
X167041444Y-72854646D01*
X166985892Y-72745615D01*
X166932765Y-72680009D01*
X166868881Y-72601119D01*
X166759548Y-72512583D01*
X166724384Y-72484107D01*
X166558720Y-72399699D01*
X166379125Y-72351577D01*
X166301907Y-72345500D01*
X166301902Y-72345500D01*
X165638098Y-72345500D01*
X165638092Y-72345500D01*
X165560874Y-72351577D01*
X165560873Y-72351577D01*
X165381279Y-72399699D01*
X165215615Y-72484107D01*
X165071119Y-72601119D01*
X164954107Y-72745615D01*
X164869699Y-72911279D01*
X164821577Y-73090873D01*
X164821577Y-73090874D01*
X164815500Y-73168092D01*
X164815500Y-73292049D01*
X164795815Y-73359088D01*
X164743011Y-73404843D01*
X164673853Y-73414787D01*
X164610297Y-73385762D01*
X164572523Y-73326984D01*
X164569027Y-73311447D01*
X164567468Y-73301606D01*
X164556072Y-73229654D01*
X164556071Y-73229650D01*
X164556071Y-73229649D01*
X164499918Y-73056828D01*
X164499916Y-73056825D01*
X164467935Y-72994057D01*
X164417417Y-72894910D01*
X164310603Y-72747894D01*
X164182106Y-72619397D01*
X164035090Y-72512583D01*
X163873174Y-72430083D01*
X163873171Y-72430081D01*
X163700348Y-72373928D01*
X163559229Y-72351577D01*
X163520861Y-72345500D01*
X163339139Y-72345500D01*
X163300771Y-72351577D01*
X163159652Y-72373928D01*
X163159649Y-72373928D01*
X162986828Y-72430081D01*
X162986825Y-72430083D01*
X162824909Y-72512583D01*
X162741030Y-72573525D01*
X162677894Y-72619397D01*
X162677892Y-72619399D01*
X162677891Y-72619399D01*
X162549399Y-72747891D01*
X162549399Y-72747892D01*
X162549397Y-72747894D01*
X162503525Y-72811030D01*
X162442583Y-72894909D01*
X162360083Y-73056825D01*
X162360081Y-73056828D01*
X162303928Y-73229649D01*
X162303928Y-73229652D01*
X162295536Y-73282637D01*
X162275500Y-73409139D01*
X160704500Y-73409139D01*
X160704499Y-72249934D01*
X160689734Y-72175699D01*
X160671068Y-72147765D01*
X160633484Y-72091515D01*
X160580032Y-72055800D01*
X160549301Y-72035266D01*
X160549299Y-72035265D01*
X160549296Y-72035264D01*
X160475069Y-72020500D01*
X158724936Y-72020500D01*
X158650698Y-72035266D01*
X158566515Y-72091515D01*
X158510266Y-72175699D01*
X158510264Y-72175703D01*
X158495500Y-72249928D01*
X158495500Y-74000063D01*
X158510266Y-74074301D01*
X158566515Y-74158484D01*
X158584270Y-74170347D01*
X158650699Y-74214734D01*
X158650702Y-74214734D01*
X158650703Y-74214735D01*
X158675666Y-74219700D01*
X158724933Y-74229500D01*
X158924742Y-74229499D01*
X158991779Y-74249183D01*
X159037534Y-74301987D01*
X159047478Y-74371145D01*
X159018453Y-74434701D01*
X158977146Y-74465880D01*
X158922427Y-74491396D01*
X158922420Y-74491400D01*
X158728926Y-74626886D01*
X158728920Y-74626891D01*
X158561891Y-74793920D01*
X158561886Y-74793926D01*
X158426400Y-74987420D01*
X158426399Y-74987422D01*
X158326570Y-75201507D01*
X158326567Y-75201513D01*
X158269364Y-75414999D01*
X115200500Y-75414999D01*
X115200500Y-72703461D01*
X115200597Y-72700000D01*
X115640466Y-72700000D01*
X115660579Y-72994051D01*
X115720547Y-73282637D01*
X115720548Y-73282640D01*
X115819249Y-73560357D01*
X115819248Y-73560357D01*
X115954852Y-73822059D01*
X116100287Y-74028094D01*
X116124829Y-74062861D01*
X116326006Y-74278268D01*
X116554632Y-74464269D01*
X116554635Y-74464271D01*
X116554639Y-74464274D01*
X116686754Y-74544615D01*
X116806475Y-74617419D01*
X117025890Y-74712723D01*
X117076816Y-74734844D01*
X117360630Y-74814365D01*
X117617342Y-74849649D01*
X117652627Y-74854500D01*
X117652628Y-74854500D01*
X117947373Y-74854500D01*
X117978853Y-74850172D01*
X118239370Y-74814365D01*
X118523184Y-74734844D01*
X118771717Y-74626891D01*
X118793524Y-74617419D01*
X118793526Y-74617418D01*
X119045361Y-74464274D01*
X119273997Y-74278265D01*
X119475175Y-74062856D01*
X119645148Y-73822059D01*
X119780749Y-73560361D01*
X119879453Y-73282635D01*
X119939420Y-72994057D01*
X119959534Y-72700000D01*
X119939420Y-72405943D01*
X119879453Y-72117365D01*
X119878564Y-72114865D01*
X119780750Y-71839642D01*
X119780751Y-71839642D01*
X119670364Y-71626606D01*
X119645148Y-71577941D01*
X119506528Y-71381561D01*
X154504200Y-71381561D01*
X154504200Y-71538439D01*
X154544803Y-71689970D01*
X154623241Y-71825830D01*
X154734170Y-71936759D01*
X154870030Y-72015197D01*
X155021561Y-72055800D01*
X155021564Y-72055800D01*
X155178436Y-72055800D01*
X155178439Y-72055800D01*
X155329970Y-72015197D01*
X155465830Y-71936759D01*
X155576759Y-71825830D01*
X155655197Y-71689970D01*
X155695800Y-71538439D01*
X155695800Y-71381561D01*
X155655197Y-71230030D01*
X155576759Y-71094170D01*
X155465830Y-70983241D01*
X155329970Y-70904803D01*
X155329971Y-70904803D01*
X155292087Y-70894652D01*
X155178439Y-70864200D01*
X155021561Y-70864200D01*
X154907912Y-70894652D01*
X154870029Y-70904803D01*
X154734171Y-70983240D01*
X154734168Y-70983242D01*
X154623242Y-71094168D01*
X154623240Y-71094171D01*
X154544803Y-71230029D01*
X154544803Y-71230030D01*
X154504200Y-71381561D01*
X119506528Y-71381561D01*
X119475175Y-71337144D01*
X119475171Y-71337140D01*
X119475170Y-71337138D01*
X119273993Y-71121731D01*
X119045367Y-70935730D01*
X119045356Y-70935723D01*
X118793524Y-70782580D01*
X118523185Y-70665156D01*
X118239375Y-70585636D01*
X118239371Y-70585635D01*
X118239370Y-70585635D01*
X118093371Y-70565567D01*
X117947373Y-70545500D01*
X117947372Y-70545500D01*
X117652628Y-70545500D01*
X117652627Y-70545500D01*
X117360630Y-70585635D01*
X117360624Y-70585636D01*
X117076814Y-70665156D01*
X116806475Y-70782580D01*
X116554643Y-70935723D01*
X116554632Y-70935730D01*
X116326006Y-71121731D01*
X116124829Y-71337138D01*
X115954852Y-71577940D01*
X115819249Y-71839642D01*
X115720548Y-72117359D01*
X115720547Y-72117362D01*
X115660579Y-72405948D01*
X115640466Y-72700000D01*
X115200597Y-72700000D01*
X115200695Y-72696509D01*
X115215657Y-72430081D01*
X115216454Y-72415890D01*
X115218010Y-72402082D01*
X115264507Y-72128422D01*
X115267601Y-72114867D01*
X115290534Y-72035266D01*
X115344449Y-71848123D01*
X115349041Y-71835003D01*
X115435361Y-71626606D01*
X115455268Y-71578544D01*
X115461298Y-71566025D01*
X115595574Y-71323071D01*
X115602965Y-71311308D01*
X115763604Y-71084908D01*
X115772260Y-71074054D01*
X115957244Y-70867056D01*
X115967056Y-70857244D01*
X116174054Y-70672260D01*
X116184908Y-70663604D01*
X116411308Y-70502965D01*
X116423071Y-70495574D01*
X116666038Y-70361290D01*
X116678544Y-70355268D01*
X116935003Y-70249041D01*
X116948123Y-70244449D01*
X117214868Y-70167600D01*
X117228424Y-70164507D01*
X117502091Y-70118008D01*
X117515890Y-70116454D01*
X117762075Y-70102628D01*
X117796510Y-70100695D01*
X117803462Y-70100500D01*
X177373071Y-70100500D01*
X177396519Y-70100500D01*
X177403471Y-70100695D01*
G37*
%TD.AperFunction*%
%TD*%
M02*
